<svg width="63" height="63" viewBox="0 0 63 63" fill="none" xmlns="http://www.w3.org/2000/svg">
<path fill-rule="evenodd" clip-rule="evenodd" d="M39.5134 11.3037C42.8872 11.3037 45.7599 13.4608 46.8242 16.4704H24.0134C20.5877 16.4704 17.3023 17.8312 14.8799 20.2536C12.4576 22.6759 11.0967 25.9613 11.0967 29.387V41.8645C9.58528 41.3298 8.27681 40.3395 7.35151 39.0302C6.42621 37.7209 5.92959 36.157 5.93005 34.5537V19.0537C5.93005 16.9983 6.74657 15.027 8.19998 13.5736C9.65338 12.1202 11.6246 11.3037 13.6801 11.3037H39.5134ZM49.8467 21.637H24.0134C21.958 21.637 19.9867 22.4536 18.5333 23.907C17.0799 25.3604 16.2634 27.3316 16.2634 29.387V44.887C16.2634 46.9425 17.0799 48.9137 18.5333 50.3671C19.9867 51.8205 21.958 52.637 24.0134 52.637H49.8467C51.9021 52.637 53.8734 51.8205 55.3268 50.3671C56.7802 48.9137 57.5967 46.9425 57.5967 44.887V29.387C57.5967 27.3316 56.7802 25.3604 55.3268 23.907C53.8734 22.4536 51.9021 21.637 49.8467 21.637ZM42.0967 37.137C42.0967 38.5073 41.5524 39.8215 40.5834 40.7904C39.6145 41.7594 38.3003 42.3037 36.9301 42.3037C35.5598 42.3037 34.2456 41.7594 33.2767 40.7904C32.3077 39.8215 31.7634 38.5073 31.7634 37.137C31.7634 35.7668 32.3077 34.4526 33.2767 33.4837C34.2456 32.5147 35.5598 31.9704 36.9301 31.9704C38.3003 31.9704 39.6145 32.5147 40.5834 33.4837C41.5524 34.4526 42.0967 35.7668 42.0967 37.137Z" fill="#6D7D8B"/>
</svg>
