<svg width="60" height="55" viewBox="0 0 60 55" fill="none" xmlns="http://www.w3.org/2000/svg">
<rect y="0.751953" width="60" height="54" rx="10" fill="#1ACC8D"/>
<path d="M16.5 27.8332C16.5016 34.5153 21.3307 40.2047 27.8896 41.252V31.7587H24.4647V27.8332H27.8936V24.8449C27.7403 23.4289 28.221 22.0177 29.2053 20.994C30.1895 19.9703 31.5754 19.4402 32.987 19.5475C34.0002 19.564 35.0108 19.6548 36.0109 19.8192V23.1592H34.3045C33.7171 23.0818 33.1265 23.277 32.6991 23.6899C32.2718 24.1027 32.0539 24.6886 32.1068 25.2823V27.8332H35.8475L35.2495 31.7601H32.1068V41.252C39.2001 40.124 44.1742 33.6057 43.4255 26.4193C42.6768 19.2329 36.4675 13.8941 29.296 14.2707C22.1244 14.6473 16.5011 20.6074 16.5 27.8332Z" fill="white"/>
</svg>
