<svg width="28" height="28" viewBox="0 0 28 28" fill="none" xmlns="http://www.w3.org/2000/svg">
<path d="M0.088623 13.59C0.0902444 20.2721 5.07513 25.9616 11.8456 27.0088V17.5156H8.31027V13.59H11.8498V10.6017C11.6915 9.18576 12.1877 7.77455 13.2037 6.75084C14.2198 5.72714 15.6503 5.19705 17.1074 5.30434C18.1533 5.3208 19.1966 5.4116 20.2289 5.576V8.91609H18.4675C17.8611 8.83867 17.2515 9.03388 16.8103 9.44673C16.3691 9.85958 16.1442 10.4454 16.1989 11.0391V13.59H20.0603L19.4429 17.5169H16.1989V27.0088C23.521 25.8808 28.6555 19.3626 27.8827 12.1761C27.1099 4.98971 20.7003 -0.349051 13.2974 0.0275402C5.89445 0.404131 0.0897998 6.36424 0.088623 13.59Z" fill="#25313C"/>
</svg>
