<svg width="28" height="27" viewBox="0 0 28 27" fill="none" xmlns="http://www.w3.org/2000/svg">
<path d="M14.4129 26.1378C10.7357 26.1378 10.3022 26.119 8.86715 26.0581C7.74809 26.0225 6.64352 25.802 5.60099 25.4062C3.79721 24.7259 2.37091 23.3431 1.66963 21.5946C1.27695 20.5806 1.06516 19.5092 1.0433 18.4263C0.959595 17.0384 0.959595 16.5835 0.959595 13.0472C0.959595 9.47325 0.979027 9.05602 1.0433 7.67249C1.06563 6.59106 1.27742 5.52116 1.66963 4.5085C2.37015 2.75777 3.79877 1.37373 5.60547 0.69548C6.64981 0.313312 7.75403 0.107511 8.87014 0.0870197C10.2977 0.00878906 10.7671 0.00878906 14.4129 0.00878906C18.12 0.00878906 18.5461 0.0276224 19.9587 0.0870197C21.0777 0.107688 22.1848 0.313468 23.2323 0.69548C25.0385 1.3745 26.4668 2.75827 27.1681 4.5085C27.5674 5.53592 27.7804 6.62254 27.7975 7.7203C27.8812 9.10817 27.8812 9.56162 27.8812 13.0965C27.8812 16.6313 27.8602 17.0949 27.7975 18.4669C27.7752 19.5508 27.5629 20.6232 27.1696 21.6381C26.4666 23.3877 25.0381 24.7711 23.2323 25.4511C22.1863 25.831 21.0814 26.0362 19.9646 26.0581C18.5371 26.1378 18.0692 26.1378 14.4129 26.1378ZM14.3621 2.30211C10.7058 2.30211 10.3261 2.31949 8.89854 2.38178C8.04648 2.39272 7.20265 2.54511 6.4037 2.83234C5.22392 3.26986 4.29038 4.17094 3.83412 5.31254C3.53548 6.09527 3.37821 6.92203 3.36923 7.75652C3.29001 9.16032 3.29001 9.5283 3.29001 13.0472C3.29001 16.5241 3.30346 16.9457 3.36923 18.3408C3.38261 19.1669 3.53978 19.9848 3.83412 20.7602C4.29105 21.901 5.22443 22.8014 6.4037 23.2389C7.2021 23.5281 8.04628 23.6805 8.89854 23.6895C10.3455 23.7706 10.7267 23.7706 14.3621 23.7706C18.0289 23.7706 18.4085 23.7532 19.8241 23.6895C20.6768 23.6794 21.5212 23.527 22.3205 23.2389C23.4931 22.7976 24.4206 21.8993 24.8766 20.7631C25.1747 19.9797 25.3319 19.1526 25.3415 18.3177H25.3579C25.4222 16.9327 25.4222 16.5633 25.4222 13.024C25.4222 9.48484 25.4058 9.11252 25.3415 7.72899C25.3281 6.90388 25.1709 6.08689 24.8766 5.31254C24.4216 4.17468 23.494 3.27462 22.3205 2.83234C21.5214 2.54367 20.6768 2.39123 19.8241 2.38178C18.3786 2.30211 18.0005 2.30211 14.3621 2.30211ZM14.4129 19.7388C11.6176 19.7406 9.09648 18.1101 8.02537 15.6078C6.95425 13.1054 7.5441 10.2242 9.51983 8.3077C11.4956 6.39124 14.468 5.81708 17.0509 6.853C19.6338 7.88892 21.3183 10.3309 21.3189 13.04C21.3148 16.7357 18.2263 19.7317 14.4129 19.7388ZM14.4129 8.69094C11.9362 8.69094 9.92847 10.6368 9.92847 13.0371C9.92847 15.4374 11.9362 17.3832 14.4129 17.3832C16.8896 17.3832 18.8973 15.4374 18.8973 13.0371C18.8916 10.6391 16.8872 8.69652 14.4129 8.69094ZM21.588 7.65801C20.6992 7.65481 19.9809 6.95478 19.9826 6.09341C19.9842 5.23203 20.7052 4.53459 21.594 4.53459C22.4828 4.53459 23.2037 5.23202 23.2054 6.09339C23.2058 6.50898 23.0354 6.90761 22.7319 7.20119C22.4284 7.49478 22.0168 7.65916 21.588 7.65801Z" fill="#25313C"/>
</svg>
