<svg width="446" height="322" viewBox="0 0 446 322" fill="none" xmlns="http://www.w3.org/2000/svg">
<path d="M411.956 318.413H69.8551C60.2353 318.413 52.2991 310.597 52.2991 300.857V86.5784C52.2991 76.9587 60.1151 69.0225 69.8551 69.0225H411.956C421.576 69.0225 429.512 76.8385 429.512 86.5784V300.857C429.512 310.597 421.576 318.413 411.956 318.413Z" fill="#25313C"/>
<path d="M423.74 321.78H58.0709C46.2867 321.78 36.667 312.16 36.667 300.376V300.016H445.144V300.376C445.144 312.281 435.524 321.78 423.74 321.78Z" fill="#25313C"/>
<path d="M418.329 79.0029H62.52V289.554H418.329V79.0029Z" fill="#E0E0E0"/>
<path d="M203.81 300.016L208.86 308.072H280.166L284.856 300.016H203.81Z" fill="#455A64"/>
<path d="M401.976 93.0713H74.4248V289.554H401.976V93.0713Z" fill="white"/>
<path d="M88.3734 102.691C88.3734 104.255 87.1709 105.457 85.6077 105.457C84.0445 105.457 82.842 104.255 82.842 102.691C82.842 101.128 84.0445 99.9258 85.6077 99.9258C87.1709 99.9258 88.3734 101.248 88.3734 102.691Z" fill="#1ACC8D"/>
<path d="M99.556 102.691C99.556 104.255 98.3535 105.457 96.7903 105.457C95.2271 105.457 94.0247 104.255 94.0247 102.691C94.0247 101.128 95.2271 99.9258 96.7903 99.9258C98.3535 99.9258 99.556 101.248 99.556 102.691Z" fill="#1ACC8D"/>
<path d="M110.739 102.691C110.739 104.255 109.536 105.457 107.973 105.457C106.41 105.457 105.208 104.255 105.208 102.691C105.208 101.128 106.41 99.9258 107.973 99.9258C109.536 99.9258 110.739 101.248 110.739 102.691Z" fill="#1ACC8D"/>
<path d="M401.976 114.716C401.976 114.836 328.626 115.077 238.2 115.077C147.775 115.077 74.4248 114.957 74.4248 114.716C74.4248 114.596 147.775 114.355 238.2 114.355C328.626 114.476 401.976 114.596 401.976 114.716Z" fill="#455A64"/>
<path d="M429.511 300.137H52.4187V301.339H429.511V300.137Z" fill="#455A64"/>
<path d="M172.906 210.228H101.24V215.037H172.906V210.228Z" fill="#455A64"/>
<path d="M265.375 143.731H190.463V148.541H265.375V143.731Z" fill="#455A64"/>
<path d="M162.42 195.401H105.113C101.123 195.401 97.8728 192.98 97.8728 189.973V133.081C97.8728 130.09 101.102 127.653 105.113 127.653H162.42C166.41 127.653 169.66 130.075 169.66 133.081V189.989C169.66 192.98 166.41 195.401 162.42 195.401Z" fill="#FAFAFA"/>
<path d="M120.574 173.513L120.308 173.582C119.576 173.72 118.91 173.17 118.843 172.482L118.177 167.944C118.044 167.188 118.577 166.5 119.243 166.432L119.509 166.363C120.241 166.226 120.907 166.776 120.974 167.463L121.64 172.001C121.773 172.688 121.307 173.376 120.574 173.513Z" fill="#1ACC8D"/>
<path d="M123.703 161.688C121.373 162.1 120.308 163.475 119.842 165.332C119.842 165.4 119.842 165.4 119.842 165.469C119.242 168.7 119.709 171.519 121.04 174.063C121.773 175.576 123.437 176.813 125.768 176.47L126.3 176.401C126.966 176.332 127.432 175.645 127.366 174.957L125.634 162.719C125.568 162.031 124.902 161.55 124.236 161.619L123.703 161.688Z" fill="#25313C"/>
<path d="M126.234 176.401L124.17 161.619L124.702 161.55L126.766 176.332L126.234 176.401Z" fill="#6D7D8B"/>
<path d="M146.475 173.376L147.074 173.444C147.873 173.582 148.606 173.032 148.672 172.207L149.271 167.944C149.405 167.119 148.872 166.363 148.073 166.294L147.474 166.225C146.675 166.088 145.942 166.638 145.876 167.463L145.276 171.725C145.143 172.482 145.743 173.238 146.475 173.376Z" fill="#1ACC8D"/>
<path d="M143.945 161.688C146.275 162.1 147.34 163.475 147.807 165.332C147.807 165.4 147.807 165.4 147.807 165.469C148.406 168.7 147.94 171.519 146.608 174.063C145.876 175.576 144.211 176.813 141.881 176.47L141.348 176.401C140.682 176.332 140.216 175.645 140.283 174.957L142.014 162.719C142.08 162.031 142.746 161.55 143.412 161.619L143.945 161.688Z" fill="#25313C"/>
<path d="M141.415 176.401L140.882 176.332L142.946 161.55L143.479 161.619L141.415 176.401Z" fill="#6D7D8B"/>
<path d="M150.603 161.962L150.47 160.931C150.403 160.587 150.337 160.243 150.27 159.9C150.137 159.212 149.937 158.525 149.738 157.837C149.271 156.531 148.672 155.224 147.94 153.987C146.408 151.581 144.145 149.793 141.681 148.693C140.416 148.143 139.151 147.73 137.819 147.455C137.153 147.318 136.488 147.249 135.822 147.18C134.29 147.043 133.292 147.043 131.76 147.18C131.094 147.249 130.428 147.318 129.763 147.455C128.431 147.73 127.099 148.074 125.901 148.693C123.371 149.793 121.173 151.649 119.642 153.987C118.91 155.156 118.31 156.462 117.844 157.837C117.645 158.525 117.445 159.212 117.312 159.9C117.245 160.243 117.178 160.587 117.112 160.931L116.979 161.962C116.646 164.781 116.779 167.6 117.178 170.35C117.245 170.763 117.578 171.038 117.977 170.969C118.377 170.9 118.643 170.556 118.577 170.144C118.177 167.463 117.977 164.781 118.244 162.169L118.377 161.206C118.377 160.862 118.51 160.587 118.51 160.243C118.577 159.556 118.776 158.937 118.976 158.318C119.376 157.081 119.908 155.843 120.574 154.743C121.906 152.543 123.97 150.755 126.3 149.655C127.499 149.105 128.697 148.693 129.962 148.418C130.628 148.28 131.227 148.143 131.893 148.074C133.292 147.937 134.623 147.937 135.822 148.074C136.488 148.143 137.087 148.28 137.753 148.418C139.018 148.693 140.283 149.105 141.415 149.655C143.745 150.755 145.809 152.474 147.207 154.743C147.873 155.843 148.406 157.081 148.805 158.318C148.939 158.937 149.138 159.556 149.271 160.243C149.338 160.587 149.405 160.862 149.471 161.206L149.604 162.169C149.871 164.85 149.671 167.531 149.271 170.144C149.205 170.556 149.471 170.9 149.871 170.969C150.27 171.038 150.603 170.763 150.67 170.35C150.736 167.531 150.936 164.712 150.603 161.962Z" fill="#25313C"/>
<path d="M123.837 150.824L123.437 149.999C123.304 149.656 123.371 149.243 123.704 149.106C130.495 145.668 137.287 145.668 143.745 149.106C144.078 149.243 144.211 149.656 144.011 149.999L143.612 150.824C143.479 151.168 143.079 151.237 142.746 151.099C136.821 147.937 130.895 147.937 124.636 151.099C124.369 151.237 123.97 151.168 123.837 150.824Z" fill="#1ACC8D"/>
<rect x="190.342" y="199.454" width="73.9014" height="15.5834" rx="1.74371" fill="#1ACC8D"/>
<path d="M217.563 207.766C217.564 207.261 217.225 206.915 216.713 206.79L216.713 206.778C217.023 206.671 217.315 206.327 217.316 205.875C217.316 205.423 217.066 205.155 216.793 205.012C216.519 204.868 216.155 204.838 215.78 204.838L214.38 204.836L214.375 208.94L216.055 208.942C216.478 208.943 216.847 208.866 217.109 208.676C217.372 208.486 217.563 208.218 217.563 207.766ZM216.368 206.016C216.368 206.218 216.285 206.325 216.165 206.408C216.052 206.486 215.927 206.497 215.712 206.497L215.337 206.497L215.338 205.551L215.737 205.551C215.946 205.552 216.053 205.564 216.166 205.635C216.285 205.707 216.369 205.82 216.368 206.016ZM216.587 207.688C216.586 207.866 216.521 208.003 216.377 208.098C216.234 208.199 216.074 208.21 215.865 208.21L215.335 208.21L215.336 207.163L215.866 207.163C216.075 207.164 216.236 207.176 216.379 207.277C216.521 207.378 216.587 207.503 216.587 207.688Z" fill="white"/>
<path d="M221.266 206.017L220.312 206.015L220.31 207.574C220.31 207.96 220.155 208.228 219.815 208.227C219.475 208.227 219.38 207.995 219.381 207.656L219.383 206.014L218.43 206.013L218.428 207.785C218.427 208.208 218.498 208.463 218.641 208.666C218.79 208.862 219.057 209.011 219.48 209.012C219.903 209.013 220.213 208.793 220.339 208.615L220.344 208.948L221.262 208.949L221.266 206.017Z" fill="white"/>
<path d="M224.299 206.021L223.635 207.905L222.97 206.019L221.975 206.018L223.133 208.862L223.026 209.118C222.948 209.308 222.847 209.308 222.739 209.308C222.596 209.308 222.388 209.23 222.388 209.23L222.196 209.931C222.196 209.931 222.512 210.075 223.012 210.075C223.513 210.076 223.751 209.755 223.967 209.232L225.282 206.022L224.299 206.021Z" fill="white"/>
<path d="M231.343 204.858L230.402 204.857L230.399 206.719C230.399 207.153 230.416 207.617 230.416 207.617L228.656 204.855L227.626 204.853L227.62 208.957L228.561 208.959L228.564 207.103C228.564 206.669 228.547 206.175 228.547 206.175L230.349 208.961L231.338 208.962L231.343 204.858Z" fill="white"/>
<path d="M235.534 207.511C235.535 206.565 234.839 205.981 233.909 205.98C232.98 205.979 232.276 206.561 232.275 207.506C232.274 208.452 232.976 209.03 233.905 209.031C234.834 209.032 235.532 208.456 235.534 207.511ZM234.574 207.491C234.574 207.926 234.323 208.252 233.906 208.252C233.483 208.251 233.239 207.924 233.24 207.49C233.241 207.056 233.485 206.729 233.908 206.729C234.325 206.73 234.575 207.057 234.574 207.491Z" fill="white"/>
<path d="M239.938 206.041L239.418 207.914L238.854 206.04L238.074 206.039L237.505 207.912L236.989 206.037L236.024 206.036L236.986 208.97L237.885 208.971L238.465 207.175L239.035 208.972L239.934 208.974L240.903 206.043L239.938 206.041Z" fill="white"/>
<rect x="190.462" y="154.978" width="178.084" height="1.20246" rx="0.601232" fill="#1ACC8D" fill-opacity="0.23"/>
<rect x="190.342" y="166.057" width="178.084" height="1.20246" rx="0.601232" fill="#1ACC8D" fill-opacity="0.23"/>
<rect x="190.342" y="177.657" width="178.084" height="1.20246" rx="0.601232" fill="#1ACC8D" fill-opacity="0.23"/>
<rect x="190.462" y="188.998" width="73.7805" height="1.20246" rx="0.601232" fill="#1ACC8D" fill-opacity="0.23"/>
<rect x="97.9209" y="229.956" width="71.7386" height="1.20246" rx="0.601232" fill="#1ACC8D" fill-opacity="0.23"/>
<rect x="97.8728" y="241.035" width="71.7386" height="1.20246" rx="0.601232" fill="#1ACC8D" fill-opacity="0.23"/>
<rect x="97.8728" y="252.636" width="71.7386" height="1.20246" rx="0.601232" fill="#1ACC8D" fill-opacity="0.23"/>
<rect x="97.9973" y="263.977" width="71.5388" height="1.20246" rx="0.601232" fill="#1ACC8D" fill-opacity="0.23"/>
<rect x="193.708" y="229.954" width="178.084" height="1.20246" rx="0.601232" fill="#1ACC8D" fill-opacity="0.23"/>
<rect x="193.588" y="241.033" width="178.084" height="1.20246" rx="0.601232" fill="#1ACC8D" fill-opacity="0.23"/>
<rect x="193.588" y="252.634" width="178.084" height="1.20246" rx="0.601232" fill="#1ACC8D" fill-opacity="0.23"/>
<rect x="193.897" y="263.975" width="177.588" height="1.20246" rx="0.601232" fill="#1ACC8D" fill-opacity="0.23"/>
<path d="M105.208 0.867188C105.208 0.867188 105.208 16.928 89.9878 18.6783C89.9878 18.6783 105.208 20.7374 105.208 33.4007C105.208 20.7374 120.427 18.6783 120.427 18.6783C105.208 16.928 105.208 0.867188 105.208 0.867188Z" fill="#8F8FEB"/>
<path d="M19.6196 50.127C19.6196 50.127 19.6196 56.1648 13.8979 56.8228C13.8979 56.8228 19.6196 57.5969 19.6196 62.3575C19.6196 57.5969 25.3413 56.8228 25.3413 56.8228C19.6196 56.1648 19.6196 50.127 19.6196 50.127Z" fill="#8F8FEB"/>
<path d="M16.7036 125.347C16.7036 125.347 16.7036 142.452 0.494141 144.316C0.494141 144.316 16.7036 146.509 16.7036 159.996C16.7036 146.509 32.913 144.316 32.913 144.316C16.7036 142.452 16.7036 125.347 16.7036 125.347Z" fill="#8F8FEB"/>
</svg>
