<svg width="60" height="55" viewBox="0 0 60 55" fill="none" xmlns="http://www.w3.org/2000/svg">
<rect y="0.751953" width="60" height="54" rx="10" fill="#1ACC8D"/>
<path d="M37.9187 35.6757H34.5875V30.4545C34.5875 29.2095 34.5625 27.607 32.85 27.607C31.1137 27.607 30.8488 28.962 30.8488 30.3632V35.6757H27.5162V24.9395H30.7162V26.402H30.76C31.2075 25.5595 32.295 24.6682 33.92 24.6682C37.295 24.6682 37.92 26.8907 37.92 29.782V35.6757H37.9187ZM23.7537 23.4707C23.4994 23.471 23.2476 23.4212 23.0126 23.324C22.7776 23.2268 22.5641 23.0841 22.3843 22.9042C22.2046 22.7244 22.0621 22.5108 21.965 22.2757C21.868 22.0407 21.8183 21.7888 21.8187 21.5345C21.819 21.1517 21.9327 20.7777 22.1456 20.4596C22.3584 20.1416 22.6607 19.8937 23.0144 19.7475C23.3681 19.6013 23.7572 19.5632 24.1325 19.6381C24.5078 19.713 24.8524 19.8975 25.1229 20.1683C25.3933 20.4391 25.5774 20.784 25.6518 21.1594C25.7262 21.5348 25.6877 21.9239 25.541 22.2774C25.3943 22.6308 25.1461 22.9329 24.8277 23.1453C24.5094 23.3577 24.1352 23.471 23.7525 23.4707H23.7537ZM25.4237 35.6757H22.0825V24.9395H25.425V35.6757H25.4237ZM39.5875 16.502H20.4112C19.4912 16.502 18.75 17.227 18.75 18.1232V37.3807C18.75 38.277 19.4925 39.002 20.41 39.002H39.5825C40.5 39.002 41.25 38.277 41.25 37.3807V18.1232C41.25 17.227 40.5 16.502 39.5825 16.502H39.5863H39.5875Z" fill="white"/>
</svg>
