<svg width="286" height="48" viewBox="0 0 286 48" fill="none" xmlns="http://www.w3.org/2000/svg">
<path d="M0.631321 47.1709H10.7077L22.8679 31.8643L27.6357 25.9877L22.0945 19.166L16.825 12.3496H6.90137L18.0447 25.9877L0.631321 47.1709Z" fill="url(#paint0_linear)"/>
<path d="M27.2136 40.4571H17.3454L29.2095 25.9874L8.52153 0.5H18.5915L34.0327 20.1663L38.8005 25.9874L50.6646 40.4571H40.8518L34.0327 31.864L27.2136 40.4571Z" fill="url(#paint1_linear)"/>
<path d="M39.4873 24.9936L34.7227 19.0921L39.9302 12.3496H49.8539L39.4873 24.9936Z" fill="url(#paint2_linear)"/>
<path d="M80.5495 12.3467V35.3244H76.806L65.3494 20.6729V35.3244H60.6377V12.3467H64.349L75.8055 26.9659V12.3467H80.5495Z" fill="#1ACC8D"/>
<path d="M85.8023 12.3467H101.648V16.2516H90.7077V21.6733H100.97V25.6105H90.7077V31.4194H101.648V35.3244H85.8023V12.3467Z" fill="#1ACC8D"/>
<path d="M125.908 35.3244H120.035L114.29 27.3854L108.546 35.3244H102.673L111.418 23.6742L102.931 12.3467H108.804L114.29 19.9951L119.841 12.3467H125.715L117.13 23.6742L125.908 35.3244Z" fill="#1ACC8D"/>
<path d="M133.514 16.4452H126.317V12.3467H145.809V16.4452H138.613V35.3244H133.514V16.4452Z" fill="#1ACC8D"/>
<path d="M169.656 12.3467V35.3244H164.718V25.675H154.069V35.3244H149.131V12.3467H154.069V21.641H164.718V12.3467H169.656Z" fill="#1ACC8D"/>
<path d="M190.288 30.2254H179.541L177.346 35.3244H172.28L182.833 12.3467H186.899L197.452 35.3244H192.482L190.288 30.2254ZM188.642 26.385L184.93 17.7684L181.219 26.385H188.642Z" fill="#1ACC8D"/>
<path d="M219.971 12.3467V35.3244H216.227L204.771 20.6729V35.3244H200.059V12.3467H203.77L215.227 26.9659V12.3467H219.971Z" fill="#1ACC8D"/>
<path d="M225.224 12.3467H234.099C236.616 12.3467 238.778 12.7985 240.585 13.7021C242.392 14.6057 243.769 15.9181 244.716 17.6393C245.684 19.3605 246.168 21.4151 246.168 23.8032C246.168 26.2129 245.695 28.2783 244.748 29.9995C243.802 31.7206 242.425 33.0438 240.617 33.9689C238.81 34.8725 236.637 35.3244 234.099 35.3244H225.224V12.3467ZM233.776 31.2581C238.681 31.2581 241.134 28.7731 241.134 23.8032C241.134 18.8764 238.681 16.413 233.776 16.413H230.258V31.2581H233.776Z" fill="#1ACC8D"/>
<path d="M250.767 12.3467H255.801V31.2258H266.063V35.3244H250.767V12.3467Z" fill="#1ACC8D"/>
<path d="M269.786 12.3467H285.631V16.2516H274.691V21.6733H284.953V25.6105H274.691V31.4194H285.631V35.3244H269.786V12.3467Z" fill="#1ACC8D"/>
<defs>
<linearGradient id="paint0_linear" x1="-60.2275" y1="-47.4106" x2="44.9836" y2="80.378" gradientUnits="userSpaceOnUse">
<stop stop-color="#00505C"/>
<stop offset="0.640625" stop-color="#1ACC8D"/>
</linearGradient>
<linearGradient id="paint1_linear" x1="-76.0317" y1="-111.08" x2="100.585" y2="113.674" gradientUnits="userSpaceOnUse">
<stop stop-color="#00505C"/>
<stop offset="0.555196" stop-color="#1ACC8D"/>
</linearGradient>
<linearGradient id="paint2_linear" x1="-18.8962" y1="92.3379" x2="110.458" y2="-61.8602" gradientUnits="userSpaceOnUse">
<stop offset="0.385052" stop-color="#1ACC8D"/>
<stop offset="0.494792" stop-color="#1ACC8D"/>
<stop offset="1" stop-color="#00505C"/>
</linearGradient>
</defs>
</svg>
