<svg width="60" height="55" viewBox="0 0 60 55" fill="none" xmlns="http://www.w3.org/2000/svg">
<rect y="0.751953" width="60" height="54" rx="10" fill="#1ACC8D"/>
<path d="M40 17.752H20C19.337 17.752 18.7011 18.0153 18.2322 18.4842C17.7634 18.953 17.5 19.5889 17.5 20.252V35.252C17.5 35.915 17.7634 36.5509 18.2322 37.0197C18.7011 37.4886 19.337 37.752 20 37.752H40C40.663 37.752 41.2989 37.4886 41.7678 37.0197C42.2366 36.5509 42.5 35.915 42.5 35.252V20.252C42.5 19.5889 42.2366 18.953 41.7678 18.4842C41.2989 18.0153 40.663 17.752 40 17.752ZM40 23.627L30 30.2945L20 23.627V20.6232L30 27.2895L40 20.6232V23.627Z" fill="white"/>
</svg>
