<svg width="67" height="68" viewBox="0 0 67 68" fill="none" xmlns="http://www.w3.org/2000/svg">
<circle cx="32.1235" cy="27.7546" r="19.4233" stroke="#6D7D8B" stroke-width="3.85011"/>
<path fill-rule="evenodd" clip-rule="evenodd" d="M32.1235 40.956C39.4146 40.956 45.3252 35.0455 45.3252 27.7544C45.3252 20.4633 39.4146 14.5527 32.1235 14.5527C24.8325 14.5527 18.9219 20.4633 18.9219 27.7544C18.9219 35.0455 24.8325 40.956 32.1235 40.956ZM34.2158 22.9946C34.4284 22.9946 34.6008 23.167 34.6008 23.3796V35.33C34.6008 35.5427 34.4284 35.715 34.2158 35.715H30.9669C30.7543 35.715 30.5819 35.5427 30.5819 35.33V26.1449C30.5819 25.9323 30.4095 25.7599 30.1969 25.7599H28.8468C28.6342 25.7599 28.4618 25.5875 28.4618 25.3749V23.3796C28.4618 23.167 28.6342 22.9946 28.8468 22.9946H34.2158Z" fill="#6D7D8B"/>
<path fill-rule="evenodd" clip-rule="evenodd" d="M36.5124 47.351C36.1028 47.5418 35.9447 48.0427 36.1706 48.434L41.8488 58.2706C41.8673 58.3026 41.8877 58.3327 41.9098 58.361C42.1164 58.625 42.4878 58.4424 42.6436 58.1455L45.4913 52.7195C45.6295 52.4561 45.9071 52.2959 46.2042 52.3079L52.3319 52.5558C52.6657 52.5693 53.0088 52.3411 52.8862 52.0303C52.8724 51.9952 52.8558 51.9607 52.8364 51.9271L47.6487 42.9394C47.4491 42.5937 47.0185 42.4577 46.6566 42.6263L36.5124 47.351ZM52.6238 52.9338L42.8271 58.59C42.852 58.5789 42.8766 58.5664 42.9007 58.5525L52.5545 52.9789C52.5786 52.9649 52.6017 52.9499 52.6238 52.9338Z" fill="#6D7D8B"/>
<path fill-rule="evenodd" clip-rule="evenodd" d="M27.7347 47.3686C28.1443 47.5594 28.3023 48.0603 28.0764 48.4516L22.3982 58.2882C22.3547 58.3637 22.3002 58.429 22.238 58.4833C22.0491 58.6483 21.7837 58.5114 21.6672 58.2893L18.697 52.6301C18.5934 52.4326 18.3852 52.3125 18.1623 52.3215L11.775 52.5798C11.5248 52.59 11.2738 52.4293 11.3213 52.1835C11.3372 52.1016 11.3667 52.0209 11.4107 51.9447L16.5984 42.9569C16.798 42.6112 17.2286 42.4753 17.5904 42.6438L27.7347 47.3686ZM11.6394 52.9628L21.4021 58.5993C21.3833 58.5904 21.3647 58.5806 21.3463 58.5701L11.6926 52.9965C11.6742 52.9859 11.6565 52.9746 11.6394 52.9628Z" fill="#6D7D8B"/>
</svg>
