<svg width="306" height="407" viewBox="0 0 306 407" fill="none" xmlns="http://www.w3.org/2000/svg">
<path d="M257.889 406.405H55.8065C53.5481 406.405 51.7358 404.364 51.7358 401.856V5.14416C51.7358 2.6207 53.562 0.595703 55.8065 0.595703H257.903C260.161 0.595703 261.974 2.63628 261.974 5.14416V401.841C261.974 404.364 260.147 406.405 257.889 406.405Z" fill="#25313C"/>
<path d="M248.27 393.99H65.4116C63.1532 393.99 61.3409 391.949 61.3409 389.441V17.7613C61.3409 15.2379 63.1672 13.2129 65.4116 13.2129H248.27C250.529 13.2129 252.341 15.2535 252.341 17.7613V389.441C252.341 391.949 250.515 393.99 248.27 393.99Z" fill="white"/>
<mask id="mask0" mask-type="alpha" maskUnits="userSpaceOnUse" x="63" y="16" width="188" height="375">
<path d="M246.688 390.327H67.1775C64.9605 390.327 63.1814 388.324 63.1814 385.862V21.0436C63.1814 18.5667 64.9742 16.5791 67.1775 16.5791H246.688C248.905 16.5791 250.684 18.582 250.684 21.0436V385.862C250.684 388.324 248.891 390.327 246.688 390.327Z" fill="#F9F9FF"/>
</mask>
<g mask="url(#mask0)">
<path opacity="0.21" d="M312.128 124.625L20.5566 54.3266L26.5119 31.0703L318.067 101.369L312.128 124.625Z" fill="#EBFAFF"/>
<path opacity="0.21" d="M284.992 405.191L-6.56396 334.893L11.8785 262.803L303.434 333.101L284.992 405.191Z" fill="#EBFAFF"/>
<path opacity="0.21" d="M304.389 286.933L12.8176 216.635L17.6192 197.911L309.175 268.21L304.389 286.933Z" fill="#EBFAFF"/>
<path opacity="0.21" d="M378.165 216.082L8.76892 127.015L12.3045 113.22L381.7 202.287L378.165 216.082Z" fill="#EBFAFF"/>
</g>
<path d="M213.781 24.9581H101.155C100.305 24.9581 99.594 24.1792 99.594 23.2135V12.6523H215.329V23.2135C215.329 24.1792 214.632 24.9581 213.781 24.9581Z" fill="url(#paint0_linear)"/>
<path d="M193.525 18.8054H124.101C123.795 18.8054 123.53 18.525 123.53 18.1668V14.9424C123.53 14.5997 123.781 14.3037 124.101 14.3037H193.525C193.832 14.3037 194.097 14.5841 194.097 14.9424V18.1668C194.083 18.525 193.832 18.8054 193.525 18.8054Z" fill="url(#paint1_linear)"/>
<path d="M54.9836 209.515C84.9907 209.515 109.316 185.209 109.316 155.226C109.316 125.243 84.9907 100.938 54.9836 100.938C24.9765 100.938 0.650879 125.243 0.650879 155.226C0.650879 185.209 24.9765 209.515 54.9836 209.515Z" fill="#4ACFFF"/>
<path d="M55.2765 204.348C82.2887 204.348 104.186 182.468 104.186 155.478C104.186 128.487 82.2887 106.607 55.2765 106.607C28.2643 106.607 6.36658 128.487 6.36658 155.478C6.36658 182.468 28.2643 204.348 55.2765 204.348Z" fill="white"/>
<path d="M34.9043 125.122L28.8115 122.141C28.2566 121.869 27.5971 121.963 27.1365 122.371L26.4769 122.967L25.4091 123.929L24.7287 124.546C24.268 124.954 24.111 125.613 24.3204 126.189L26.6549 132.549C27.0108 133.511 27.8169 134.254 28.8219 134.463L32.9361 135.362L59.6628 165.017L61.2017 163.636L62.2695 162.674L63.7247 161.367L36.998 131.712L36.5688 127.496C36.4432 126.471 35.8255 125.572 34.9043 125.122Z" fill="#91B3FA"/>
<path d="M34.4966 125.477L28.9796 122.757C28.4771 122.517 27.849 122.559 27.4302 122.935L26.8335 123.469L25.8704 124.337L25.2527 124.891C24.8445 125.268 24.7293 125.885 24.9177 126.408L27.0324 132.161C27.3465 133.029 28.0898 133.688 29.0006 133.887L32.7274 134.692L56.8264 161.429L58.1978 160.194L59.161 159.326L60.6685 157.966L36.5694 131.23L36.0774 127.527C35.9727 126.607 35.3237 125.885 34.4966 125.477Z" fill="#4ACFFF"/>
<path d="M81.5007 171.387L62.5 154.441L52.9001 163.102L67.525 183.291C68.9068 185.194 70.7807 186.68 72.9582 187.59L78.7893 190.069C79.7734 190.477 80.9773 190.362 81.7729 189.651L85.7615 186.063C86.4838 185.414 86.7456 184.358 86.5571 183.406L85.5731 178.521C85.0392 175.77 83.584 173.238 81.5007 171.387Z" fill="#4ACFFF"/>
<path d="M63.4421 153.343C64.0283 153.992 63.976 154.996 63.3269 155.582L53.7166 164.232C53.0676 164.818 52.0626 164.766 51.4763 164.117L51.3612 163.992C50.7749 163.343 50.8273 162.339 51.4763 161.753L61.0866 153.103C61.7357 152.517 62.7407 152.569 63.3269 153.218L63.4421 153.343Z" fill="#25313C"/>
<path d="M77.7218 183.699C78.2243 184.253 78.1824 185.111 77.6171 185.613L77.5961 185.634C77.0413 186.136 76.1829 186.094 75.6804 185.529L57.5695 165.435C57.067 164.881 57.1088 164.023 57.6741 163.521L57.6951 163.5C58.2499 162.998 59.1084 163.04 59.6109 163.605L77.7218 183.699Z" fill="#25313C"/>
<path d="M82.4642 179.442C82.9667 179.996 82.9248 180.854 82.3595 181.356L82.3386 181.377C81.7837 181.879 80.9253 181.837 80.4228 181.273L62.3119 161.178C61.8094 160.624 61.8513 159.766 62.4166 159.264L62.4375 159.243C62.9923 158.741 63.8508 158.783 64.3533 159.348L82.4642 179.442Z" fill="#25313C"/>
<path d="M21.965 170.403L20.6878 171.596C18.4894 173.646 17.8299 176.502 19.2118 177.987L20.8554 179.744C22.2372 181.23 25.1371 180.769 27.346 178.719L28.6231 177.527C28.7069 177.443 28.7906 177.37 28.8744 177.286L65.3475 140.257L61.7672 136.418L22.2372 170.173C22.143 170.246 22.0488 170.32 21.965 170.403ZM23.7343 172.098C25.3883 170.56 27.4716 170.1 28.3928 171.083C29.3141 172.066 28.7069 174.117 27.0528 175.654C25.3988 177.192 23.3155 177.652 22.3943 176.669C21.473 175.686 22.0802 173.635 23.7343 172.098Z" fill="url(#paint2_linear)"/>
<path d="M72.9478 122.381L65.5045 129.305C64.9706 129.797 64.7089 130.508 64.7717 131.23L65.1171 134.922C65.2114 135.979 66.0174 136.826 67.0538 137.004L70.7179 137.611C71.4298 137.726 72.1626 137.506 72.686 137.014L80.1293 130.09C81.2495 129.044 83.1024 129.797 83.1443 131.324C83.249 134.985 81.7834 138.73 78.8312 141.491C73.4817 146.47 65.9128 145.728 61.1181 140.592C56.3234 135.445 56.114 127.851 61.4636 122.872C64.4262 120.111 68.2578 118.929 71.9113 119.284C73.4502 119.441 74.0679 121.345 72.9478 122.381Z" fill="url(#paint3_linear)"/>
<path d="M73.5972 123.082L66.1539 130.006C65.62 130.498 65.3583 131.209 65.4211 131.931L65.7666 135.624C65.8608 136.68 66.6669 137.527 67.7033 137.705L71.3673 138.312C72.0792 138.427 72.812 138.207 73.3354 137.716L80.7787 130.791C81.8989 129.745 83.7518 130.498 83.7937 132.025C83.8984 135.686 82.4328 139.431 79.4806 142.193C74.1311 147.172 66.5622 146.429 61.7675 141.293C56.9728 136.147 56.7634 128.552 62.113 123.573C65.0756 120.812 68.9072 119.63 72.5608 119.985C74.0997 120.142 74.7173 122.046 73.5972 123.082Z" fill="#25313C"/>
<path d="M22.489 170.958L21.2118 172.15C19.0133 174.201 18.3538 177.056 19.7357 178.542L21.3793 180.299C22.7612 181.784 25.661 181.324 27.8699 179.274L29.1471 178.081C29.2308 177.998 29.3146 177.924 29.3983 177.841L65.8714 140.812L62.2911 136.973L22.7611 170.728C22.6565 170.801 22.5727 170.885 22.489 170.958ZM24.2582 172.653C25.9122 171.115 27.9955 170.655 28.9168 171.638C29.838 172.621 29.2308 174.671 27.5768 176.209C25.9227 177.747 23.8394 178.207 22.9182 177.224C21.9969 176.24 22.5937 174.19 24.2582 172.653Z" fill="#25313C"/>
<path d="M163.15 319.905C143.07 328.286 121.681 334.127 99.8249 334.547C89.9255 334.734 80.0106 333.8 70.3294 331.759C55.3323 328.597 37.6537 325.092 31.8077 308.721C28.5339 299.577 34.2552 293.44 42.1591 289.951C45.8694 288.315 47.9509 288.226 51.8131 287.183C51.8131 291.928 51.357 298.705 54.2878 301.774C56.3768 303.954 63.2362 305.076 66.1359 305.979C74.7725 308.69 83.6741 310.512 92.7004 311.244C114.276 312.989 135.774 308.378 156.041 301.275C162.729 298.939 169.65 304.157 169.276 311.229C169.058 315.061 166.688 318.425 163.15 319.905Z" fill="url(#paint4_linear)"/>
<path d="M149.415 344.329L185.583 304.421C186.69 303.206 186.097 301.259 184.492 300.854L134.169 288.377C132.298 287.91 130.614 289.639 131.144 291.492C140.841 309.094 145.393 326.385 145.72 343.457C146.188 345.108 148.277 345.591 149.415 344.329Z" fill="url(#paint5_linear)"/>
<path d="M174.226 127.507C192.478 131.67 211.329 133.288 229.528 129.877C237.77 128.329 245.811 125.754 253.445 122.211C265.272 116.721 279.256 110.453 280.965 94.4961C281.927 85.5824 276.008 80.9742 268.787 79.1618C265.398 78.3132 265.362 78.4901 261.961 78.2085C261.962 83.4148 261.962 88.2046 261.588 91.5448C260.274 93.8979 254.213 96.6258 251.982 97.9538C245.342 101.927 238.311 105.136 230.969 107.371C213.417 112.709 194.712 112.234 176.55 109.269C170.558 108.298 165.82 114.262 167.485 120.652C168.4 124.111 171.009 126.771 174.226 127.507Z" fill="url(#paint6_linear)"/>
<path d="M190.288 147.414L152.661 117.274C151.511 116.357 151.629 114.477 152.883 113.829L192.206 93.7074C193.667 92.9562 195.394 94.2418 195.31 96.0254C190.644 113.771 190.184 130.34 193.184 145.977C193.112 147.564 191.473 148.368 190.288 147.414Z" fill="url(#paint7_linear)"/>
<path d="M205.951 168.83C205.867 168.83 205.792 168.793 205.736 168.737C205.485 168.448 205.224 168.169 204.963 167.89C204.852 167.769 204.861 167.592 204.973 167.481C205.094 167.369 205.271 167.378 205.382 167.49C205.643 167.769 205.904 168.058 206.165 168.346C206.267 168.467 206.258 168.644 206.137 168.755C206.09 168.802 206.016 168.83 205.951 168.83Z" fill="white"/>
<path d="M174.054 239.699C173.719 239.699 173.393 239.699 173.058 239.689C172.899 239.689 172.769 239.55 172.778 239.392C172.778 239.233 172.909 239.113 173.067 239.113C173.067 239.113 173.067 239.113 173.076 239.113C173.849 239.131 174.631 239.131 175.414 239.103C175.563 239.094 175.702 239.224 175.712 239.382C175.721 239.541 175.591 239.671 175.432 239.68C174.967 239.689 174.51 239.699 174.054 239.699ZM179.232 239.373C179.092 239.373 178.962 239.261 178.943 239.122C178.925 238.964 179.036 238.824 179.195 238.796C179.968 238.703 180.741 238.582 181.504 238.443C181.663 238.415 181.812 238.517 181.84 238.675C181.868 238.833 181.765 238.982 181.607 239.01C180.834 239.15 180.042 239.271 179.26 239.364C179.251 239.373 179.241 239.373 179.232 239.373ZM185.285 238.173C185.155 238.173 185.043 238.089 185.006 237.959C184.959 237.8 185.053 237.642 185.211 237.605C185.956 237.4 186.71 237.168 187.446 236.926C187.595 236.879 187.763 236.954 187.809 237.112C187.856 237.261 187.781 237.428 187.623 237.475C186.878 237.726 186.114 237.959 185.36 238.163C185.341 238.173 185.313 238.173 185.285 238.173ZM191.106 236.116C190.994 236.116 190.892 236.051 190.845 235.939C190.78 235.791 190.845 235.623 190.994 235.558C191.711 235.251 192.419 234.916 193.108 234.562C193.248 234.488 193.425 234.544 193.499 234.693C193.574 234.832 193.518 235.009 193.369 235.083C192.67 235.437 191.944 235.772 191.227 236.088C191.19 236.107 191.143 236.116 191.106 236.116ZM196.573 233.25C196.479 233.25 196.377 233.204 196.33 233.111C196.247 232.971 196.284 232.794 196.424 232.71C197.085 232.301 197.737 231.864 198.37 231.426C198.5 231.333 198.677 231.371 198.77 231.501C198.864 231.631 198.826 231.808 198.696 231.901C198.053 232.348 197.383 232.794 196.722 233.204C196.675 233.232 196.628 233.25 196.573 233.25ZM201.564 229.621C201.48 229.621 201.397 229.584 201.341 229.519C201.238 229.398 201.257 229.212 201.378 229.109C201.974 228.607 202.561 228.086 203.119 227.555C203.231 227.444 203.417 227.453 203.529 227.565C203.641 227.676 203.632 227.862 203.52 227.974C202.952 228.514 202.356 229.044 201.76 229.547C201.695 229.603 201.629 229.621 201.564 229.621ZM205.979 225.313C205.913 225.313 205.839 225.285 205.783 225.238C205.662 225.136 205.653 224.95 205.755 224.829C206.267 224.252 206.77 223.647 207.254 223.033C207.357 222.912 207.534 222.884 207.664 222.986C207.785 223.089 207.813 223.266 207.711 223.396C207.226 224.01 206.714 224.624 206.193 225.21C206.137 225.276 206.053 225.313 205.979 225.313ZM209.713 220.409C209.657 220.409 209.601 220.39 209.555 220.362C209.424 220.279 209.387 220.093 209.471 219.962C209.89 219.311 210.309 218.641 210.691 217.971C210.775 217.831 210.952 217.785 211.082 217.869C211.222 217.952 211.268 218.129 211.184 218.259C210.793 218.939 210.374 219.618 209.946 220.279C209.899 220.362 209.806 220.409 209.713 220.409ZM212.702 215.012C212.665 215.012 212.619 215.003 212.581 214.984C212.432 214.919 212.376 214.742 212.442 214.602C212.768 213.895 213.084 213.179 213.364 212.453C213.419 212.304 213.587 212.23 213.736 212.295C213.885 212.351 213.96 212.518 213.894 212.667C213.606 213.393 213.289 214.128 212.954 214.844C212.917 214.956 212.814 215.012 212.702 215.012ZM214.891 209.243C214.863 209.243 214.835 209.243 214.807 209.233C214.658 209.187 214.565 209.029 214.612 208.87C214.835 208.126 215.04 207.372 215.217 206.618C215.254 206.46 215.412 206.367 215.561 206.404C215.72 206.442 215.813 206.6 215.776 206.749C215.589 207.512 215.385 208.284 215.161 209.038C215.133 209.168 215.021 209.243 214.891 209.243ZM216.223 203.222C216.204 203.222 216.195 203.222 216.176 203.222C216.018 203.203 215.906 203.055 215.934 202.896C216.046 202.133 216.139 201.352 216.213 200.579C216.232 200.421 216.362 200.3 216.53 200.319C216.688 200.337 216.809 200.477 216.791 200.635C216.716 201.417 216.623 202.208 216.511 202.989C216.493 203.12 216.372 203.222 216.223 203.222ZM216.679 197.071C216.521 197.071 216.39 196.941 216.39 196.783C216.39 196.001 216.372 195.219 216.325 194.447C216.316 194.289 216.437 194.149 216.595 194.14C216.753 194.131 216.893 194.252 216.903 194.41C216.949 195.192 216.968 195.992 216.968 196.773C216.968 196.941 216.837 197.071 216.679 197.071ZM216.223 190.911C216.083 190.911 215.962 190.809 215.934 190.669C215.822 189.897 215.683 189.124 215.534 188.371C215.506 188.213 215.599 188.064 215.757 188.026C215.915 187.999 216.064 188.092 216.102 188.25C216.26 189.022 216.4 189.804 216.511 190.585C216.53 190.744 216.428 190.892 216.269 190.911C216.251 190.911 216.241 190.911 216.223 190.911ZM214.882 184.891C214.761 184.891 214.639 184.807 214.602 184.686C214.379 183.941 214.127 183.197 213.867 182.471C213.811 182.322 213.894 182.155 214.043 182.099C214.192 182.043 214.36 182.127 214.416 182.276C214.686 183.011 214.928 183.765 215.161 184.528C215.208 184.677 215.124 184.844 214.965 184.891C214.937 184.891 214.91 184.891 214.882 184.891ZM212.693 179.121C212.581 179.121 212.479 179.056 212.432 178.954C212.106 178.247 211.752 177.549 211.389 176.86C211.315 176.721 211.371 176.544 211.51 176.469C211.65 176.395 211.827 176.451 211.902 176.59C212.274 177.288 212.628 177.995 212.954 178.712C213.019 178.861 212.954 179.028 212.814 179.093C212.777 179.121 212.73 179.121 212.693 179.121ZM209.694 173.734C209.601 173.734 209.508 173.687 209.452 173.603C209.033 172.952 208.577 172.31 208.12 171.686C208.027 171.556 208.055 171.379 208.186 171.286C208.316 171.193 208.493 171.221 208.586 171.351C209.052 171.984 209.508 172.645 209.936 173.296C210.02 173.426 209.983 173.613 209.853 173.696C209.806 173.715 209.75 173.734 209.694 173.734Z" fill="white"/>
<path d="M169.23 239.42C169.221 239.42 169.211 239.42 169.193 239.42C168.811 239.373 168.42 239.327 168.038 239.271C167.879 239.253 167.768 239.104 167.796 238.945C167.814 238.787 167.963 238.676 168.122 238.704C168.503 238.759 168.876 238.806 169.258 238.852C169.416 238.871 169.528 239.011 169.509 239.169C169.5 239.308 169.37 239.42 169.23 239.42Z" fill="white"/>
<path d="M140.546 223.462C140.462 223.462 140.379 223.425 140.323 223.35C140.081 223.043 139.848 222.736 139.615 222.429C139.522 222.299 139.55 222.122 139.671 222.029C139.801 221.936 139.978 221.964 140.071 222.085C140.304 222.392 140.528 222.699 140.77 222.997C140.872 223.118 140.844 223.304 140.723 223.406C140.667 223.443 140.602 223.462 140.546 223.462Z" fill="white"/>
<path d="M137.734 219.433C137.641 219.433 137.538 219.386 137.492 219.293C137.091 218.642 136.7 217.962 136.328 217.274C136.253 217.134 136.3 216.958 136.439 216.883C136.579 216.809 136.756 216.855 136.83 216.995C137.194 217.665 137.585 218.335 137.985 218.986C138.069 219.126 138.022 219.302 137.892 219.386C137.836 219.423 137.78 219.433 137.734 219.433ZM134.921 214.045C134.81 214.045 134.707 213.98 134.661 213.868C134.595 213.71 134.53 213.552 134.456 213.403C134.223 212.845 133.999 212.277 133.785 211.709C133.729 211.56 133.804 211.393 133.953 211.337C134.102 211.281 134.269 211.356 134.325 211.505C134.53 212.063 134.754 212.631 134.986 213.18C135.052 213.338 135.117 213.487 135.182 213.645C135.247 213.794 135.182 213.961 135.033 214.026C135.005 214.036 134.968 214.045 134.921 214.045ZM132.9 208.322C132.77 208.322 132.658 208.238 132.621 208.108C132.416 207.364 132.23 206.601 132.062 205.847C132.025 205.689 132.127 205.54 132.286 205.503C132.444 205.465 132.593 205.568 132.63 205.726C132.789 206.47 132.975 207.224 133.18 207.959C133.226 208.117 133.133 208.276 132.975 208.313C132.956 208.322 132.928 208.322 132.9 208.322ZM131.718 202.367C131.578 202.367 131.448 202.264 131.429 202.116C131.336 201.343 131.252 200.562 131.205 199.799C131.196 199.64 131.317 199.501 131.476 199.491C131.634 199.482 131.774 199.603 131.783 199.761C131.839 200.524 131.913 201.287 132.006 202.05C132.025 202.209 131.913 202.357 131.755 202.376C131.736 202.367 131.727 202.367 131.718 202.367ZM131.392 196.3C131.224 196.3 131.103 196.169 131.103 196.002C131.122 195.23 131.15 194.448 131.215 193.676C131.224 193.517 131.364 193.397 131.522 193.406C131.68 193.415 131.801 193.555 131.792 193.713C131.736 194.476 131.699 195.248 131.69 196.011C131.68 196.179 131.55 196.3 131.392 196.3ZM131.941 190.251C131.923 190.251 131.913 190.251 131.895 190.251C131.736 190.223 131.634 190.075 131.652 189.916C131.774 189.153 131.923 188.381 132.09 187.627C132.127 187.469 132.276 187.376 132.435 187.404C132.593 187.441 132.686 187.59 132.658 187.748C132.491 188.493 132.351 189.256 132.23 190.009C132.211 190.158 132.081 190.251 131.941 190.251ZM133.347 184.352C133.319 184.352 133.292 184.352 133.264 184.342C133.115 184.296 133.031 184.128 133.077 183.98C133.31 183.244 133.562 182.5 133.832 181.774C133.888 181.625 134.055 181.551 134.204 181.607C134.353 181.663 134.428 181.83 134.372 181.979C134.102 182.695 133.85 183.421 133.627 184.156C133.59 184.268 133.469 184.352 133.347 184.352ZM135.573 178.703C135.536 178.703 135.489 178.694 135.452 178.676C135.312 178.61 135.247 178.434 135.312 178.294C135.648 177.596 136.002 176.898 136.374 176.219C136.449 176.079 136.626 176.024 136.765 176.107C136.905 176.182 136.961 176.358 136.877 176.498C136.514 177.168 136.16 177.857 135.825 178.545C135.787 178.638 135.685 178.703 135.573 178.703ZM138.572 173.418C138.516 173.418 138.46 173.399 138.414 173.371C138.283 173.288 138.246 173.102 138.33 172.971C138.758 172.329 139.215 171.687 139.671 171.073C139.764 170.943 139.95 170.915 140.071 171.017C140.202 171.11 140.23 171.296 140.127 171.417C139.671 172.032 139.224 172.655 138.805 173.297C138.758 173.381 138.674 173.418 138.572 173.418ZM142.297 168.626C142.232 168.626 142.157 168.598 142.102 168.551C141.98 168.449 141.971 168.263 142.083 168.142C142.595 167.565 143.135 166.997 143.685 166.448C143.796 166.337 143.983 166.337 144.094 166.448C144.206 166.56 144.206 166.746 144.094 166.858C143.554 167.397 143.023 167.956 142.511 168.523C142.455 168.598 142.372 168.626 142.297 168.626ZM146.665 164.41C146.581 164.41 146.497 164.373 146.441 164.308C146.339 164.187 146.357 164.001 146.479 163.899C147.075 163.406 147.689 162.912 148.304 162.456C148.434 162.363 148.611 162.391 148.704 162.512C148.797 162.642 148.77 162.819 148.648 162.912C148.043 163.368 147.428 163.843 146.851 164.336C146.795 164.392 146.73 164.41 146.665 164.41ZM151.591 160.865C151.498 160.865 151.396 160.819 151.349 160.726C151.265 160.586 151.312 160.409 151.442 160.325C152.104 159.916 152.783 159.525 153.463 159.153C153.603 159.079 153.78 159.125 153.854 159.265C153.929 159.404 153.882 159.581 153.743 159.655C153.072 160.018 152.402 160.409 151.75 160.809C151.694 160.847 151.638 160.865 151.591 160.865ZM156.965 158.046C156.853 158.046 156.751 157.981 156.704 157.869C156.639 157.72 156.704 157.552 156.853 157.487C157.039 157.404 157.226 157.329 157.412 157.245C157.943 157.022 158.483 156.808 159.014 156.613C159.163 156.557 159.33 156.631 159.386 156.78C159.442 156.929 159.368 157.097 159.219 157.152C158.688 157.348 158.157 157.562 157.635 157.776C157.449 157.85 157.263 157.934 157.086 158.008C157.049 158.046 157.011 158.046 156.965 158.046ZM162.692 156.017C162.562 156.017 162.45 155.933 162.413 155.803C162.366 155.645 162.459 155.487 162.618 155.449C163.363 155.245 164.126 155.049 164.881 154.891C165.039 154.854 165.188 154.956 165.225 155.115C165.263 155.273 165.16 155.422 165.002 155.459C164.257 155.617 163.502 155.812 162.767 156.008C162.748 156.017 162.72 156.017 162.692 156.017ZM168.652 154.817C168.513 154.817 168.382 154.714 168.364 154.565C168.345 154.407 168.457 154.258 168.615 154.24C169.379 154.137 170.161 154.063 170.934 154.007C171.092 153.989 171.232 154.119 171.241 154.277C171.251 154.435 171.13 154.575 170.971 154.584C170.208 154.64 169.435 154.714 168.68 154.817C168.68 154.817 168.662 154.817 168.652 154.817ZM177.034 154.584C177.025 154.584 177.015 154.584 177.015 154.584C176.252 154.528 175.479 154.5 174.715 154.482C174.557 154.482 174.426 154.351 174.426 154.184C174.426 154.026 174.557 153.896 174.715 153.896C174.715 153.896 174.715 153.896 174.724 153.896C175.497 153.905 176.28 153.942 177.053 153.998C177.211 154.007 177.332 154.147 177.323 154.305C177.313 154.472 177.183 154.584 177.034 154.584Z" fill="white"/>
<path d="M181.933 155.226C181.914 155.226 181.896 155.226 181.877 155.217C181.504 155.142 181.123 155.077 180.75 155.021C180.592 154.994 180.489 154.845 180.508 154.686C180.536 154.528 180.685 154.426 180.843 154.445C181.225 154.51 181.607 154.575 181.989 154.649C182.147 154.677 182.249 154.826 182.222 154.984C182.194 155.124 182.072 155.226 181.933 155.226Z" fill="white"/>
<path d="M184.112 165.657C183.916 165.564 183.674 165.62 183.525 165.778L179.269 170.328C176.41 169.779 173.449 169.686 170.487 170.086L166.492 165.322C166.352 165.154 166.119 165.099 165.915 165.173L158.939 167.844C158.734 167.918 158.604 168.123 158.613 168.337L158.827 174.553C156.35 176.228 154.208 178.284 152.448 180.592L146.246 180.043C146.032 180.024 145.827 180.145 145.734 180.341L142.688 187.161C142.595 187.357 142.651 187.599 142.809 187.748L147.363 192C146.814 194.857 146.721 197.816 147.121 200.775L142.353 204.767C142.185 204.907 142.13 205.139 142.204 205.344L144.877 212.314C144.951 212.518 145.156 212.649 145.37 212.639L151.591 212.425C153.268 214.9 155.326 217.041 157.635 218.799L157.086 224.997C157.067 225.211 157.188 225.415 157.384 225.509L164.21 228.551C164.406 228.644 164.648 228.589 164.797 228.43L169.053 223.88C171.912 224.429 174.874 224.522 177.835 224.122L181.83 228.886C181.97 229.054 182.203 229.11 182.408 229.035L189.383 226.365C189.588 226.29 189.718 226.085 189.709 225.871L189.495 219.655C191.972 217.981 194.114 215.924 195.874 213.616L202.076 214.165C202.291 214.184 202.495 214.063 202.589 213.868L205.634 207.047C205.727 206.851 205.671 206.609 205.513 206.461L200.959 202.208C201.508 199.351 201.601 196.392 201.201 193.433L205.969 189.441C206.137 189.302 206.193 189.069 206.118 188.864L203.445 181.895C203.371 181.69 203.166 181.56 202.952 181.569L196.731 181.783C195.054 179.308 192.996 177.168 190.687 175.409L191.227 169.211C191.246 168.997 191.124 168.793 190.929 168.7L184.112 165.657Z" fill="#4ACFFF"/>
<path opacity="0.7" d="M174.175 204.172C173.765 204.172 173.355 204.135 172.946 204.069C171.083 203.744 169.463 202.72 168.382 201.175C167.293 199.631 166.874 197.76 167.2 195.899C167.526 194.038 168.55 192.419 170.096 191.34C173.281 189.097 177.695 189.869 179.94 193.052C181.029 194.597 181.448 196.467 181.122 198.328C180.796 200.189 179.772 201.808 178.226 202.897C177.015 203.734 175.618 204.172 174.175 204.172ZM174.147 190.921C172.918 190.921 171.67 191.284 170.59 192.047C169.239 192.996 168.336 194.42 168.047 196.048C167.758 197.677 168.131 199.324 169.081 200.673C170.031 202.022 171.456 202.925 173.085 203.213C174.715 203.492 176.364 203.13 177.714 202.18C179.064 201.231 179.968 199.808 180.256 198.179C180.545 196.551 180.172 194.904 179.223 193.554C178.021 191.833 176.103 190.921 174.147 190.921Z" fill="white"/>
<path opacity="0.7" d="M174.129 215.701C166.697 215.701 159.684 211.188 156.872 203.855C156.043 201.697 155.652 199.463 155.652 197.277C155.652 189.851 160.169 182.844 167.507 180.034C167.759 179.941 168.019 179.848 168.28 179.755C169.155 179.466 170.05 179.234 170.953 179.075C171.074 179.057 171.186 179.038 171.307 179.02L171.437 179.876C170.208 180.062 168.988 180.387 167.814 180.834C158.753 184.305 154.208 194.485 157.682 203.539C161.156 212.593 171.344 217.134 180.405 213.663C184.792 211.988 188.265 208.694 190.175 204.414C191.199 202.125 191.711 199.696 191.711 197.258C191.711 195.136 191.32 193.005 190.538 190.968C189.402 187.99 187.474 185.384 184.978 183.43L185.509 182.751C188.126 184.807 190.147 187.534 191.339 190.66C192.158 192.801 192.568 195.034 192.568 197.267C192.568 199.826 192.028 202.376 190.957 204.777C188.945 209.271 185.304 212.723 180.703 214.482C178.543 215.31 176.317 215.701 174.129 215.701Z" fill="white"/>
<path d="M143.256 225.555C143.172 225.555 143.098 225.518 143.042 225.453C142.791 225.165 142.53 224.885 142.269 224.616C142.157 224.504 142.167 224.318 142.278 224.206C142.39 224.095 142.576 224.104 142.688 224.215C142.958 224.495 143.219 224.783 143.48 225.081C143.582 225.202 143.573 225.388 143.452 225.49C143.396 225.528 143.321 225.555 143.256 225.555Z" fill="white"/>
<path d="M126.856 265.438C126.707 265.438 126.577 265.326 126.568 265.168C126.558 265.01 126.679 264.87 126.838 264.861C127.583 264.805 128.328 264.712 129.054 264.591C129.212 264.563 129.362 264.665 129.389 264.823C129.417 264.982 129.315 265.131 129.157 265.158C128.412 265.289 127.648 265.382 126.884 265.438C126.875 265.438 126.866 265.438 126.856 265.438ZM132.658 264.274C132.537 264.274 132.425 264.2 132.388 264.079C132.342 263.93 132.416 263.763 132.574 263.716C133.254 263.493 133.934 263.232 134.595 262.944L134.661 262.916C134.81 262.851 134.977 262.916 135.042 263.065C135.108 263.214 135.042 263.381 134.893 263.446L134.828 263.474C134.148 263.772 133.45 264.032 132.761 264.265C132.723 264.274 132.696 264.274 132.658 264.274ZM138.013 261.743C137.92 261.743 137.827 261.697 137.771 261.613C137.687 261.483 137.724 261.297 137.864 261.213C138.488 260.813 139.103 260.385 139.689 259.929C139.82 259.836 139.997 259.854 140.099 259.985C140.192 260.115 140.174 260.292 140.043 260.394C139.447 260.859 138.814 261.297 138.171 261.706C138.116 261.734 138.069 261.743 138.013 261.743ZM142.586 257.984C142.511 257.984 142.446 257.956 142.39 257.9C142.278 257.789 142.269 257.612 142.381 257.491C142.893 256.951 143.377 256.384 143.834 255.807C143.936 255.676 144.113 255.658 144.243 255.76C144.374 255.862 144.392 256.039 144.29 256.17C143.824 256.765 143.321 257.351 142.8 257.9C142.735 257.956 142.66 257.984 142.586 257.984ZM146.097 253.229C146.05 253.229 146.004 253.22 145.957 253.192C145.817 253.117 145.771 252.941 145.845 252.801C146.208 252.159 146.544 251.489 146.851 250.81C146.916 250.661 147.084 250.596 147.233 250.661C147.382 250.726 147.447 250.893 147.382 251.042C147.075 251.731 146.73 252.419 146.357 253.08C146.292 253.173 146.199 253.229 146.097 253.229ZM148.341 247.758C148.313 247.758 148.295 247.758 148.267 247.748C148.108 247.702 148.024 247.544 148.062 247.395C148.257 246.678 148.425 245.952 148.555 245.217C148.583 245.059 148.732 244.957 148.891 244.985C149.049 245.012 149.151 245.161 149.123 245.32C148.993 246.064 148.825 246.818 148.62 247.553C148.583 247.674 148.471 247.758 148.341 247.758ZM149.198 241.905C149.03 241.905 148.909 241.765 148.909 241.607C148.909 241.439 148.919 241.272 148.919 241.095C148.919 240.518 148.9 239.941 148.853 239.373C148.844 239.215 148.965 239.076 149.123 239.066C149.272 239.048 149.421 239.178 149.431 239.336C149.477 239.922 149.496 240.518 149.496 241.104C149.496 241.281 149.496 241.449 149.487 241.625C149.487 241.774 149.356 241.905 149.198 241.905ZM148.593 236.014C148.462 236.014 148.341 235.921 148.313 235.791C148.146 235.065 147.941 234.349 147.708 233.641C147.661 233.493 147.736 233.325 147.894 233.278C148.043 233.232 148.211 233.306 148.257 233.465C148.499 234.181 148.704 234.926 148.872 235.661C148.909 235.819 148.807 235.968 148.658 236.005C148.639 236.014 148.611 236.014 148.593 236.014ZM146.572 230.459C146.469 230.459 146.367 230.403 146.311 230.301C145.976 229.64 145.603 228.989 145.203 228.365C145.119 228.235 145.156 228.049 145.296 227.965C145.426 227.881 145.612 227.919 145.696 228.058C146.097 228.7 146.479 229.37 146.823 230.05C146.898 230.189 146.842 230.366 146.693 230.44C146.655 230.45 146.609 230.459 146.572 230.459Z" fill="white"/>
<path d="M123.169 265.428C123.159 265.428 123.15 265.428 123.141 265.428C122.749 265.401 122.358 265.354 121.976 265.307C121.818 265.289 121.706 265.14 121.725 264.982C121.744 264.824 121.883 264.712 122.051 264.731C122.424 264.777 122.805 264.814 123.187 264.852C123.345 264.861 123.467 265 123.448 265.159C123.448 265.317 123.327 265.428 123.169 265.428Z" fill="white"/>
<path d="M106.331 256.571C106.247 256.571 106.163 256.534 106.107 256.459C105.856 256.152 105.623 255.845 105.39 255.538C105.297 255.408 105.325 255.231 105.455 255.138C105.586 255.045 105.763 255.073 105.856 255.203C106.079 255.501 106.312 255.808 106.554 256.106C106.657 256.227 106.638 256.413 106.508 256.515C106.452 256.552 106.396 256.571 106.331 256.571Z" fill="white"/>
<path d="M103.714 252.588C103.611 252.588 103.509 252.532 103.453 252.429C103.183 251.908 102.922 251.378 102.689 250.848C102.624 250.699 102.559 250.55 102.494 250.392C102.438 250.243 102.503 250.075 102.652 250.019C102.801 249.964 102.969 250.029 103.025 250.178C103.081 250.326 103.146 250.475 103.211 250.615C103.435 251.136 103.686 251.657 103.956 252.169C104.031 252.308 103.975 252.485 103.835 252.56C103.807 252.578 103.76 252.588 103.714 252.588ZM101.646 247.144C101.516 247.144 101.395 247.06 101.367 246.921C101.19 246.195 101.041 245.451 100.929 244.715C100.901 244.557 101.013 244.408 101.172 244.39C101.33 244.371 101.479 244.473 101.497 244.632C101.609 245.357 101.749 246.074 101.926 246.781C101.963 246.939 101.87 247.088 101.712 247.135C101.693 247.144 101.674 247.144 101.646 247.144ZM100.948 241.365C100.79 241.365 100.659 241.235 100.659 241.077C100.659 240.333 100.697 239.57 100.771 238.834C100.79 238.676 100.92 238.555 101.088 238.574C101.246 238.593 101.367 238.732 101.348 238.89C101.283 239.616 101.246 240.351 101.246 241.086C101.237 241.235 101.106 241.365 100.948 241.365ZM101.665 235.596C101.646 235.596 101.619 235.596 101.591 235.587C101.432 235.55 101.339 235.391 101.376 235.233C101.553 234.507 101.777 233.782 102.019 233.074C102.075 232.926 102.233 232.842 102.391 232.898C102.54 232.954 102.624 233.112 102.568 233.27C102.326 233.958 102.112 234.666 101.944 235.373C101.917 235.503 101.795 235.596 101.665 235.596ZM103.742 230.153C103.695 230.153 103.649 230.143 103.611 230.115C103.472 230.041 103.416 229.864 103.49 229.725C103.844 229.064 104.226 228.413 104.627 227.789C104.71 227.659 104.897 227.622 105.027 227.705C105.157 227.789 105.195 227.975 105.111 228.105C104.71 228.71 104.338 229.352 104.003 229.994C103.947 230.097 103.844 230.153 103.742 230.153ZM107.057 225.37C106.992 225.37 106.918 225.342 106.862 225.295C106.741 225.193 106.731 225.007 106.834 224.886C107.327 224.327 107.858 223.788 108.408 223.276C108.519 223.164 108.706 223.174 108.817 223.295C108.929 223.416 108.92 223.592 108.799 223.704C108.268 224.197 107.746 224.728 107.262 225.277C107.216 225.332 107.141 225.37 107.057 225.37ZM111.425 221.527C111.332 221.527 111.239 221.48 111.183 221.396C111.09 221.266 111.127 221.089 111.257 220.996C111.872 220.577 112.515 220.177 113.166 219.814C113.306 219.74 113.483 219.787 113.558 219.926C113.632 220.066 113.586 220.242 113.446 220.317C112.803 220.671 112.179 221.061 111.574 221.471C111.546 221.508 111.481 221.527 111.425 221.527ZM116.594 218.837C116.473 218.837 116.37 218.763 116.324 218.651C116.268 218.502 116.342 218.335 116.491 218.279C117.19 218.019 117.907 217.786 118.633 217.581C118.782 217.535 118.95 217.628 118.987 217.786C119.034 217.944 118.94 218.102 118.782 218.139C118.074 218.335 117.376 218.558 116.696 218.819C116.668 218.828 116.631 218.837 116.594 218.837ZM122.256 217.46C122.107 217.46 121.986 217.349 121.967 217.209C121.948 217.051 122.06 216.911 122.219 216.893C122.964 216.809 123.718 216.753 124.463 216.734C124.612 216.734 124.752 216.855 124.761 217.014C124.761 217.172 124.64 217.302 124.482 217.311C123.755 217.33 123.01 217.386 122.293 217.469C122.274 217.46 122.265 217.46 122.256 217.46Z" fill="white"/>
<path d="M129.241 217.656C129.222 217.656 129.203 217.656 129.194 217.656C128.822 217.591 128.449 217.535 128.067 217.488C127.909 217.47 127.797 217.321 127.816 217.162C127.834 217.004 127.983 216.893 128.142 216.911C128.533 216.958 128.924 217.023 129.296 217.088C129.455 217.116 129.557 217.265 129.529 217.423C129.492 217.563 129.371 217.656 129.241 217.656Z" fill="white"/>
<path d="M130.544 223.425C130.433 223.379 130.302 223.407 130.218 223.5L127.844 226.105C126.223 225.817 124.547 225.779 122.871 226.031L120.57 223.369C120.487 223.276 120.356 223.239 120.244 223.286L116.314 224.849C116.203 224.895 116.128 225.007 116.128 225.128L116.296 228.646C114.908 229.613 113.707 230.786 112.729 232.107L109.218 231.847C109.097 231.837 108.976 231.912 108.929 232.023L107.262 235.904C107.216 236.015 107.244 236.146 107.337 236.229L109.944 238.602C109.656 240.221 109.618 241.896 109.87 243.571L107.206 245.87C107.113 245.953 107.076 246.084 107.123 246.195L108.687 250.122C108.734 250.234 108.845 250.308 108.967 250.308L112.487 250.141C113.455 251.527 114.629 252.728 115.951 253.705L115.69 257.213C115.681 257.334 115.756 257.455 115.867 257.501L119.751 259.167C119.863 259.213 119.993 259.186 120.077 259.092L122.452 256.487C124.072 256.775 125.748 256.813 127.425 256.561L129.725 259.223C129.809 259.316 129.939 259.353 130.051 259.306L133.981 257.743C134.093 257.697 134.167 257.585 134.167 257.464L134 253.947C135.387 252.979 136.588 251.806 137.566 250.485L141.077 250.746C141.198 250.755 141.319 250.68 141.366 250.569L143.033 246.688C143.08 246.577 143.052 246.447 142.958 246.363L140.351 243.99C140.64 242.371 140.677 240.696 140.425 239.021L143.098 236.722C143.191 236.639 143.229 236.508 143.182 236.397L141.617 232.47C141.571 232.358 141.459 232.284 141.338 232.284L137.818 232.451C136.849 231.065 135.676 229.864 134.353 228.887L134.614 225.379C134.623 225.258 134.549 225.137 134.437 225.091L130.544 223.425Z" fill="#4ACFFF"/>
<path opacity="0.7" d="M125.152 245.47C123.858 245.47 122.573 244.865 121.753 243.739C121.101 242.836 120.831 241.729 121.008 240.622C121.185 239.514 121.781 238.546 122.684 237.895C123.588 237.244 124.696 236.974 125.804 237.151C126.912 237.327 127.881 237.923 128.533 238.826C129.185 239.728 129.455 240.836 129.278 241.943C129.101 243.05 128.505 244.018 127.602 244.669C126.866 245.209 126.009 245.47 125.152 245.47ZM125.143 237.97C124.454 237.97 123.774 238.184 123.206 238.602C122.489 239.123 122.014 239.886 121.874 240.761C121.735 241.636 121.939 242.511 122.461 243.227C122.982 243.944 123.746 244.418 124.622 244.558C125.497 244.697 126.372 244.493 127.089 243.971C127.807 243.45 128.281 242.687 128.421 241.813C128.561 240.938 128.356 240.063 127.834 239.347C127.313 238.63 126.549 238.156 125.674 238.016C125.497 237.988 125.32 237.97 125.143 237.97Z" fill="white"/>
<path opacity="0.7" d="M125.124 252.001C123.699 252.001 122.275 251.713 120.924 251.127C118.317 250.001 116.305 247.935 115.253 245.302C114.74 244.017 114.498 242.687 114.498 241.384C114.498 237.159 117.041 233.158 121.194 231.502C121.855 231.241 122.535 231.046 123.234 230.916C123.28 230.906 123.327 230.897 123.373 230.888L123.513 231.744C122.833 231.855 122.153 232.051 121.511 232.302C116.51 234.293 114.061 239.979 116.054 244.976C117.022 247.395 118.866 249.294 121.269 250.326C123.662 251.359 126.316 251.397 128.738 250.429C132.556 248.912 134.893 245.236 134.893 241.356C134.893 240.156 134.67 238.937 134.204 237.755C133.552 236.108 132.463 234.675 131.066 233.614L131.587 232.926C133.115 234.089 134.297 235.652 135.005 237.439C135.517 238.723 135.76 240.053 135.76 241.356C135.76 245.581 133.217 249.582 129.064 251.238C127.778 251.75 126.447 252.001 125.124 252.001Z" fill="white"/>
<path d="M16.8548 241.444C16.8548 241.444 16.8549 257.046 2.84155 258.747C2.84155 258.747 16.8548 260.747 16.8548 273.049C16.8548 260.747 30.8681 258.747 30.8681 258.747C16.8548 257.046 16.8548 241.444 16.8548 241.444Z" fill="#8F8FEB"/>
<path d="M286.697 345.044C286.697 345.044 286.697 361.661 271.773 363.471C271.773 363.471 286.697 365.602 286.697 378.703C286.697 365.602 301.622 363.471 301.622 363.471C286.697 361.661 286.697 345.044 286.697 345.044Z" fill="#8F8FEB"/>
<path d="M286.697 220.275C286.697 220.275 286.697 241.177 305.47 243.455C305.47 243.455 286.697 246.134 286.697 262.615C286.697 246.134 267.924 243.455 267.924 243.455C286.697 241.177 286.697 220.275 286.697 220.275Z" fill="#FAFAFA"/>
<path d="M185.597 73.7805H185.466C177.517 73.7805 171.08 67.3491 171.08 59.4083V48.6455H199.983V59.4083C199.983 67.3491 193.546 73.7805 185.597 73.7805Z" fill="#176B89"/>
<path d="M156.694 73.7805H156.563C148.614 73.7805 142.177 67.3491 142.177 59.4083V48.6455H171.08V59.4083C171.08 67.3491 164.642 73.7805 156.694 73.7805Z" fill="#455059"/>
<path d="M127.759 73.7805H127.627C119.679 73.7805 113.241 67.3491 113.241 59.4083V48.6455H142.145V59.4083C142.145 67.3491 135.707 73.7805 127.759 73.7805Z" fill="#176B89"/>
<path d="M98.8554 73.7805H98.724C90.7755 73.7805 84.3379 67.3491 84.3379 59.4083V48.6455H113.241V59.4083C113.241 67.3491 106.804 73.7805 98.8554 73.7805Z" fill="#455059"/>
<path d="M69.9197 73.7805H69.7883C61.8398 73.7805 55.4022 67.3491 55.4022 59.4083V48.6455H84.3058V59.4083C84.3058 67.3491 77.8682 73.7805 69.9197 73.7805Z" fill="#176B89"/>
<path d="M272.311 73.7805H272.18C264.231 73.7805 257.793 67.3491 257.793 59.4083V48.6455H286.697V59.4083C286.697 67.3491 280.259 73.7805 272.311 73.7805Z" fill="#455059"/>
<path d="M243.372 73.7805H243.24C235.292 73.7805 228.854 67.3491 228.854 59.4083V48.6455H257.758V59.4083C257.758 67.3491 251.32 73.7805 243.372 73.7805Z" fill="#176B89"/>
<path d="M214.537 73.7805H214.405C206.457 73.7805 200.019 67.3491 200.019 59.4083V48.6455H228.923V59.4083C228.923 67.3491 222.485 73.7805 214.537 73.7805Z" fill="#455059"/>
<path d="M41.0165 73.7805H40.8851C32.9366 73.7805 26.499 67.3491 26.499 59.4083V48.6455H55.4026V59.4083C55.4026 67.3491 48.965 73.7805 41.0165 73.7805Z" fill="#455059"/>
<path d="M166.909 12.0908H146.348L142.144 48.6448H171.081L166.909 12.0908Z" fill="#6D7D8B"/>
<path d="M146.349 12.0908H125.788L113.241 48.6448H142.145L146.349 12.0908Z" fill="#4ACFFF"/>
<path d="M125.789 12.0908H105.228L84.3057 48.6448H113.242L125.789 12.0908Z" fill="#6D7D8B"/>
<path d="M105.228 12.0908H84.6673L55.4025 48.6448H84.306L105.228 12.0908Z" fill="#4ACFFF"/>
<path d="M84.6681 12.0918H64.1071L26.4668 48.6458H55.4032L84.6681 12.0918Z" fill="#6D7D8B"/>
<path d="M248.991 12.0908H228.43L257.761 48.6448H286.697L248.991 12.0908Z" fill="#6D7D8B"/>
<path d="M228.56 12.0908H207.999L228.856 48.6448H257.759L228.56 12.0908Z" fill="#4ACFFF"/>
<path d="M208 12.0908H187.439L199.985 48.6448H228.922L208 12.0908Z" fill="#6D7D8B"/>
<path d="M187.44 12.0908H166.879L171.083 48.6448H199.986L187.44 12.0908Z" fill="#4ACFFF"/>
<defs>
<linearGradient id="paint0_linear" x1="115.754" y1="-94.7952" x2="405.619" y2="533.635" gradientUnits="userSpaceOnUse">
<stop stop-color="#25313C"/>
<stop offset="1" stop-color="#1A0F91"/>
</linearGradient>
<linearGradient id="paint1_linear" x1="69.0061" y1="32.045" x2="68.1022" y2="6.2609" gradientUnits="userSpaceOnUse">
<stop stop-color="#00505C"/>
<stop offset="0.48279" stop-color="#4DDBD4"/>
</linearGradient>
<linearGradient id="paint2_linear" x1="46.1692" y1="172.235" x2="55.2504" y2="201.831" gradientUnits="userSpaceOnUse">
<stop stop-color="#09005D"/>
<stop offset="1" stop-color="#1A0F91"/>
</linearGradient>
<linearGradient id="paint3_linear" x1="69.6148" y1="152.34" x2="69.1492" y2="165.855" gradientUnits="userSpaceOnUse">
<stop stop-color="#09005D"/>
<stop offset="1" stop-color="#1A0F91"/>
</linearGradient>
<linearGradient id="paint4_linear" x1="-76.0841" y1="473.939" x2="-125.465" y2="211.476" gradientUnits="userSpaceOnUse">
<stop stop-color="#00505C"/>
<stop offset="0.402107" stop-color="#4ACFFF"/>
</linearGradient>
<linearGradient id="paint5_linear" x1="-62.5537" y1="479.312" x2="-109.253" y2="174.019" gradientUnits="userSpaceOnUse">
<stop stop-color="#00505C"/>
<stop offset="0.399705" stop-color="#4ACFFF"/>
</linearGradient>
<linearGradient id="paint6_linear" x1="402.066" y1="226.559" x2="401.521" y2="-21.5839" gradientUnits="userSpaceOnUse">
<stop stop-color="#4ACFFF"/>
<stop offset="0.48279" stop-color="#4ACFFF"/>
</linearGradient>
<linearGradient id="paint7_linear" x1="391.856" y1="233.798" x2="380.486" y2="-53.2399" gradientUnits="userSpaceOnUse">
<stop stop-color="#00505C"/>
<stop offset="0.359373" stop-color="#4ACFFF"/>
</linearGradient>
</defs>
</svg>
