<svg width="63" height="63" viewBox="0 0 63 63" fill="none" xmlns="http://www.w3.org/2000/svg">
<path fill-rule="evenodd" clip-rule="evenodd" d="M49.299 9.56543C51.2234 9.56543 52.7835 11.1255 52.7835 13.0499V27.4076C52.8413 27.8088 52.871 28.2226 52.871 28.6491C52.8711 44.258 38.7893 56.1948 32.5474 56.1948C26.5445 56.1948 12.6859 45.6222 11.6373 30.4834H11.5739V13.0499C11.5739 11.1255 13.1339 9.56543 15.0583 9.56543H49.299ZM44.2613 23.6468C44.9 23.052 44.9026 22.0852 44.2672 21.4873C43.6317 20.8895 42.5988 20.8871 41.9601 21.4819L29.3148 33.2589L24.4439 28.2219C23.8393 27.5967 22.8077 27.5486 22.1397 28.1146C21.4718 28.6805 21.4204 29.6461 22.025 30.2714L28.0436 36.4951C28.3429 36.8046 28.7645 36.9859 29.2104 36.9968C29.6563 37.0078 30.0874 36.8473 30.4036 36.5529L44.2613 23.6468Z" fill="#6D7D8B"/>
</svg>
