<svg width="427" height="404" viewBox="0 0 427 404" fill="none" xmlns="http://www.w3.org/2000/svg">
<path d="M197.758 320.69H36.446C27.4963 320.69 20.293 313.5 20.293 304.566V16.6239C20.293 7.69039 27.4963 0.5 36.446 0.5H197.758C206.708 0.5 213.911 7.69039 213.911 16.6239V304.457C213.911 313.5 206.708 320.69 197.758 320.69Z" fill="#383838"/>
<path d="M197.212 283.214H36.9908C32.516 283.214 28.8052 279.509 28.8052 275.043V17.4961C28.8052 13.0293 32.516 9.3252 36.9908 9.3252H197.321C201.796 9.3252 205.507 13.0293 205.507 17.4961V275.043C205.397 279.509 201.796 283.214 197.212 283.214Z" fill="#F4F4F4"/>
<path d="M117.101 315.678C124.877 315.678 131.18 309.386 131.18 301.624C131.18 293.862 124.877 287.57 117.101 287.57C109.325 287.57 103.022 293.862 103.022 301.624C103.022 309.386 109.325 315.678 117.101 315.678Z" fill="#282828" stroke="url(#paint0_linear)" stroke-width="0.553277" stroke-miterlimit="10"/>
<path d="M139.675 126.778C139.635 126.778 139.6 126.761 139.573 126.734C139.453 126.596 139.328 126.463 139.204 126.33C139.15 126.272 139.155 126.188 139.208 126.134C139.266 126.081 139.35 126.086 139.404 126.139C139.528 126.272 139.653 126.41 139.778 126.548C139.827 126.605 139.822 126.69 139.764 126.743C139.742 126.765 139.706 126.778 139.675 126.778Z" fill="white"/>
<path d="M124.436 160.603C124.276 160.603 124.121 160.603 123.96 160.598C123.885 160.598 123.822 160.532 123.827 160.456C123.827 160.381 123.889 160.323 123.965 160.323C123.965 160.323 123.965 160.323 123.969 160.323C124.339 160.332 124.712 160.332 125.086 160.319C125.157 160.314 125.224 160.376 125.228 160.452C125.233 160.527 125.171 160.589 125.095 160.594C124.872 160.598 124.654 160.603 124.436 160.603ZM126.91 160.447C126.843 160.447 126.781 160.394 126.772 160.327C126.763 160.252 126.817 160.185 126.892 160.172C127.262 160.128 127.631 160.07 127.996 160.003C128.071 159.99 128.143 160.039 128.156 160.114C128.169 160.19 128.12 160.261 128.045 160.274C127.675 160.341 127.297 160.399 126.924 160.443C126.919 160.447 126.915 160.447 126.91 160.447ZM129.802 159.874C129.74 159.874 129.687 159.834 129.669 159.772C129.647 159.697 129.691 159.621 129.767 159.604C130.123 159.506 130.483 159.395 130.834 159.279C130.906 159.257 130.986 159.293 131.008 159.368C131.03 159.439 130.995 159.519 130.919 159.541C130.563 159.661 130.198 159.772 129.838 159.87C129.829 159.874 129.816 159.874 129.802 159.874ZM132.583 158.893C132.53 158.893 132.481 158.862 132.458 158.809C132.427 158.737 132.458 158.658 132.53 158.626C132.872 158.48 133.21 158.32 133.54 158.151C133.606 158.116 133.691 158.142 133.726 158.213C133.762 158.28 133.735 158.364 133.664 158.4C133.331 158.569 132.983 158.729 132.641 158.88C132.623 158.888 132.601 158.893 132.583 158.893ZM135.195 157.525C135.15 157.525 135.101 157.503 135.079 157.458C135.039 157.392 135.057 157.307 135.124 157.267C135.439 157.072 135.751 156.863 136.053 156.655C136.116 156.61 136.2 156.628 136.245 156.69C136.289 156.752 136.271 156.837 136.209 156.881C135.902 157.094 135.582 157.307 135.266 157.503C135.244 157.516 135.221 157.525 135.195 157.525ZM137.58 155.793C137.54 155.793 137.499 155.775 137.473 155.744C137.424 155.686 137.433 155.598 137.491 155.549C137.775 155.309 138.056 155.06 138.323 154.807C138.376 154.754 138.465 154.758 138.518 154.811C138.572 154.865 138.567 154.954 138.514 155.007C138.242 155.264 137.958 155.518 137.673 155.757C137.642 155.784 137.611 155.793 137.58 155.793ZM139.689 153.737C139.657 153.737 139.622 153.723 139.595 153.701C139.537 153.652 139.533 153.563 139.582 153.506C139.826 153.23 140.067 152.942 140.298 152.649C140.347 152.591 140.432 152.578 140.494 152.626C140.552 152.675 140.565 152.76 140.516 152.822C140.285 153.115 140.04 153.408 139.791 153.688C139.764 153.719 139.724 153.737 139.689 153.737ZM141.473 151.396C141.446 151.396 141.419 151.387 141.397 151.374C141.335 151.334 141.317 151.245 141.357 151.183C141.557 150.872 141.757 150.552 141.94 150.233C141.98 150.166 142.064 150.144 142.127 150.184C142.193 150.224 142.216 150.308 142.176 150.37C141.989 150.694 141.789 151.019 141.584 151.334C141.562 151.374 141.517 151.396 141.473 151.396ZM142.901 148.82C142.883 148.82 142.861 148.816 142.843 148.807C142.772 148.776 142.745 148.691 142.776 148.625C142.932 148.287 143.083 147.945 143.217 147.599C143.243 147.528 143.324 147.492 143.395 147.523C143.466 147.55 143.502 147.63 143.47 147.701C143.332 148.047 143.181 148.398 143.021 148.74C143.003 148.794 142.954 148.82 142.901 148.82ZM143.946 146.067C143.933 146.067 143.92 146.067 143.906 146.062C143.835 146.04 143.791 145.965 143.813 145.889C143.92 145.534 144.018 145.174 144.102 144.814C144.12 144.739 144.196 144.694 144.267 144.712C144.342 144.73 144.387 144.805 144.369 144.876C144.28 145.241 144.182 145.609 144.075 145.969C144.062 146.031 144.009 146.067 143.946 146.067ZM144.583 143.193C144.574 143.193 144.569 143.193 144.56 143.193C144.485 143.184 144.431 143.113 144.445 143.038C144.498 142.674 144.543 142.301 144.578 141.932C144.587 141.856 144.649 141.799 144.73 141.808C144.805 141.816 144.863 141.883 144.854 141.959C144.819 142.332 144.774 142.709 144.721 143.082C144.712 143.144 144.654 143.193 144.583 143.193ZM144.801 140.258C144.725 140.258 144.663 140.195 144.663 140.12C144.663 139.747 144.654 139.374 144.632 139.005C144.627 138.93 144.685 138.863 144.761 138.859C144.836 138.854 144.903 138.912 144.907 138.987C144.93 139.36 144.939 139.742 144.939 140.115C144.939 140.195 144.876 140.258 144.801 140.258ZM144.583 137.317C144.516 137.317 144.458 137.269 144.445 137.202C144.391 136.833 144.325 136.465 144.253 136.105C144.24 136.03 144.285 135.958 144.36 135.941C144.436 135.927 144.507 135.972 144.525 136.047C144.6 136.416 144.667 136.789 144.721 137.162C144.73 137.238 144.681 137.309 144.605 137.317C144.596 137.317 144.592 137.317 144.583 137.317ZM143.942 134.444C143.884 134.444 143.826 134.404 143.809 134.346C143.702 133.991 143.582 133.636 143.457 133.289C143.43 133.218 143.47 133.138 143.542 133.112C143.613 133.085 143.693 133.125 143.72 133.196C143.849 133.547 143.964 133.907 144.075 134.271C144.098 134.342 144.058 134.422 143.982 134.444C143.969 134.444 143.955 134.444 143.942 134.444ZM142.896 131.69C142.843 131.69 142.794 131.659 142.772 131.611C142.616 131.273 142.447 130.94 142.274 130.611C142.238 130.545 142.265 130.46 142.331 130.425C142.398 130.389 142.483 130.416 142.518 130.482C142.696 130.816 142.865 131.153 143.021 131.495C143.052 131.566 143.021 131.646 142.954 131.677C142.936 131.69 142.914 131.69 142.896 131.69ZM141.464 129.119C141.419 129.119 141.375 129.097 141.348 129.057C141.148 128.746 140.93 128.439 140.712 128.142C140.667 128.08 140.681 127.995 140.743 127.951C140.805 127.907 140.89 127.92 140.934 127.982C141.157 128.284 141.375 128.599 141.579 128.91C141.619 128.972 141.602 129.061 141.539 129.101C141.517 129.11 141.49 129.119 141.464 129.119Z" fill="white"/>
<path d="M122.132 160.47C122.127 160.47 122.123 160.47 122.114 160.47C121.932 160.448 121.745 160.426 121.562 160.399C121.487 160.39 121.433 160.319 121.447 160.244C121.456 160.168 121.527 160.115 121.602 160.128C121.785 160.155 121.963 160.177 122.145 160.199C122.221 160.208 122.274 160.275 122.265 160.35C122.261 160.417 122.199 160.47 122.132 160.47Z" fill="white"/>
<path d="M108.428 152.853C108.388 152.853 108.348 152.835 108.321 152.8C108.206 152.653 108.095 152.507 107.983 152.36C107.939 152.298 107.952 152.213 108.01 152.169C108.072 152.125 108.157 152.138 108.201 152.196C108.313 152.342 108.419 152.489 108.535 152.631C108.584 152.689 108.571 152.777 108.513 152.826C108.486 152.844 108.455 152.853 108.428 152.853Z" fill="white"/>
<path d="M107.085 150.93C107.04 150.93 106.991 150.908 106.969 150.863C106.778 150.552 106.591 150.228 106.413 149.9C106.377 149.833 106.399 149.749 106.466 149.713C106.533 149.678 106.617 149.7 106.653 149.766C106.827 150.086 107.013 150.406 107.205 150.717C107.245 150.783 107.223 150.868 107.16 150.908C107.134 150.926 107.107 150.93 107.085 150.93ZM105.741 148.358C105.688 148.358 105.639 148.327 105.616 148.274C105.585 148.199 105.554 148.123 105.518 148.052C105.407 147.786 105.3 147.515 105.198 147.244C105.171 147.173 105.207 147.093 105.278 147.066C105.349 147.039 105.43 147.075 105.456 147.146C105.554 147.412 105.661 147.683 105.772 147.945C105.803 148.021 105.834 148.092 105.866 148.168C105.897 148.239 105.866 148.319 105.794 148.35C105.781 148.354 105.763 148.358 105.741 148.358ZM104.775 145.627C104.713 145.627 104.66 145.587 104.642 145.525C104.544 145.17 104.455 144.805 104.375 144.446C104.357 144.37 104.406 144.299 104.482 144.281C104.557 144.264 104.629 144.313 104.646 144.388C104.722 144.743 104.811 145.103 104.909 145.454C104.931 145.529 104.887 145.605 104.811 145.623C104.802 145.627 104.789 145.627 104.775 145.627ZM104.21 142.785C104.144 142.785 104.081 142.736 104.072 142.665C104.028 142.296 103.988 141.923 103.966 141.559C103.961 141.483 104.019 141.417 104.095 141.412C104.17 141.408 104.237 141.466 104.242 141.541C104.268 141.905 104.304 142.27 104.348 142.634C104.357 142.709 104.304 142.78 104.228 142.789C104.219 142.785 104.215 142.785 104.21 142.785ZM104.055 139.889C103.975 139.889 103.917 139.827 103.917 139.747C103.926 139.378 103.939 139.005 103.97 138.637C103.975 138.561 104.041 138.503 104.117 138.508C104.193 138.512 104.25 138.579 104.246 138.654C104.219 139.019 104.202 139.387 104.197 139.751C104.193 139.831 104.13 139.889 104.055 139.889ZM104.317 137.002C104.308 137.002 104.304 137.002 104.295 137.002C104.219 136.989 104.17 136.918 104.179 136.842C104.237 136.478 104.308 136.11 104.388 135.75C104.406 135.674 104.477 135.63 104.553 135.643C104.629 135.661 104.673 135.732 104.66 135.808C104.58 136.163 104.513 136.527 104.455 136.887C104.446 136.958 104.384 137.002 104.317 137.002ZM104.989 134.187C104.976 134.187 104.962 134.187 104.949 134.182C104.878 134.16 104.838 134.08 104.86 134.009C104.971 133.658 105.091 133.303 105.22 132.956C105.247 132.885 105.327 132.85 105.398 132.876C105.47 132.903 105.505 132.983 105.478 133.054C105.349 133.396 105.229 133.742 105.123 134.093C105.105 134.147 105.047 134.187 104.989 134.187ZM106.052 131.491C106.035 131.491 106.012 131.486 105.995 131.477C105.928 131.446 105.897 131.362 105.928 131.295C106.088 130.962 106.257 130.629 106.435 130.305C106.471 130.238 106.555 130.212 106.622 130.252C106.689 130.287 106.715 130.372 106.675 130.438C106.502 130.758 106.333 131.087 106.173 131.415C106.155 131.46 106.106 131.491 106.052 131.491ZM107.485 128.968C107.458 128.968 107.432 128.959 107.409 128.946C107.347 128.906 107.329 128.817 107.369 128.755C107.574 128.448 107.792 128.142 108.01 127.849C108.055 127.787 108.144 127.773 108.201 127.822C108.264 127.867 108.277 127.955 108.228 128.013C108.01 128.306 107.797 128.604 107.596 128.91C107.574 128.95 107.534 128.968 107.485 128.968ZM109.265 126.681C109.234 126.681 109.198 126.668 109.171 126.645C109.113 126.596 109.109 126.508 109.162 126.45C109.407 126.175 109.665 125.904 109.928 125.642C109.981 125.588 110.07 125.588 110.123 125.642C110.177 125.695 110.177 125.784 110.123 125.837C109.865 126.095 109.612 126.361 109.367 126.632C109.34 126.668 109.3 126.681 109.265 126.681ZM111.351 124.669C111.311 124.669 111.271 124.651 111.245 124.62C111.196 124.562 111.205 124.474 111.262 124.425C111.547 124.189 111.841 123.954 112.135 123.736C112.197 123.692 112.281 123.705 112.326 123.763C112.37 123.825 112.357 123.91 112.299 123.954C112.01 124.172 111.716 124.398 111.44 124.633C111.414 124.66 111.383 124.669 111.351 124.669ZM113.705 122.977C113.661 122.977 113.612 122.955 113.589 122.91C113.549 122.844 113.572 122.759 113.634 122.719C113.95 122.524 114.275 122.337 114.599 122.16C114.666 122.124 114.751 122.146 114.786 122.213C114.822 122.28 114.8 122.364 114.733 122.4C114.413 122.573 114.092 122.759 113.781 122.95C113.754 122.968 113.727 122.977 113.705 122.977ZM116.272 121.631C116.219 121.631 116.17 121.6 116.148 121.547C116.117 121.476 116.148 121.396 116.219 121.365C116.308 121.325 116.397 121.289 116.486 121.249C116.74 121.143 116.998 121.04 117.251 120.947C117.322 120.921 117.402 120.956 117.429 121.027C117.456 121.098 117.42 121.178 117.349 121.205C117.095 121.298 116.842 121.4 116.593 121.502C116.504 121.538 116.415 121.578 116.33 121.613C116.312 121.631 116.295 121.631 116.272 121.631ZM119.009 120.663C118.946 120.663 118.893 120.623 118.875 120.561C118.853 120.485 118.897 120.41 118.973 120.392C119.329 120.294 119.694 120.201 120.054 120.126C120.13 120.108 120.201 120.157 120.219 120.232C120.237 120.308 120.188 120.379 120.112 120.397C119.756 120.472 119.396 120.565 119.044 120.659C119.035 120.663 119.022 120.663 119.009 120.663ZM121.856 120.09C121.789 120.09 121.727 120.041 121.718 119.97C121.709 119.895 121.763 119.824 121.838 119.815C122.203 119.766 122.577 119.73 122.946 119.704C123.022 119.695 123.089 119.757 123.093 119.832C123.097 119.908 123.04 119.975 122.964 119.979C122.599 120.006 122.23 120.041 121.87 120.09C121.87 120.09 121.861 120.09 121.856 120.09ZM125.86 119.979C125.856 119.979 125.852 119.979 125.852 119.979C125.487 119.952 125.117 119.939 124.753 119.93C124.677 119.93 124.615 119.868 124.615 119.788C124.615 119.713 124.677 119.65 124.753 119.65C124.753 119.65 124.753 119.65 124.757 119.65C125.126 119.655 125.5 119.673 125.869 119.699C125.945 119.704 126.003 119.77 125.998 119.846C125.994 119.926 125.932 119.979 125.86 119.979Z" fill="white"/>
<path d="M128.201 120.285C128.192 120.285 128.183 120.285 128.174 120.281C127.996 120.245 127.814 120.214 127.636 120.188C127.56 120.174 127.511 120.103 127.52 120.028C127.533 119.952 127.605 119.903 127.68 119.912C127.863 119.943 128.045 119.974 128.228 120.01C128.303 120.023 128.352 120.094 128.339 120.17C128.325 120.236 128.268 120.285 128.201 120.285Z" fill="white"/>
<path d="M129.242 125.264C129.149 125.22 129.033 125.246 128.962 125.322L126.928 127.493C125.562 127.231 124.148 127.187 122.733 127.378L120.824 125.104C120.757 125.024 120.646 124.997 120.548 125.033L117.216 126.308C117.118 126.343 117.055 126.441 117.06 126.543L117.162 129.51C115.979 130.309 114.955 131.291 114.114 132.392L111.151 132.13C111.049 132.121 110.951 132.179 110.907 132.272L109.452 135.528C109.407 135.621 109.434 135.736 109.51 135.807L111.685 137.837C111.423 139.201 111.378 140.613 111.57 142.025L109.291 143.93C109.211 143.997 109.185 144.108 109.22 144.206L110.497 147.532C110.533 147.63 110.631 147.692 110.733 147.688L113.705 147.586C114.506 148.767 115.489 149.788 116.593 150.628L116.33 153.586C116.321 153.688 116.379 153.786 116.473 153.83L119.734 155.282C119.827 155.327 119.943 155.3 120.014 155.224L122.048 153.053C123.413 153.315 124.828 153.359 126.243 153.168L128.152 155.442C128.219 155.522 128.33 155.549 128.428 155.513L131.76 154.239C131.858 154.203 131.92 154.105 131.916 154.003L131.814 151.036C132.997 150.237 134.02 149.255 134.861 148.154L137.825 148.416C137.927 148.425 138.025 148.367 138.069 148.274L139.524 145.019C139.569 144.925 139.542 144.81 139.466 144.739L137.291 142.709C137.553 141.346 137.598 139.933 137.406 138.521L139.684 136.616C139.764 136.549 139.791 136.438 139.756 136.34L138.479 133.014C138.443 132.916 138.345 132.854 138.243 132.858L135.271 132.961C134.47 131.779 133.487 130.758 132.383 129.918L132.641 126.961C132.65 126.858 132.592 126.761 132.499 126.716L129.242 125.264Z" fill="#FF873C"/>
<path opacity="0.7" d="M124.495 143.646C124.299 143.646 124.103 143.628 123.908 143.597C123.018 143.441 122.243 142.953 121.727 142.215C121.207 141.478 121.007 140.586 121.162 139.697C121.318 138.809 121.807 138.036 122.546 137.521C124.068 136.451 126.177 136.819 127.249 138.338C127.769 139.075 127.97 139.968 127.814 140.856C127.658 141.745 127.169 142.517 126.43 143.037C125.852 143.437 125.184 143.646 124.495 143.646ZM124.481 137.321C123.894 137.321 123.298 137.494 122.782 137.859C122.137 138.312 121.705 138.991 121.567 139.768C121.429 140.546 121.607 141.332 122.061 141.976C122.515 142.62 123.196 143.05 123.974 143.188C124.753 143.321 125.54 143.148 126.186 142.695C126.831 142.242 127.262 141.563 127.4 140.785C127.538 140.008 127.36 139.222 126.906 138.578C126.332 137.756 125.416 137.321 124.481 137.321Z" fill="white"/>
<path opacity="0.7" d="M124.472 149.149C120.922 149.149 117.572 146.995 116.228 143.495C115.832 142.465 115.645 141.399 115.645 140.355C115.645 136.811 117.803 133.467 121.309 132.126C121.429 132.081 121.554 132.037 121.678 131.992C122.096 131.855 122.524 131.744 122.955 131.668C123.013 131.659 123.066 131.65 123.124 131.642L123.187 132.05C122.599 132.139 122.016 132.294 121.456 132.508C117.127 134.164 114.955 139.023 116.615 143.344C118.275 147.666 123.142 149.833 127.471 148.176C129.567 147.377 131.226 145.805 132.138 143.762C132.628 142.669 132.873 141.51 132.873 140.346C132.873 139.334 132.686 138.317 132.312 137.344C131.769 135.923 130.848 134.679 129.656 133.747L129.909 133.423C131.16 134.404 132.125 135.705 132.695 137.198C133.086 138.219 133.282 139.285 133.282 140.351C133.282 141.572 133.024 142.789 132.512 143.935C131.551 146.08 129.811 147.728 127.614 148.567C126.581 148.962 125.518 149.149 124.472 149.149Z" fill="white"/>
<path d="M109.723 153.853C109.683 153.853 109.647 153.835 109.621 153.804C109.501 153.666 109.376 153.533 109.252 153.404C109.198 153.351 109.203 153.262 109.256 153.209C109.309 153.155 109.398 153.16 109.452 153.213C109.581 153.346 109.705 153.484 109.83 153.626C109.879 153.684 109.874 153.773 109.817 153.822C109.79 153.839 109.754 153.853 109.723 153.853Z" fill="white"/>
<path d="M101.888 172.887C101.817 172.887 101.754 172.834 101.75 172.759C101.746 172.683 101.803 172.616 101.879 172.612C102.235 172.585 102.591 172.541 102.938 172.483C103.014 172.47 103.085 172.519 103.098 172.594C103.111 172.67 103.063 172.741 102.987 172.754C102.631 172.816 102.266 172.861 101.901 172.887C101.897 172.887 101.892 172.887 101.888 172.887ZM104.66 172.332C104.602 172.332 104.549 172.297 104.531 172.239C104.509 172.168 104.544 172.088 104.62 172.066C104.945 171.959 105.269 171.835 105.585 171.697L105.616 171.684C105.688 171.653 105.768 171.684 105.799 171.755C105.83 171.826 105.799 171.906 105.728 171.937L105.696 171.95C105.372 172.092 105.038 172.217 104.709 172.328C104.691 172.332 104.678 172.332 104.66 172.332ZM107.218 171.124C107.174 171.124 107.129 171.102 107.102 171.062C107.062 171 107.08 170.911 107.147 170.871C107.445 170.68 107.739 170.476 108.019 170.258C108.081 170.214 108.166 170.223 108.215 170.285C108.259 170.347 108.25 170.431 108.188 170.48C107.903 170.702 107.601 170.911 107.294 171.106C107.267 171.12 107.245 171.124 107.218 171.124ZM109.403 169.33C109.367 169.33 109.336 169.317 109.309 169.29C109.256 169.237 109.251 169.152 109.305 169.095C109.55 168.837 109.781 168.566 109.999 168.291C110.048 168.229 110.132 168.22 110.195 168.269C110.257 168.317 110.266 168.402 110.217 168.464C109.994 168.748 109.754 169.028 109.505 169.29C109.474 169.317 109.438 169.33 109.403 169.33ZM111.08 167.061C111.058 167.061 111.036 167.056 111.013 167.043C110.947 167.007 110.924 166.923 110.96 166.856C111.133 166.55 111.294 166.23 111.44 165.906C111.472 165.835 111.552 165.804 111.623 165.835C111.694 165.866 111.725 165.946 111.694 166.017C111.547 166.345 111.383 166.674 111.205 166.989C111.174 167.034 111.129 167.061 111.08 167.061ZM112.152 164.449C112.139 164.449 112.13 164.449 112.117 164.445C112.041 164.422 112.001 164.347 112.019 164.276C112.112 163.934 112.192 163.587 112.255 163.237C112.268 163.161 112.339 163.112 112.415 163.126C112.491 163.139 112.539 163.21 112.526 163.285C112.464 163.641 112.384 164.001 112.286 164.351C112.268 164.409 112.215 164.449 112.152 164.449ZM112.562 161.656C112.482 161.656 112.424 161.589 112.424 161.513C112.424 161.433 112.428 161.354 112.428 161.269C112.428 160.994 112.419 160.718 112.397 160.448C112.393 160.372 112.45 160.305 112.526 160.301C112.597 160.292 112.668 160.354 112.673 160.43C112.695 160.71 112.704 160.994 112.704 161.274C112.704 161.358 112.704 161.438 112.7 161.522C112.7 161.593 112.637 161.656 112.562 161.656ZM112.272 158.844C112.21 158.844 112.152 158.8 112.139 158.738C112.059 158.391 111.961 158.049 111.85 157.712C111.828 157.641 111.863 157.561 111.939 157.539C112.01 157.516 112.09 157.552 112.112 157.627C112.228 157.969 112.326 158.325 112.406 158.675C112.424 158.751 112.375 158.822 112.304 158.84C112.295 158.844 112.281 158.844 112.272 158.844ZM111.307 156.193C111.258 156.193 111.209 156.166 111.182 156.117C111.022 155.802 110.844 155.491 110.653 155.194C110.613 155.131 110.631 155.043 110.697 155.003C110.76 154.963 110.849 154.98 110.889 155.047C111.08 155.353 111.263 155.673 111.427 155.997C111.463 156.064 111.436 156.148 111.365 156.184C111.347 156.188 111.325 156.193 111.307 156.193Z" fill="white"/>
<path d="M100.126 172.884C100.122 172.884 100.117 172.884 100.113 172.884C99.9259 172.871 99.7391 172.848 99.5566 172.826C99.481 172.817 99.4276 172.746 99.4365 172.671C99.4454 172.595 99.5122 172.542 99.5922 172.551C99.7702 172.573 99.9526 172.591 100.135 172.609C100.211 172.613 100.269 172.68 100.26 172.755C100.26 172.831 100.202 172.884 100.126 172.884Z" fill="white"/>
<path d="M92.0818 168.654C92.0417 168.654 92.0017 168.637 91.975 168.601C91.8549 168.455 91.7436 168.308 91.6324 168.161C91.5879 168.099 91.6013 168.015 91.6635 167.97C91.7258 167.926 91.8104 167.939 91.8549 168.002C91.9616 168.144 92.0729 168.29 92.1886 168.432C92.2375 168.49 92.2286 168.579 92.1663 168.628C92.1396 168.646 92.1129 168.654 92.0818 168.654Z" fill="white"/>
<path d="M90.8317 166.754C90.7827 166.754 90.7338 166.727 90.7071 166.678C90.5781 166.429 90.4535 166.176 90.3422 165.923C90.3111 165.852 90.28 165.781 90.2488 165.706C90.2221 165.634 90.2533 165.555 90.3245 165.528C90.3956 165.501 90.4757 165.532 90.5024 165.603C90.5291 165.674 90.5603 165.745 90.5914 165.812C90.6982 166.061 90.8183 166.31 90.9473 166.554C90.9829 166.62 90.9562 166.705 90.8895 166.74C90.8762 166.749 90.8539 166.754 90.8317 166.754ZM89.8439 164.156C89.7816 164.156 89.7238 164.116 89.7105 164.049C89.6259 163.703 89.5547 163.347 89.5013 162.996C89.488 162.921 89.5414 162.85 89.617 162.841C89.6927 162.832 89.7638 162.881 89.7727 162.956C89.8261 163.303 89.8929 163.645 89.9774 163.982C89.9952 164.058 89.9507 164.129 89.8751 164.151C89.8662 164.156 89.8573 164.156 89.8439 164.156ZM89.5102 161.398C89.4346 161.398 89.3723 161.335 89.3723 161.26C89.3723 160.905 89.3901 160.54 89.4257 160.19C89.4346 160.114 89.4969 160.056 89.577 160.065C89.6526 160.074 89.7105 160.141 89.7016 160.216C89.6704 160.563 89.6526 160.913 89.6526 161.264C89.6482 161.335 89.5859 161.398 89.5102 161.398ZM89.8528 158.644C89.8439 158.644 89.8306 158.644 89.8172 158.64C89.7416 158.622 89.6971 158.546 89.7149 158.471C89.7994 158.124 89.9062 157.778 90.0219 157.44C90.0486 157.369 90.1242 157.329 90.1999 157.356C90.2711 157.383 90.3111 157.458 90.2844 157.534C90.1687 157.862 90.0664 158.2 89.9863 158.537C89.973 158.6 89.9151 158.644 89.8528 158.644ZM90.845 156.046C90.8228 156.046 90.8005 156.041 90.7827 156.028C90.716 155.993 90.6893 155.908 90.7249 155.842C90.894 155.526 91.0764 155.215 91.2677 154.918C91.3077 154.856 91.3967 154.838 91.459 154.878C91.5213 154.918 91.5391 155.007 91.4991 155.069C91.3077 155.357 91.1298 155.664 90.9696 155.97C90.9429 156.019 90.894 156.046 90.845 156.046ZM92.4289 153.763C92.3978 153.763 92.3622 153.75 92.3355 153.728C92.2777 153.679 92.2732 153.59 92.3222 153.532C92.558 153.266 92.8116 153.008 93.0741 152.764C93.1275 152.71 93.2165 152.715 93.2699 152.773C93.3233 152.83 93.3188 152.915 93.261 152.968C93.0073 153.203 92.7582 153.457 92.5268 153.719C92.5046 153.745 92.469 153.763 92.4289 153.763ZM94.5156 151.929C94.4712 151.929 94.4267 151.907 94.4 151.867C94.3555 151.804 94.3733 151.72 94.4356 151.676C94.7292 151.476 95.0362 151.285 95.3477 151.112C95.4144 151.076 95.4989 151.098 95.5345 151.165C95.5701 151.232 95.5479 151.316 95.4811 151.351C95.1741 151.52 94.876 151.707 94.5868 151.902C94.5735 151.92 94.5423 151.929 94.5156 151.929ZM96.985 150.645C96.9271 150.645 96.8782 150.61 96.856 150.556C96.8293 150.485 96.8649 150.405 96.936 150.379C97.2697 150.254 97.6123 150.143 97.9594 150.046C98.0306 150.024 98.1106 150.068 98.1284 150.143C98.1507 150.219 98.1062 150.294 98.0306 150.312C97.6924 150.405 97.3587 150.512 97.0339 150.636C97.0206 150.641 97.0028 150.645 96.985 150.645ZM99.6901 149.988C99.6189 149.988 99.5611 149.935 99.5522 149.868C99.5433 149.793 99.5967 149.726 99.6723 149.717C100.028 149.677 100.389 149.65 100.745 149.642C100.816 149.642 100.883 149.699 100.887 149.775C100.887 149.85 100.829 149.913 100.754 149.917C100.406 149.926 100.051 149.952 99.7079 149.992C99.699 149.988 99.6946 149.988 99.6901 149.988Z" fill="white"/>
<path d="M103.027 150.082C103.018 150.082 103.009 150.082 103.005 150.082C102.827 150.051 102.649 150.024 102.466 150.002C102.391 149.993 102.337 149.922 102.346 149.846C102.355 149.771 102.426 149.718 102.502 149.727C102.689 149.749 102.876 149.78 103.054 149.811C103.129 149.824 103.178 149.895 103.165 149.971C103.147 150.037 103.089 150.082 103.027 150.082Z" fill="white"/>
<path d="M103.65 152.835C103.597 152.813 103.534 152.826 103.494 152.87L102.36 154.114C101.585 153.976 100.785 153.959 99.9837 154.079L98.8847 152.808C98.8447 152.764 98.7824 152.746 98.729 152.768L96.8514 153.514C96.798 153.537 96.7624 153.59 96.7624 153.648L96.8425 155.326C96.1796 155.788 95.6056 156.348 95.1385 156.979L93.4611 156.854C93.4033 156.85 93.3454 156.885 93.3232 156.939L92.5268 158.791C92.5045 158.844 92.5179 158.906 92.5624 158.946L93.8081 160.079C93.6702 160.851 93.6524 161.651 93.7725 162.45L92.5001 163.547C92.4556 163.587 92.4378 163.649 92.46 163.703L93.2075 165.577C93.2297 165.63 93.2831 165.666 93.341 165.666L95.0228 165.586C95.4855 166.247 96.0461 166.82 96.6779 167.287L96.5533 168.961C96.5489 169.019 96.5845 169.076 96.6379 169.099L98.4932 169.894C98.5466 169.916 98.6089 169.903 98.6489 169.858L99.7835 168.615C100.558 168.752 101.359 168.77 102.159 168.65L103.258 169.92C103.298 169.965 103.361 169.983 103.414 169.96L105.292 169.214C105.345 169.192 105.381 169.139 105.381 169.081L105.301 167.402C105.964 166.94 106.537 166.381 107.005 165.75L108.682 165.874C108.74 165.879 108.798 165.843 108.82 165.79L109.616 163.938C109.639 163.885 109.625 163.823 109.581 163.783L108.335 162.65C108.473 161.877 108.491 161.078 108.371 160.278L109.647 159.181C109.692 159.141 109.71 159.079 109.688 159.026L108.94 157.152C108.918 157.099 108.864 157.063 108.807 157.063L107.125 157.143C106.662 156.481 106.101 155.908 105.47 155.442L105.594 153.768C105.599 153.71 105.563 153.652 105.51 153.63L103.65 152.835Z" fill="#FF873C"/>
<path opacity="0.7" d="M101.074 163.356C100.455 163.356 99.8414 163.067 99.4499 162.53C99.1384 162.099 99.0094 161.571 99.0939 161.042C99.1785 160.514 99.4632 160.052 99.8948 159.741C100.326 159.43 100.856 159.301 101.385 159.386C101.915 159.47 102.377 159.754 102.689 160.185C103 160.616 103.129 161.144 103.045 161.673C102.96 162.201 102.676 162.663 102.244 162.974C101.893 163.232 101.483 163.356 101.074 163.356ZM101.069 159.776C100.74 159.776 100.415 159.879 100.144 160.078C99.8014 160.327 99.5745 160.691 99.5077 161.109C99.441 161.526 99.5389 161.944 99.788 162.286C100.037 162.628 100.402 162.854 100.82 162.921C101.238 162.987 101.657 162.89 101.999 162.641C102.342 162.392 102.569 162.028 102.636 161.611C102.702 161.193 102.604 160.776 102.355 160.434C102.106 160.092 101.741 159.865 101.323 159.799C101.238 159.785 101.154 159.776 101.069 159.776Z" fill="white"/>
<path opacity="0.7" d="M101.06 166.474C100.38 166.474 99.699 166.336 99.0539 166.056C97.8081 165.519 96.847 164.533 96.3443 163.276C96.0996 162.663 95.9839 162.028 95.9839 161.406C95.9839 159.39 97.1985 157.48 99.1829 156.69C99.4988 156.565 99.8236 156.472 100.157 156.41C100.18 156.405 100.202 156.401 100.224 156.396L100.291 156.805C99.966 156.858 99.6412 156.952 99.3342 157.072C96.9449 158.022 95.7748 160.736 96.7269 163.12C97.1896 164.275 98.0706 165.181 99.2185 165.674C100.362 166.167 101.63 166.185 102.787 165.723C104.611 164.999 105.728 163.245 105.728 161.393C105.728 160.82 105.621 160.238 105.399 159.674C105.087 158.888 104.567 158.204 103.899 157.698L104.148 157.369C104.878 157.924 105.443 158.67 105.781 159.523C106.026 160.136 106.142 160.771 106.142 161.393C106.142 163.409 104.927 165.319 102.943 166.109C102.329 166.354 101.692 166.474 101.06 166.474Z" fill="white"/>
<path d="M348.819 403.5H160.2C158.092 403.5 156.401 401.598 156.401 399.259V29.3467C156.401 26.9937 158.105 25.1055 160.2 25.1055H348.832C350.94 25.1055 352.631 27.0082 352.631 29.3467V399.245C352.631 401.598 350.927 403.5 348.819 403.5Z" fill="#25313C"/>
<path d="M339.841 391.925H169.166C167.058 391.925 165.366 390.022 165.366 387.684V41.1123C165.366 38.7593 167.071 36.8711 169.166 36.8711H339.841C341.949 36.8711 343.64 38.7738 343.64 41.1123V387.684C343.64 390.022 341.936 391.925 339.841 391.925Z" fill="white"/>
<path d="M281.91 265.788H225.843C221.94 265.788 218.76 262.635 218.76 258.719V184.625C218.76 180.73 221.919 177.556 225.843 177.556H281.91C285.813 177.556 288.993 180.709 288.993 184.625V258.74C288.993 262.635 285.813 265.788 281.91 265.788Z" fill="#FAFAFA"/>
<path d="M244.396 233.225C242.273 233.225 240.556 234.958 240.556 237.077C240.556 239.195 242.273 240.928 244.396 240.928C246.518 240.928 248.254 239.195 248.254 237.077C248.254 234.958 246.518 233.225 244.396 233.225ZM263.689 233.225C261.567 233.225 259.85 234.958 259.85 237.077C259.85 239.195 261.567 240.928 263.689 240.928C265.812 240.928 267.548 239.195 267.548 237.077C267.548 234.958 265.812 233.225 263.689 233.225ZM244.724 226.967L244.782 226.736L246.518 223.597H260.892C262.339 223.597 263.612 222.808 264.268 221.614L271.716 208.116L268.358 206.267H268.339L266.217 210.118L260.892 219.746H247.348L247.097 219.226L242.775 210.118L240.942 206.267L239.129 202.416H232.82V206.267H236.678L243.624 220.882L241.019 225.6C240.711 226.139 240.537 226.775 240.537 227.449C240.537 229.567 242.273 231.3 244.396 231.3H267.548V227.449H245.206C244.955 227.449 244.724 227.237 244.724 226.967Z" fill="#FF873C"/>
<mask id="mask0" mask-type="alpha" maskUnits="userSpaceOnUse" x="165" y="36" width="179" height="356">
<path d="M339.841 391.925H169.166C167.058 391.925 165.366 390.02 165.366 387.678V40.5961C165.366 38.2396 167.071 36.3486 169.166 36.3486H339.841C341.949 36.3486 343.64 38.2542 343.64 40.5961V387.678C343.64 390.02 341.936 391.925 339.841 391.925Z" fill="#F9F9FF"/>
</mask>
<g mask="url(#mask0)">
<path opacity="0.21" d="M486.78 128.93L50.3159 23.802L59.2305 -10.9766L495.671 94.1512L486.78 128.93Z" fill="#D7F9F7"/>
<path opacity="0.21" d="M446.158 520.548L9.71777 415.42L37.3249 307.613L473.765 412.741L446.158 520.548Z" fill="#D7F9F7"/>
<path opacity="0.21" d="M475.195 339.04L38.731 233.912L45.9186 205.912L482.359 311.04L475.195 339.04Z" fill="#D7F9F7"/>
<path opacity="0.21" d="M585.633 233.087L32.6704 99.8917L37.9629 79.2617L590.925 212.457L585.633 233.087Z" fill="#D7F9F7"/>
</g>
<path d="M307.65 47.8221H202.528C201.734 47.8221 201.07 47.0959 201.07 46.1953V36.3477H309.094V46.1953C309.094 47.0959 308.443 47.8221 307.65 47.8221Z" fill="url(#paint1_linear)"/>
<path d="M288.744 42.0853H223.945C223.659 42.0853 223.412 41.8239 223.412 41.4898V38.4832C223.412 38.1637 223.646 37.8877 223.945 37.8877H288.744C289.03 37.8877 289.277 38.1491 289.277 38.4832V41.4898C289.264 41.8239 289.03 42.0853 288.744 42.0853Z" fill="url(#paint2_linear)"/>
<rect x="187.24" y="280.023" width="133.274" height="28.0984" rx="5" fill="#FF873C"/>
<path d="M230.805 294.76C230.806 294.095 230.538 293.645 230.227 293.333C229.894 293 229.4 292.807 229.196 292.731C228.96 292.634 228.412 292.441 228.09 292.312C227.757 292.182 227.338 292.01 227.339 291.56C227.339 291.109 227.748 290.895 228.307 290.896C228.865 290.897 229.531 291.22 229.96 291.649L230.703 290.438C230.199 289.934 229.211 289.525 228.351 289.524C227.492 289.522 226.815 289.757 226.395 290.111C225.965 290.464 225.621 291.021 225.62 291.729C225.619 292.426 225.876 292.856 226.198 293.156C226.52 293.468 226.896 293.608 227.078 293.694C227.325 293.801 227.884 293.995 228.206 294.113C228.528 294.232 229.076 294.425 229.075 294.93C229.074 295.423 228.644 295.69 228.085 295.69C227.516 295.689 226.689 295.312 226.153 294.754L225.292 296.018C225.893 296.577 226.848 297.136 227.922 297.137C228.717 297.138 229.405 296.946 229.932 296.529C230.47 296.111 230.804 295.468 230.805 294.76Z" fill="white"/>
<path d="M238.78 291.736L237.841 295.113L236.825 291.733L235.418 291.731L234.393 295.108L233.462 291.729L231.722 291.726L233.455 297.016L235.078 297.018L236.124 293.781L237.151 297.021L238.773 297.023L240.521 291.738L238.78 291.736Z" fill="white"/>
<path d="M246.612 294.052C246.613 293.162 246.388 292.647 245.981 292.26C245.562 291.873 244.993 291.647 244.005 291.646C243.016 291.645 242.188 291.955 241.737 292.179L242.187 293.295C242.456 293.124 243.133 292.825 243.81 292.826C244.497 292.826 244.894 293.117 244.894 293.674L244.893 293.792L243.561 293.844C242.583 293.886 241.498 294.281 241.496 295.461C241.495 296.64 242.482 297.146 243.417 297.147C244.277 297.148 244.707 296.698 244.933 296.473L244.964 297.031L246.608 297.033L246.612 294.052ZM244.902 295.572C244.794 295.755 244.482 296.054 244.02 296.054C243.548 296.053 243.215 295.806 243.215 295.399C243.216 295.002 243.528 294.777 244.054 294.756L244.903 294.704L244.902 295.572Z" fill="white"/>
<path d="M254.347 294.405C254.349 292.85 253.384 291.659 251.858 291.657C251.053 291.655 250.483 291.966 250.095 292.426L250.074 292.426L250.085 291.751L248.452 291.749L248.443 298.977L250.162 298.979L250.165 296.373C250.498 296.867 251.056 297.157 251.84 297.158C253.377 297.16 254.345 295.96 254.347 294.405ZM252.596 294.381C252.595 295.196 252.089 295.753 251.348 295.753C250.617 295.752 250.113 295.193 250.114 294.378C250.115 293.563 250.621 293.006 251.352 293.007C252.093 293.008 252.597 293.566 252.596 294.381Z" fill="white"/>
<path d="M265.615 289.659L263.917 289.656L263.913 293.013C263.912 293.796 263.943 294.632 263.943 294.632L260.769 289.652L258.911 289.65L258.901 297.049L260.599 297.052L260.603 293.706C260.604 292.923 260.573 292.033 260.573 292.033L263.822 297.056L265.605 297.058L265.615 289.659Z" fill="white"/>
<path d="M273.172 294.441C273.174 292.736 271.919 291.683 270.243 291.681C268.567 291.679 267.297 292.728 267.295 294.433C267.293 296.138 268.559 297.18 270.235 297.182C271.911 297.185 273.17 296.146 273.172 294.441ZM271.442 294.406C271.441 295.189 270.989 295.778 270.237 295.777C269.474 295.776 269.035 295.186 269.036 294.403C269.037 293.62 269.478 293.031 270.241 293.032C270.993 293.033 271.443 293.623 271.442 294.406Z" fill="white"/>
<path d="M281.116 291.792L280.176 295.169L279.16 291.789L277.753 291.787L276.728 295.164L275.797 291.785L274.057 291.782L275.79 297.072L277.413 297.074L278.459 293.836L279.486 297.077L281.109 297.079L282.856 291.794L281.116 291.792Z" fill="white"/>
<path d="M250.384 243.656C250.384 243.656 250.384 248.396 246.122 248.913C246.122 248.913 250.384 249.521 250.384 253.258C250.384 249.521 254.645 248.913 254.645 248.913C250.384 248.396 250.384 243.656 250.384 243.656Z" fill="#FFC55F" fill-opacity="0.13"/>
<path d="M238.728 212.595C238.728 212.595 238.728 230.299 222.811 232.229C222.811 232.229 238.728 234.498 238.728 248.458C238.728 234.498 254.645 232.229 254.645 232.229C238.728 230.299 238.728 212.595 238.728 212.595Z" fill="#FFC55F" fill-opacity="0.13"/>
<path d="M265.302 208.482C265.302 208.482 261.484 216.471 253.884 213.921C253.884 213.921 260.578 218.366 257.567 224.665C260.578 218.366 268.25 220.763 268.25 220.763C261.484 216.471 265.302 208.482 265.302 208.482Z" fill="#FFC55F" fill-opacity="0.13"/>
<path d="M270.735 164.076C287.771 167.962 305.365 169.474 322.351 166.296C330.044 164.853 337.548 162.453 344.673 159.15C355.71 154.031 368.761 148.188 370.354 133.304C371.25 124.991 365.725 120.691 358.985 119C355.821 118.208 355.788 118.373 352.613 118.11C352.615 122.965 352.616 127.433 352.267 130.548C351.041 132.743 345.385 135.286 343.303 136.525C337.106 140.229 330.545 143.221 323.692 145.305C307.311 150.281 289.852 149.834 272.901 147.066C267.308 146.159 262.886 151.721 264.442 157.681C265.297 160.908 267.732 163.389 270.735 164.076Z" fill="url(#paint3_linear)"/>
<path d="M285.724 182.647L250.604 154.534C249.531 153.679 249.64 151.926 250.81 151.322L287.505 132.564C288.868 131.864 290.48 133.063 290.402 134.726C286.051 151.274 285.624 166.725 288.426 181.307C288.36 182.788 286.83 183.537 285.724 182.647Z" fill="url(#paint4_linear)"/>
<path d="M124.048 251.992C105.307 259.807 85.3429 265.253 64.9426 265.645C55.7028 265.82 46.4484 264.948 37.4123 263.046C23.4144 260.097 6.91368 256.829 1.4571 241.564C-1.59858 233.038 3.74158 227.315 11.1189 224.062C14.582 222.537 16.5247 222.453 20.1296 221.48C20.1296 225.905 19.7039 232.224 22.4395 235.086C24.3893 237.119 30.7917 238.165 33.4981 239.007C41.5593 241.535 49.8679 243.234 58.2928 243.917C78.4312 245.543 98.4969 241.244 117.413 234.621C123.655 232.442 130.116 237.308 129.767 243.902C129.563 247.475 127.351 250.613 124.048 251.992Z" fill="url(#paint5_linear)"/>
<path d="M111.229 274.767L144.987 237.555C146.02 236.422 145.467 234.606 143.969 234.229L96.9983 222.595C95.2522 222.159 93.6807 223.771 94.1754 225.499C103.226 241.912 107.475 258.035 107.78 273.953C108.217 275.493 110.167 275.943 111.229 274.767Z" fill="url(#paint6_linear)"/>
<path d="M414.351 186.16C414.351 186.16 414.351 200.1 401.818 201.619C401.818 201.619 414.351 203.406 414.351 214.397C414.351 203.406 426.883 201.619 426.883 201.619C414.351 200.1 414.351 186.16 414.351 186.16Z" fill="#4ACFFF"/>
<path d="M377.58 328.93C377.58 328.93 377.58 355.889 401.818 358.827C401.818 358.827 377.58 362.284 377.58 383.54C377.58 362.284 353.342 358.827 353.342 358.827C377.58 355.889 377.58 328.93 377.58 328.93Z" fill="#FAFAFA"/>
<path d="M281.439 94.9507H281.314C273.755 94.9507 267.634 88.8411 267.634 81.2975V71.0732H295.118V81.2975C295.118 88.8411 288.997 94.9507 281.439 94.9507Z" fill="#934717"/>
<path d="M253.954 94.9507H253.829C246.271 94.9507 240.149 88.8411 240.149 81.2975V71.0732H267.634V81.2975C267.634 88.8411 261.513 94.9507 253.954 94.9507Z" fill="#455059"/>
<path d="M226.439 94.9507H226.314C218.756 94.9507 212.635 88.8411 212.635 81.2975V71.0732H240.119V81.2975C240.119 88.8411 233.998 94.9507 226.439 94.9507Z" fill="#934717"/>
<path d="M198.955 94.9507H198.83C191.271 94.9507 185.15 88.8411 185.15 81.2975V71.0732H212.634V81.2975C212.634 88.8411 206.513 94.9507 198.955 94.9507Z" fill="#455059"/>
<path d="M171.439 94.9507H171.314C163.755 94.9507 157.634 88.8411 157.634 81.2975V71.0732H185.119V81.2975C185.119 88.8411 178.997 94.9507 171.439 94.9507Z" fill="#934717"/>
<path d="M363.896 94.9507H363.771C356.213 94.9507 350.091 88.8411 350.091 81.2975V71.0732H377.576V81.2975C377.576 88.8411 371.454 94.9507 363.896 94.9507Z" fill="#455059"/>
<path d="M336.377 94.9507H336.252C328.694 94.9507 322.572 88.8411 322.572 81.2975V71.0732H350.057V81.2975C350.057 88.8411 343.935 94.9507 336.377 94.9507Z" fill="#934717"/>
<path d="M308.958 94.9507H308.833C301.274 94.9507 295.153 88.8411 295.153 81.2975V71.0732H322.638V81.2975C322.638 88.8411 316.516 94.9507 308.958 94.9507Z" fill="#455059"/>
<path d="M143.955 94.9507H143.83C136.272 94.9507 130.15 88.8411 130.15 81.2975V71.0732H157.635V81.2975C157.635 88.8411 151.513 94.9507 143.955 94.9507Z" fill="#455059"/>
<path d="M263.668 36.3477H244.116L240.118 71.0728H267.634L263.668 36.3477Z" fill="#6D7D8B"/>
<path d="M244.117 36.3477H224.565L212.634 71.0728H240.119L244.117 36.3477Z" fill="#FF873C"/>
<path d="M224.566 36.3477H205.014L185.119 71.0728H212.635L224.566 36.3477Z" fill="#6D7D8B"/>
<path d="M205.014 36.3477H185.462L157.634 71.0728H185.119L205.014 36.3477Z" fill="#FF873C"/>
<path d="M185.463 36.3477H165.911L130.119 71.0728H157.635L185.463 36.3477Z" fill="#6D7D8B"/>
<path d="M341.721 36.3477H322.169L350.06 71.0728H377.576L341.721 36.3477Z" fill="#6D7D8B"/>
<path d="M322.293 36.3477H302.741L322.574 71.0728H350.059L322.293 36.3477Z" fill="#FF873C"/>
<path d="M302.741 36.3477H283.189L295.12 71.0728H322.636L302.741 36.3477Z" fill="#6D7D8B"/>
<path d="M283.19 36.3477H263.638L267.636 71.0728H295.121L283.19 36.3477Z" fill="#FF873C"/>
<defs>
<linearGradient id="paint0_linear" x1="102.544" y1="301.639" x2="131.647" y2="301.639" gradientUnits="userSpaceOnUse">
<stop stop-color="white"/>
<stop offset="1"/>
</linearGradient>
<linearGradient id="paint1_linear" x1="216.153" y1="-63.8414" x2="486.262" y2="522.34" gradientUnits="userSpaceOnUse">
<stop stop-color="#25313C"/>
<stop offset="1" stop-color="#1A0F91"/>
</linearGradient>
<linearGradient id="paint2_linear" x1="172.521" y1="54.4304" x2="171.679" y2="30.3882" gradientUnits="userSpaceOnUse">
<stop stop-color="#00505C"/>
<stop offset="0.48279" stop-color="#FF873C"/>
</linearGradient>
<linearGradient id="paint3_linear" x1="483.405" y1="256.502" x2="482.94" y2="25.0552" gradientUnits="userSpaceOnUse">
<stop stop-color="#FF873C"/>
<stop offset="0.48279" stop-color="#FF873C"/>
</linearGradient>
<linearGradient id="paint4_linear" x1="473.852" y1="263.239" x2="463.305" y2="-4.44294" gradientUnits="userSpaceOnUse">
<stop stop-color="#00505C"/>
<stop offset="0.359373" stop-color="#FF873C"/>
</linearGradient>
<linearGradient id="paint5_linear" x1="-99.2463" y1="395.62" x2="-145.248" y2="150.871" gradientUnits="userSpaceOnUse">
<stop stop-color="#00505C"/>
<stop offset="0.402107" stop-color="#FF873C"/>
</linearGradient>
<linearGradient id="paint6_linear" x1="-86.6173" y1="400.631" x2="-130.12" y2="115.949" gradientUnits="userSpaceOnUse">
<stop stop-color="#00505C"/>
<stop offset="0.399705" stop-color="#FF873C"/>
</linearGradient>
</defs>
</svg>
