<svg width="526" height="392" viewBox="0 0 526 392" fill="none" xmlns="http://www.w3.org/2000/svg">
<path d="M353.022 96.4883C353.022 96.4883 353.022 106.375 362.253 107.452C362.253 107.452 353.022 108.72 353.022 116.515C353.022 108.72 343.791 107.452 343.791 107.452C353.022 106.375 353.022 96.4883 353.022 96.4883Z" fill="#1ACC8D"/>
<path d="M404.931 126.811C404.931 126.811 404.931 130.527 408.401 130.932C408.401 130.932 404.931 131.409 404.931 134.339C404.931 131.409 401.461 130.932 401.461 130.932C404.931 130.527 404.931 126.811 404.931 126.811Z" fill="#1ACC8D"/>
<path d="M407.634 173.609C407.634 173.609 407.634 180.221 413.808 180.942C413.808 180.942 407.634 181.79 407.634 187.003C407.634 181.79 401.461 180.942 401.461 180.942C407.634 180.221 407.634 173.609 407.634 173.609Z" fill="#1ACC8D"/>
<g opacity="0.75">
<path opacity="0.75" d="M477.427 78.8427L526 165.622L372.417 253.071L323.843 166.291L477.427 78.8427Z" fill="#D8D8D8"/>
<path opacity="0.75" d="M475.033 84.6642L519.542 164.184L375.166 246.39L330.656 166.87L475.033 84.6642Z" fill="#D8D8D8" stroke="#D8D8D8" stroke-width="0.14035" stroke-miterlimit="10"/>
<path opacity="0.75" d="M416.615 198.98C398.323 194.194 387.34 175.358 392.085 156.908C396.83 138.458 415.506 127.381 433.799 132.167C452.092 136.953 463.074 155.79 458.329 174.239C453.584 192.689 434.908 203.766 416.615 198.98Z" fill="#D8D8D8"/>
<path opacity="0.75" d="M404.935 162.644C404.07 165.552 404.358 168.751 405.608 172.241L400.033 175.44L403.397 181.547L408.78 178.445C411.759 182.807 415.123 185.716 418.776 187.267L422.908 181.547C419.448 179.996 416.565 177.573 414.45 174.471L423.389 169.43C425.215 171.369 426.945 172.92 428.483 173.986C430.021 175.149 431.751 175.828 433.673 176.119C435.596 176.409 437.614 175.925 439.825 174.664C442.516 173.113 444.246 170.884 445.111 167.782C445.976 164.777 445.784 161.481 444.534 157.991L450.109 154.792L446.745 148.685L441.266 151.787C439.921 150.042 438.479 148.491 436.941 147.134C435.307 145.776 433.769 144.904 432.232 144.322L428.099 150.042C431.174 151.496 433.673 153.338 435.499 155.664L426.272 160.899C424.542 158.96 422.908 157.506 421.371 156.44C419.833 155.373 418.199 154.598 416.277 154.404C414.354 154.113 412.336 154.598 410.221 155.858C407.434 157.506 405.704 159.736 404.935 162.644ZM433.289 167.006C432.424 166.715 431.463 166.231 430.405 165.358L437.998 160.996C438.287 162.256 438.287 163.323 437.902 164.292C437.518 165.261 436.845 166.037 435.884 166.618C435.115 167.103 434.154 167.297 433.289 167.006ZM414.162 164.001C414.931 163.613 415.7 163.419 416.469 163.71C417.238 163.904 418.103 164.389 419.064 165.164L411.951 169.236C411.471 166.909 412.144 165.164 414.162 164.001Z" fill="#D8D8D8"/>
<path opacity="0.75" d="M521.906 160.609C520.368 157.895 516.908 156.926 514.217 158.477C511.526 160.028 510.565 163.518 512.103 166.232C513.64 168.946 517.101 169.916 519.792 168.365C522.483 166.814 523.444 163.324 521.906 160.609Z" fill="#D8D8D8"/>
<path opacity="0.75" d="M517.483 160.023C517.003 159.926 516.522 159.926 515.946 160.12L515.465 159.15L514.504 159.732L514.984 160.604C514.312 161.089 513.831 161.671 513.543 162.252L514.504 162.931C514.792 162.349 515.177 161.865 515.657 161.477L516.522 162.931C516.234 163.222 515.946 163.513 515.753 163.803C515.561 164.094 515.465 164.385 515.369 164.676C515.369 164.967 515.369 165.354 515.561 165.742C515.849 166.227 516.138 166.518 516.714 166.614C517.195 166.711 517.772 166.711 518.348 166.518L518.829 167.39L519.79 166.808L519.31 165.936C519.598 165.742 519.886 165.451 520.079 165.257C520.271 164.967 520.463 164.773 520.559 164.482L519.598 163.803C519.406 164.288 519.021 164.676 518.637 165.063L517.772 163.513C518.06 163.222 518.348 162.931 518.541 162.737C518.733 162.446 518.829 162.155 518.925 161.865C518.925 161.574 518.925 161.186 518.733 160.895C518.348 160.411 517.964 160.12 517.483 160.023ZM516.811 164.773C516.811 164.579 516.907 164.482 517.099 164.288L517.772 165.548C517.58 165.645 517.387 165.548 517.195 165.548C517.003 165.451 516.907 165.354 516.811 165.257C516.714 165.063 516.714 164.87 516.811 164.773ZM517.291 161.574C517.387 161.671 517.387 161.865 517.387 161.962C517.387 162.058 517.291 162.252 517.099 162.446L516.426 161.283C516.811 161.089 517.099 161.186 517.291 161.574Z" fill="#D8D8D8"/>
<path opacity="0.75" d="M479.712 85.2842C478.174 82.5697 474.714 81.6003 472.023 83.1514C469.332 84.7025 468.371 88.1925 469.909 90.907C471.446 93.6214 474.907 94.5909 477.598 93.0397C480.289 91.4886 481.25 87.9986 479.712 85.2842Z" fill="#D8D8D8"/>
<path opacity="0.75" d="M475.289 84.7045C474.808 84.6075 474.327 84.6075 473.751 84.8014L473.27 83.832L472.309 84.4136L472.79 85.2861C472.117 85.7708 471.636 86.3524 471.348 86.934L472.309 87.6125C472.597 87.0309 472.982 86.5462 473.462 86.1585L474.327 87.6125C474.039 87.9034 473.751 88.1942 473.558 88.485C473.366 88.7758 473.27 89.0666 473.174 89.3574C473.078 89.6482 473.174 90.0359 473.366 90.4237C473.655 90.9084 473.943 91.1992 474.52 91.2961C475 91.3931 475.577 91.3931 476.154 91.1992L476.634 92.0716L477.595 91.49L477.115 90.6176C477.403 90.4237 477.691 90.1329 477.884 89.939C478.076 89.6482 478.268 89.4543 478.364 89.1635L477.403 88.485C477.211 88.9696 476.826 89.3574 476.442 89.7451L475.577 88.1942C475.865 87.9034 476.154 87.6125 476.346 87.4187C476.538 87.1279 476.634 86.8371 476.73 86.5462C476.73 86.2554 476.73 85.8677 476.538 85.5769C476.154 85.0922 475.769 84.8014 475.289 84.7045ZM474.616 89.3574C474.616 89.1635 474.712 89.0666 474.904 88.8727L475.577 90.1329C475.385 90.2298 475.192 90.1329 475 90.1329C474.808 90.036 474.712 89.939 474.616 89.8421C474.616 89.6482 474.52 89.5513 474.616 89.3574ZM475.096 86.2554C475.192 86.3524 475.192 86.5462 475.192 86.6432C475.192 86.7401 475.096 86.934 474.904 87.1279L474.231 85.9646C474.616 85.7708 474.904 85.8677 475.096 86.2554Z" fill="#D8D8D8"/>
<path opacity="0.75" d="M379.176 241.84C377.638 239.126 374.178 238.157 371.487 239.708C368.796 241.259 367.835 244.749 369.373 247.463C370.91 250.177 374.37 251.146 377.062 249.595C379.753 248.044 380.714 244.555 379.176 241.84Z" fill="#D8D8D8"/>
<path opacity="0.75" d="M374.754 241.267C374.274 241.17 373.793 241.17 373.217 241.364L372.736 240.395L371.775 240.976L372.255 241.849C371.583 242.333 371.102 242.915 370.814 243.497L371.775 244.175C372.063 243.593 372.448 243.109 372.928 242.721L373.793 244.175C373.505 244.466 373.217 244.757 373.024 245.047C372.832 245.338 372.736 245.629 372.64 245.92C372.64 246.211 372.64 246.598 372.832 246.986C373.12 247.471 373.409 247.762 373.985 247.859C374.466 247.956 375.043 247.956 375.619 247.762L376.1 248.634L377.061 248.052L376.581 247.18C376.869 246.986 377.157 246.695 377.35 246.502C377.542 246.211 377.734 246.017 377.83 245.726L376.869 245.047C376.677 245.532 376.292 245.92 375.908 246.308L375.043 244.757C375.331 244.466 375.619 244.175 375.812 243.981C376.004 243.69 376.1 243.4 376.196 243.109C376.196 242.818 376.196 242.43 376.004 242.139C375.619 241.752 375.235 241.461 374.754 241.267ZM374.082 246.017C374.082 245.823 374.178 245.726 374.37 245.532L375.043 246.792C374.851 246.889 374.658 246.792 374.466 246.792C374.274 246.695 374.178 246.598 374.082 246.502C373.985 246.308 373.985 246.114 374.082 246.017ZM374.562 242.818C374.658 242.915 374.658 243.109 374.658 243.206C374.658 243.303 374.562 243.496 374.37 243.69L373.697 242.527C374.082 242.333 374.37 242.527 374.562 242.818Z" fill="#D8D8D8"/>
<path opacity="0.75" d="M336.98 166.522C335.442 163.808 331.982 162.839 329.29 164.39C326.599 165.941 325.638 169.431 327.176 172.145C328.714 174.859 332.174 175.829 334.865 174.278C337.556 172.727 338.518 169.237 336.98 166.522Z" fill="#D8D8D8"/>
<path opacity="0.75" d="M332.56 165.939C332.079 165.842 331.599 165.842 331.022 166.036L330.541 165.066L329.58 165.648L330.061 166.521C329.388 167.005 328.907 167.587 328.619 168.169L329.58 168.847C329.869 168.266 330.253 167.781 330.734 167.393L331.599 168.847C331.31 169.138 331.022 169.429 330.83 169.72C330.638 170.011 330.541 170.301 330.445 170.592C330.445 170.883 330.445 171.271 330.638 171.659C330.926 172.143 331.214 172.434 331.791 172.531C332.271 172.628 332.848 172.628 333.425 172.434L333.905 173.307L334.867 172.725L334.386 171.852C334.674 171.659 334.963 171.368 335.155 171.174C335.347 170.883 335.539 170.689 335.635 170.398L334.674 169.72C334.482 170.204 334.098 170.592 333.713 170.98L332.848 169.429C333.137 169.138 333.425 168.847 333.617 168.653C333.809 168.362 333.905 168.072 334.002 167.781C334.002 167.49 334.002 167.102 333.809 166.811C333.425 166.327 333.04 166.036 332.56 165.939ZM331.887 170.689C331.887 170.495 331.983 170.398 332.175 170.204L332.848 171.465C332.656 171.562 332.464 171.465 332.271 171.465C332.079 171.368 331.983 171.271 331.887 171.174C331.887 170.98 331.791 170.786 331.887 170.689ZM332.368 167.49C332.464 167.587 332.464 167.781 332.464 167.878C332.464 167.975 332.368 168.169 332.175 168.362L331.503 167.199C331.887 167.005 332.175 167.102 332.368 167.49Z" fill="#D8D8D8"/>
</g>
<path d="M476.463 73.996L525.036 160.775L371.452 248.224L322.879 161.445L476.463 73.996Z" fill="#89A36F"/>
<path d="M474.069 79.8192L518.578 159.339L374.201 241.545L329.692 162.026L474.069 79.8192Z" fill="#D4E8C1" stroke="#6F8757" stroke-width="0.14035" stroke-miterlimit="10"/>
<path d="M415.652 194.132C397.359 189.346 386.377 170.51 391.122 152.06C395.867 133.611 414.543 122.534 432.836 127.32C451.129 132.106 462.111 150.942 457.366 169.392C452.621 187.841 433.945 198.918 415.652 194.132Z" fill="#89A36F"/>
<path d="M403.968 157.799C403.103 160.707 403.391 163.906 404.641 167.396L399.066 170.595L402.43 176.702L407.813 173.6C410.792 177.962 414.156 180.871 417.809 182.422L421.942 176.702C418.481 175.151 415.598 172.728 413.483 169.626L422.422 164.585C424.248 166.524 425.978 168.075 427.516 169.141C429.054 170.304 430.784 170.983 432.706 171.274C434.629 171.564 436.647 171.08 438.858 169.82C441.549 168.269 443.279 166.039 444.144 162.937C445.009 159.932 444.817 156.636 443.567 153.146L449.142 149.947L445.778 143.84L440.3 146.942C438.954 145.197 437.512 143.646 435.974 142.289C434.34 140.932 432.803 140.059 431.265 139.478L427.132 145.197C430.207 146.651 432.706 148.493 434.533 150.819L425.306 156.054C423.576 154.115 421.942 152.661 420.404 151.595C418.866 150.529 417.232 149.753 415.31 149.559C413.387 149.268 411.369 149.753 409.254 151.013C406.467 152.661 404.737 154.891 403.968 157.799ZM432.322 162.161C431.457 161.871 430.496 161.386 429.439 160.513L437.032 156.151C437.32 157.411 437.32 158.478 436.936 159.447C436.551 160.416 435.878 161.192 434.917 161.774C434.148 162.258 433.187 162.452 432.322 162.161ZM413.195 159.156C413.964 158.768 414.733 158.575 415.502 158.865C416.271 159.059 417.136 159.544 418.097 160.319L410.984 164.391C410.504 162.064 411.177 160.319 413.195 159.156Z" fill="#D4E8C1"/>
<path d="M520.942 155.764C519.404 153.049 515.944 152.08 513.253 153.631C510.562 155.182 509.601 158.672 511.139 161.386C512.676 164.1 516.137 165.07 518.828 163.519C521.519 161.968 522.48 158.478 520.942 155.764Z" fill="#89A36F"/>
<path d="M516.519 155.179C516.039 155.082 515.558 155.082 514.981 155.276L514.501 154.307L513.54 154.888L514.02 155.761C513.347 156.246 512.867 156.827 512.579 157.409L513.54 158.087C513.828 157.506 514.213 157.021 514.693 156.633L515.558 158.087C515.27 158.378 514.981 158.669 514.789 158.96C514.597 159.251 514.501 159.542 514.405 159.832C514.405 160.123 514.405 160.511 514.597 160.899C514.885 161.384 515.174 161.674 515.75 161.771C516.231 161.868 516.808 161.868 517.384 161.674L517.865 162.547L518.826 161.965L518.346 161.093C518.634 160.899 518.922 160.608 519.115 160.414C519.307 160.123 519.499 159.929 519.595 159.639L518.634 158.96C518.442 159.445 518.057 159.832 517.673 160.22L516.808 158.669C517.096 158.378 517.384 158.087 517.577 157.894C517.769 157.603 517.865 157.312 517.961 157.021C517.961 156.73 517.961 156.342 517.769 156.052C517.384 155.567 517 155.276 516.519 155.179ZM515.847 159.929C515.847 159.735 515.943 159.639 516.135 159.445L516.808 160.705C516.615 160.802 516.423 160.705 516.231 160.705C516.039 160.608 515.943 160.511 515.847 160.414C515.75 160.22 515.75 160.026 515.847 159.929ZM516.327 156.73C516.423 156.827 516.423 157.021 516.423 157.118C516.423 157.215 516.327 157.409 516.135 157.603L515.462 156.439C515.847 156.246 516.135 156.342 516.327 156.73Z" fill="#D4E8C1"/>
<path d="M478.748 80.4393C477.21 77.725 473.75 76.7556 471.059 78.3066C468.368 79.8577 467.407 83.3475 468.944 86.0618C470.482 88.7761 473.942 89.7455 476.634 88.1944C479.325 86.6434 480.286 83.1536 478.748 80.4393Z" fill="#89A36F"/>
<path d="M474.325 79.8529C473.845 79.756 473.364 79.756 472.787 79.9499L472.307 78.9805L471.346 79.5621L471.826 80.4346C471.154 80.9193 470.673 81.5009 470.385 82.0825L471.346 82.7611C471.634 82.1795 472.019 81.6948 472.499 81.307L473.364 82.7611C473.076 83.0519 472.787 83.3428 472.595 83.6336C472.403 83.9244 472.307 84.2152 472.211 84.506C472.115 84.7969 472.211 85.1846 472.403 85.5724C472.691 86.0571 472.98 86.3479 473.556 86.4448C474.037 86.5418 474.614 86.5418 475.19 86.3479L475.671 87.2204L476.632 86.6387L476.152 85.7663C476.44 85.5724 476.728 85.2816 476.92 85.0877C477.113 84.7969 477.305 84.603 477.401 84.3122L476.44 83.6336C476.248 84.1183 475.863 84.506 475.479 84.8938L474.614 83.3428C474.902 83.0519 475.19 82.7611 475.383 82.5672C475.575 82.2764 475.671 81.9856 475.767 81.6948C475.767 81.404 475.767 81.0162 475.575 80.7254C475.19 80.2407 474.806 79.9499 474.325 79.8529ZM473.653 84.506C473.653 84.3122 473.749 84.2152 473.941 84.0213L474.614 85.2816C474.421 85.3785 474.229 85.2816 474.037 85.2816C473.845 85.1846 473.749 85.0877 473.653 84.9907C473.653 84.7969 473.556 84.6999 473.653 84.506ZM474.133 81.404C474.229 81.5009 474.229 81.6948 474.229 81.7917C474.229 81.8887 474.133 82.0825 473.941 82.2764L473.268 81.1131C473.653 80.9193 473.941 81.0162 474.133 81.404Z" fill="#D4E8C1"/>
<path d="M378.21 236.996C376.672 234.282 373.212 233.312 370.521 234.863C367.83 236.414 366.869 239.904 368.406 242.619C369.944 245.333 373.404 246.303 376.096 244.752C378.787 243.201 379.748 239.711 378.21 236.996Z" fill="#89A36F"/>
<path d="M373.791 236.411C373.31 236.315 372.829 236.315 372.253 236.508L371.772 235.539L370.811 236.121L371.292 236.993C370.619 237.478 370.138 238.059 369.85 238.641L370.811 239.319C371.099 238.738 371.484 238.253 371.964 237.865L372.829 239.319C372.541 239.61 372.253 239.901 372.06 240.192C371.868 240.483 371.772 240.773 371.676 241.064C371.676 241.355 371.676 241.743 371.868 242.131C372.157 242.615 372.445 242.906 373.022 243.003C373.502 243.1 374.079 243.1 374.656 242.906L375.136 243.778L376.097 243.197L375.617 242.324C375.905 242.13 376.193 241.84 376.386 241.646C376.578 241.355 376.77 241.161 376.866 240.87L375.905 240.192C375.713 240.677 375.328 241.064 374.944 241.452L374.079 239.901C374.367 239.61 374.656 239.319 374.848 239.126C375.04 238.835 375.136 238.544 375.232 238.253C375.232 237.962 375.232 237.575 375.04 237.284C374.656 236.896 374.271 236.605 373.791 236.411ZM373.118 241.161C373.118 240.967 373.214 240.87 373.406 240.677L374.079 241.937C373.887 242.034 373.694 241.937 373.502 241.937C373.31 241.84 373.214 241.743 373.118 241.646C373.022 241.452 373.022 241.258 373.118 241.161ZM373.598 237.962C373.694 238.059 373.694 238.253 373.694 238.35C373.694 238.447 373.598 238.641 373.406 238.835L372.733 237.672C373.118 237.478 373.406 237.672 373.598 237.962Z" fill="#D4E8C1"/>
<path d="M336.015 161.676C334.478 158.961 331.017 157.992 328.326 159.543C325.635 161.094 324.674 164.584 326.212 167.298C327.75 170.013 331.21 170.982 333.901 169.431C336.592 167.88 337.553 164.39 336.015 161.676Z" fill="#89A36F"/>
<path d="M331.592 161.091C331.112 160.994 330.631 160.994 330.054 161.188L329.574 160.219L328.613 160.8L329.093 161.673C328.421 162.158 327.94 162.739 327.652 163.321L328.613 164C328.901 163.418 329.286 162.933 329.766 162.545L330.631 164C330.343 164.29 330.054 164.581 329.862 164.872C329.67 165.163 329.574 165.454 329.478 165.745C329.478 166.035 329.478 166.423 329.67 166.811C329.958 167.296 330.247 167.586 330.823 167.683C331.304 167.78 331.881 167.78 332.457 167.586L332.938 168.459L333.899 167.877L333.418 167.005C333.707 166.811 333.995 166.52 334.187 166.326C334.38 166.035 334.572 165.841 334.668 165.551L333.707 164.872C333.515 165.357 333.13 165.745 332.746 166.132L331.881 164.581C332.169 164.29 332.457 164 332.65 163.806C332.842 163.515 332.938 163.224 333.034 162.933C333.034 162.642 333.034 162.255 332.842 161.964C332.457 161.479 332.073 161.188 331.592 161.091ZM330.919 165.841C330.919 165.648 331.016 165.551 331.208 165.357L331.881 166.617C331.688 166.714 331.496 166.617 331.304 166.617C331.112 166.52 331.016 166.423 330.919 166.326C330.919 166.132 330.823 165.938 330.919 165.841ZM331.4 162.642C331.496 162.739 331.496 162.933 331.496 163.03C331.496 163.127 331.4 163.321 331.208 163.515L330.535 162.352C330.919 162.158 331.208 162.255 331.4 162.642Z" fill="#D4E8C1"/>
<g opacity="0.75">
<path opacity="0.75" d="M456.359 42.5315L517.461 120.84L378.869 230.844L317.767 152.536L456.359 42.5315Z" fill="#D8D8D8"/>
<path opacity="0.75" d="M454.964 48.6555L510.954 120.413L380.67 223.823L324.68 152.066L454.964 48.6555Z" fill="#D8D8D8" stroke="#D8D8D8" stroke-width="0.14035" stroke-miterlimit="10"/>
<path opacity="0.75" d="M415.806 170.636C396.94 169.518 382.546 153.187 383.654 134.159C384.763 115.132 400.955 100.613 419.82 101.731C438.685 102.85 453.08 119.181 451.972 138.208C450.863 157.236 434.671 171.754 415.806 170.636Z" fill="#D8D8D8"/>
<path opacity="0.75" d="M397.341 136.477C396.956 139.482 397.629 142.585 399.455 145.881L394.457 149.855L398.782 155.381L403.684 151.503C407.337 155.381 411.085 157.707 414.93 158.677L418.101 152.376C414.353 151.309 411.277 149.467 408.682 146.656L416.756 140.258C418.87 141.906 420.793 143.166 422.523 144.039C424.253 144.911 426.079 145.396 428.001 145.396C429.924 145.396 431.942 144.62 433.864 142.972C436.267 141.033 437.709 138.513 437.997 135.411C438.382 132.309 437.709 129.11 435.979 125.911L440.977 121.936L436.652 116.41L431.654 120.385C430.116 118.834 428.386 117.574 426.656 116.507C424.926 115.441 423.196 114.763 421.562 114.472L418.39 120.773C421.658 121.742 424.349 123.196 426.56 125.232L418.294 131.824C416.275 130.176 414.449 129.013 412.815 128.14C411.181 127.268 409.355 126.88 407.433 126.88C405.51 126.88 403.588 127.656 401.666 129.207C399.071 131.049 397.725 133.472 397.341 136.477ZM425.983 136.477C425.022 136.38 424.061 135.993 422.907 135.314L429.731 129.885C430.212 131.049 430.308 132.115 430.116 133.181C429.924 134.151 429.347 135.023 428.482 135.799C427.809 136.283 426.944 136.574 425.983 136.477ZM406.664 136.38C407.337 135.799 408.106 135.605 408.971 135.702C409.836 135.799 410.701 136.186 411.758 136.768L405.318 141.906C404.453 139.676 404.838 137.834 406.664 136.38Z" fill="#D8D8D8"/>
<path opacity="0.75" d="M512.679 116.506C510.757 114.083 507.2 113.598 504.797 115.537C502.395 117.476 501.914 121.062 503.836 123.486C505.759 125.909 509.315 126.394 511.718 124.455C514.121 122.516 514.601 118.93 512.679 116.506Z" fill="#D8D8D8"/>
<path opacity="0.75" d="M508.158 116.602C507.677 116.505 507.196 116.699 506.62 116.99L505.947 116.117L505.082 116.796L505.755 117.571C505.082 118.153 504.697 118.832 504.601 119.413L505.659 119.898C505.851 119.316 506.139 118.735 506.62 118.347L507.677 119.704C507.389 120.092 507.196 120.383 507.1 120.673C506.908 120.964 506.908 121.255 506.908 121.546C506.908 121.837 507.004 122.225 507.293 122.515C507.581 122.903 508.061 123.194 508.542 123.194C509.023 123.291 509.599 123.097 510.08 122.806L510.753 123.679L511.618 123L510.945 122.225C511.233 121.934 511.425 121.643 511.618 121.352C511.81 121.061 511.906 120.77 511.906 120.48L510.849 119.995C510.657 120.577 510.464 120.964 510.08 121.352L509.023 119.995C509.311 119.704 509.503 119.316 509.599 119.122C509.695 118.832 509.791 118.541 509.791 118.25C509.791 117.959 509.695 117.571 509.407 117.28C509.119 116.893 508.638 116.699 508.158 116.602ZM508.158 121.352C508.158 121.158 508.254 121.061 508.35 120.867L509.215 122.031C509.023 122.128 508.83 122.128 508.638 122.128C508.446 122.128 508.35 122.031 508.254 121.837C508.254 121.643 508.158 121.546 508.158 121.352ZM508.158 118.153C508.254 118.25 508.254 118.347 508.254 118.541C508.254 118.638 508.158 118.832 508.061 119.025L507.196 117.959C507.677 117.765 507.965 117.862 508.158 118.153Z" fill="#D8D8D8"/>
<path opacity="0.75" d="M459.621 48.5465C457.698 46.1231 454.142 45.6384 451.739 47.5772C449.336 49.5159 448.856 53.1026 450.778 55.526C452.7 57.9495 456.257 58.4342 458.659 56.4954C461.158 54.5567 461.543 50.97 459.621 48.5465Z" fill="#D8D8D8"/>
<path opacity="0.75" d="M455.106 48.6488C454.625 48.5518 454.144 48.7457 453.568 49.0365L452.895 48.1641L452.03 48.8427L452.703 49.6182C452.03 50.1999 451.645 50.8785 451.549 51.4601L452.607 51.9448C452.799 51.3632 453.087 50.7815 453.568 50.3938L454.625 51.751C454.337 52.1387 454.144 52.4296 454.048 52.7204C453.856 53.0112 453.856 53.302 453.856 53.5929C453.856 53.8837 453.952 54.2715 454.241 54.5623C454.529 54.9501 455.009 55.2409 455.49 55.2409C455.971 55.3378 456.547 55.1439 457.028 54.8531L457.701 55.7256L458.566 55.047L457.893 54.2715C458.181 53.9806 458.373 53.6898 458.566 53.399C458.758 53.1081 458.854 52.8173 458.854 52.5265L457.797 52.0418C457.605 52.6234 457.412 53.0112 457.028 53.399L455.971 52.0418C456.259 51.7509 456.451 51.3632 456.547 51.1693C456.643 50.8785 456.739 50.5876 456.739 50.2968C456.739 50.006 456.643 49.6182 456.355 49.3274C456.067 48.9396 455.586 48.6488 455.106 48.6488ZM455.106 53.399C455.106 53.2051 455.202 53.1081 455.298 52.9143L456.163 54.0776C455.971 54.1745 455.778 54.1745 455.586 54.1745C455.394 54.1745 455.298 54.0776 455.202 53.8837C455.202 53.6898 455.106 53.5929 455.106 53.399ZM455.202 50.1999C455.298 50.2968 455.298 50.3937 455.298 50.5876C455.298 50.6846 455.202 50.8785 455.106 51.0723L454.241 50.006C454.625 49.8121 454.913 49.909 455.202 50.1999Z" fill="#D8D8D8"/>
<path opacity="0.75" d="M383.883 218.68C381.961 216.257 378.405 215.772 376.002 217.711C373.599 219.65 373.118 223.237 375.041 225.66C376.963 228.084 380.519 228.568 382.922 226.629C385.421 224.788 385.805 221.201 383.883 218.68Z" fill="#D8D8D8"/>
<path opacity="0.75" d="M379.365 218.872C378.884 218.775 378.404 218.969 377.827 219.26L377.154 218.388L376.289 219.066L376.962 219.842C376.289 220.423 375.905 221.102 375.809 221.684L376.866 222.168C377.058 221.587 377.346 221.005 377.827 220.617L378.788 222.071C378.5 222.459 378.307 222.75 378.211 223.041C378.019 223.332 378.019 223.622 378.019 223.913C378.019 224.204 378.115 224.592 378.404 224.883C378.692 225.27 379.173 225.561 379.653 225.561C380.134 225.658 380.71 225.464 381.191 225.173L381.864 226.046L382.729 225.367L382.056 224.592C382.344 224.301 382.537 224.01 382.729 223.719C382.921 223.429 383.017 223.138 383.017 222.847L381.96 222.362C381.768 222.944 381.575 223.332 381.191 223.719L380.134 222.362C380.422 222.071 380.614 221.684 380.71 221.49C380.806 221.199 380.903 220.908 380.903 220.617C380.903 220.326 380.806 219.939 380.518 219.648C380.326 219.163 379.845 218.872 379.365 218.872ZM379.365 223.622C379.365 223.429 379.461 223.332 379.557 223.138L380.422 224.301C380.23 224.398 380.038 224.398 379.845 224.398C379.653 224.398 379.557 224.301 379.461 224.107C379.461 223.913 379.365 223.719 379.365 223.622ZM379.365 220.423C379.461 220.52 379.461 220.617 379.461 220.811C379.461 220.908 379.365 221.102 379.269 221.296L378.404 220.23C378.884 220.036 379.173 220.133 379.365 220.423Z" fill="#D8D8D8"/>
<path opacity="0.75" d="M330.826 150.725C328.904 148.302 325.347 147.817 322.945 149.756C320.542 151.695 320.061 155.282 321.983 157.705C323.906 160.129 327.462 160.614 329.865 158.675C332.364 156.736 332.748 153.246 330.826 150.725Z" fill="#D8D8D8"/>
<path opacity="0.75" d="M326.309 150.821C325.828 150.724 325.348 150.918 324.771 151.208L324.098 150.336L323.233 151.014L323.906 151.79C323.233 152.372 322.849 153.05 322.753 153.632L323.81 154.116C324.002 153.535 324.291 152.953 324.771 152.565L325.828 153.923C325.54 154.31 325.348 154.601 325.252 154.892C325.06 155.183 325.06 155.474 325.06 155.764C325.06 156.055 325.156 156.443 325.444 156.734C325.732 157.121 326.213 157.412 326.693 157.412C327.174 157.509 327.751 157.315 328.231 157.024L328.904 157.897L329.769 157.218L329.096 156.443C329.385 156.152 329.577 155.861 329.769 155.57C329.961 155.28 330.057 154.989 330.057 154.698L329 154.213C328.808 154.795 328.616 155.183 328.231 155.57L327.174 154.213C327.462 153.923 327.655 153.535 327.751 153.341C327.847 153.05 327.943 152.759 327.943 152.469C327.943 152.178 327.847 151.79 327.559 151.499C327.27 151.111 326.79 150.918 326.309 150.821ZM326.309 155.57C326.309 155.377 326.405 155.28 326.501 155.086L327.366 156.249C327.174 156.346 326.982 156.346 326.79 156.346C326.597 156.346 326.501 156.249 326.405 156.055C326.405 155.861 326.309 155.764 326.309 155.57ZM326.405 152.372C326.501 152.469 326.501 152.565 326.501 152.759C326.501 152.856 326.405 153.05 326.309 153.244L325.444 152.178C325.828 151.984 326.117 152.081 326.405 152.372Z" fill="#D8D8D8"/>
</g>
<path d="M455.395 37.6834L516.497 115.992L377.905 225.997L316.803 147.688L455.395 37.6834Z" fill="#89A36F"/>
<path d="M454 43.8081L509.99 115.565L379.706 218.975L323.716 147.218L454 43.8081Z" fill="#D4E8C1" stroke="#6F8757" stroke-width="0.14035" stroke-miterlimit="10"/>
<path d="M414.841 165.795C395.976 164.675 381.582 148.343 382.692 129.316C383.802 110.288 399.995 95.7708 418.86 96.8902C437.725 98.0096 452.119 114.342 451.009 133.369C449.899 152.397 433.706 166.914 414.841 165.795Z" fill="#89A36F"/>
<path d="M396.377 131.623C395.992 134.629 396.665 137.731 398.491 141.027L393.493 145.001L397.819 150.527L402.72 146.649C406.373 150.527 410.121 152.853 413.966 153.823L417.138 147.522C413.389 146.455 410.313 144.613 407.718 141.802L415.792 135.404C417.907 137.052 419.829 138.312 421.559 139.185C423.289 140.057 425.115 140.542 427.037 140.542C428.96 140.542 430.978 139.766 432.9 138.118C435.303 136.18 436.745 133.659 437.033 130.557C437.418 127.455 436.745 124.256 435.015 121.057L440.013 117.083L435.688 111.557L430.69 115.531C429.152 113.98 427.422 112.72 425.692 111.654C423.962 110.588 422.232 109.909 420.598 109.618L417.426 115.919C420.694 116.889 423.385 118.343 425.596 120.378L417.33 126.97C415.311 125.322 413.485 124.159 411.851 123.287C410.217 122.414 408.391 122.026 406.469 122.026C404.547 122.026 402.624 122.802 400.702 124.353C398.107 126.195 396.761 128.618 396.377 131.623ZM425.019 131.623C424.058 131.526 423.097 131.139 421.943 130.46L428.767 125.032C429.248 126.195 429.344 127.261 429.152 128.327C428.96 129.297 428.383 130.169 427.518 130.945C426.845 131.43 425.98 131.72 425.019 131.623ZM405.7 131.527C406.373 130.945 407.142 130.751 408.007 130.848C408.872 130.945 409.737 131.333 410.794 131.914L404.354 137.052C403.489 134.822 403.874 132.981 405.7 131.527Z" fill="#D4E8C1"/>
<path d="M511.715 111.658C509.793 109.234 506.236 108.75 503.834 110.689C501.431 112.627 500.95 116.214 502.872 118.638C504.795 121.061 508.351 121.546 510.754 119.607C513.156 117.668 513.637 114.081 511.715 111.658Z" fill="#89A36F"/>
<path d="M507.198 111.752C506.717 111.655 506.237 111.849 505.66 112.14L504.987 111.268L504.122 111.946L504.795 112.722C504.122 113.303 503.738 113.982 503.642 114.564L504.699 115.049C504.891 114.467 505.179 113.885 505.66 113.497L506.717 114.855C506.429 115.242 506.237 115.533 506.141 115.824C505.948 116.115 505.948 116.406 505.948 116.697C505.948 116.987 506.044 117.375 506.333 117.666C506.621 118.054 507.102 118.345 507.582 118.345C508.063 118.442 508.64 118.248 509.12 117.957L509.793 118.829L510.658 118.151L509.985 117.375C510.273 117.084 510.466 116.794 510.658 116.503C510.85 116.212 510.946 115.921 510.946 115.63L509.889 115.145C509.697 115.727 509.505 116.115 509.12 116.503L508.063 115.145C508.351 114.855 508.543 114.467 508.64 114.273C508.736 113.982 508.832 113.691 508.832 113.4C508.832 113.11 508.736 112.722 508.447 112.431C508.159 112.043 507.678 111.849 507.198 111.752ZM507.198 116.503C507.198 116.309 507.294 116.212 507.39 116.018L508.255 117.181C508.063 117.278 507.871 117.278 507.678 117.278C507.486 117.278 507.39 117.181 507.294 116.987C507.294 116.794 507.198 116.697 507.198 116.503ZM507.198 113.303C507.294 113.4 507.294 113.497 507.294 113.691C507.294 113.788 507.198 113.982 507.102 114.176L506.237 113.11C506.717 112.916 507.006 113.013 507.198 113.303Z" fill="#D4E8C1"/>
<path d="M458.657 43.7009C456.734 41.2774 453.178 40.7927 450.775 42.7315C448.372 44.6703 447.892 48.2571 449.814 50.6806C451.736 53.1041 455.293 53.5888 457.696 51.65C460.195 49.7112 460.579 46.1244 458.657 43.7009Z" fill="#89A36F"/>
<path d="M454.135 43.7933C453.655 43.6963 453.174 43.8902 452.598 44.181L451.925 43.3086L451.06 43.9872L451.733 44.7627C451.06 45.3443 450.675 46.0229 450.579 46.6045L451.636 47.0892C451.829 46.5076 452.117 45.9259 452.598 45.5382L453.655 46.8953C453.367 47.2831 453.174 47.5739 453.078 47.8647C452.886 48.1555 452.886 48.4464 452.886 48.7372C452.886 49.028 452.982 49.4157 453.27 49.7066C453.559 50.0943 454.039 50.3851 454.52 50.3851C455.001 50.4821 455.577 50.2882 456.058 49.9974L456.731 50.8698L457.596 50.1913L456.923 49.4158C457.211 49.1249 457.403 48.8341 457.596 48.5433C457.788 48.2525 457.884 47.9617 457.884 47.6708L456.827 47.1862C456.635 47.7678 456.442 48.1555 456.058 48.5433L455.001 47.1862C455.289 46.8953 455.481 46.5076 455.577 46.3137C455.673 46.0229 455.769 45.7321 455.769 45.4413C455.769 45.1504 455.673 44.7627 455.385 44.4719C455.097 44.0841 454.616 43.7933 454.135 43.7933ZM454.135 48.5433C454.135 48.3494 454.232 48.2525 454.328 48.0586L455.193 49.2219C455.001 49.3188 454.808 49.3188 454.616 49.3188C454.424 49.3188 454.328 49.2219 454.232 49.028C454.232 48.8341 454.135 48.7372 454.135 48.5433ZM454.232 45.3443C454.328 45.4412 454.328 45.5382 454.328 45.7321C454.328 45.829 454.232 46.0229 454.135 46.2168L453.27 45.1504C453.655 44.9566 453.943 45.0535 454.232 45.3443Z" fill="#D4E8C1"/>
<path d="M382.921 213.835C380.999 211.411 377.443 210.926 375.04 212.865C372.637 214.804 372.156 218.391 374.079 220.814C376.001 223.238 379.557 223.723 381.96 221.784C384.459 219.942 384.843 216.355 382.921 213.835Z" fill="#89A36F"/>
<path d="M378.404 214.026C377.923 213.929 377.443 214.123 376.866 214.413L376.193 213.541L375.328 214.22L376.001 214.995C375.328 215.577 374.944 216.255 374.848 216.837L375.905 217.322C376.097 216.74 376.385 216.158 376.866 215.771L377.827 217.225C377.539 217.612 377.347 217.903 377.25 218.194C377.058 218.485 377.058 218.776 377.058 219.067C377.058 219.357 377.154 219.745 377.443 220.036C377.731 220.424 378.212 220.715 378.692 220.715C379.173 220.811 379.749 220.618 380.23 220.327L380.903 221.199L381.768 220.521L381.095 219.745C381.383 219.454 381.576 219.164 381.768 218.873C381.96 218.582 382.056 218.291 382.056 218L380.999 217.516C380.807 218.097 380.614 218.485 380.23 218.873L379.173 217.516C379.461 217.225 379.653 216.837 379.749 216.643C379.846 216.352 379.942 216.061 379.942 215.771C379.942 215.48 379.846 215.092 379.557 214.801C379.365 214.317 378.884 214.026 378.404 214.026ZM378.404 218.776C378.404 218.582 378.5 218.485 378.596 218.291L379.461 219.454C379.269 219.551 379.077 219.551 378.884 219.551C378.692 219.551 378.596 219.454 378.5 219.26C378.5 219.067 378.404 218.873 378.404 218.776ZM378.404 215.577C378.5 215.674 378.5 215.771 378.5 215.965C378.5 216.061 378.404 216.255 378.308 216.449L377.443 215.383C377.923 215.189 378.212 215.286 378.404 215.577Z" fill="#D4E8C1"/>
<path d="M329.862 145.878C327.94 143.454 324.383 142.969 321.981 144.908C319.578 146.847 319.097 150.434 321.019 152.857C322.942 155.281 326.498 155.765 328.901 153.826C331.4 151.888 331.784 148.398 329.862 145.878Z" fill="#89A36F"/>
<path d="M325.346 145.972C324.865 145.875 324.385 146.069 323.808 146.36L323.135 145.487L322.27 146.166L322.943 146.941C322.27 147.523 321.886 148.202 321.79 148.783L322.847 149.268C323.039 148.686 323.327 148.105 323.808 147.717L324.865 149.074C324.577 149.462 324.385 149.753 324.289 150.044C324.096 150.334 324.096 150.625 324.096 150.916C324.096 151.207 324.192 151.595 324.481 151.886C324.769 152.273 325.25 152.564 325.73 152.564C326.211 152.661 326.787 152.467 327.268 152.176L327.941 153.049L328.806 152.37L328.133 151.595C328.421 151.304 328.614 151.013 328.806 150.722C328.998 150.431 329.094 150.141 329.094 149.85L328.037 149.365C327.845 149.947 327.653 150.334 327.268 150.722L326.211 149.365C326.499 149.074 326.691 148.686 326.787 148.493C326.884 148.202 326.98 147.911 326.98 147.62C326.98 147.329 326.884 146.941 326.595 146.651C326.307 146.263 325.826 146.069 325.346 145.972ZM325.346 150.722C325.346 150.528 325.442 150.431 325.538 150.238L326.403 151.401C326.211 151.498 326.019 151.498 325.826 151.498C325.634 151.498 325.538 151.401 325.442 151.207C325.442 151.013 325.346 150.916 325.346 150.722ZM325.442 147.523C325.538 147.62 325.538 147.717 325.538 147.911C325.538 148.008 325.442 148.202 325.346 148.396L324.481 147.329C324.865 147.135 325.154 147.232 325.442 147.523Z" fill="#D4E8C1"/>
<g opacity="0.75">
<path opacity="0.75" d="M403.977 5.34374L482.389 65.9736L375.085 207.144L296.673 146.514L403.977 5.34374Z" fill="#D8D8D8"/>
<path opacity="0.75" d="M404.054 11.6082L475.906 67.166L375.035 199.874L303.182 144.316L404.054 11.6082Z" fill="#D8D8D8" stroke="#D8D8D8" stroke-width="0.14035" stroke-miterlimit="10"/>
<path opacity="0.75" d="M360.736 124.239C350.619 108.141 355.355 86.8186 371.316 76.614C387.277 66.4093 408.418 71.1868 418.536 87.2847C428.653 103.383 423.916 124.705 407.956 134.91C391.995 145.114 370.854 140.337 360.736 124.239Z" fill="#D8D8D8"/>
<path opacity="0.75" d="M369.853 111.173C370.238 114.178 371.679 116.989 374.178 119.704L370.238 124.841L375.716 129.107L379.465 124.163C383.886 126.974 388.115 128.331 392.152 128.331L393.69 121.449C389.845 121.352 386.289 120.285 383.117 118.25L389.365 110.107C391.864 111.173 393.978 111.851 395.804 112.336C397.63 112.724 399.553 112.724 401.379 112.239C403.301 111.755 404.935 110.494 406.473 108.459C408.299 106.035 409.068 103.224 408.684 100.122C408.299 97.0196 406.858 94.1114 404.359 91.3971L408.203 86.3562L402.725 82.0908L398.88 87.1317C396.958 86.0654 395.035 85.1929 393.017 84.6113C390.999 84.0296 389.268 83.8357 387.634 83.9327L386.097 90.8154C389.461 90.9124 392.44 91.6879 395.131 93.0451L388.692 101.479C386.385 100.413 384.27 99.7339 382.444 99.2492C380.618 98.8615 378.792 98.8615 376.966 99.3462C375.14 99.8309 373.506 101.091 371.968 103.03C370.238 105.356 369.469 108.168 369.853 111.173ZM397.63 103.902C396.669 103.999 395.612 103.902 394.363 103.515L399.649 96.5349C400.418 97.5043 400.802 98.5707 400.898 99.637C400.994 100.703 400.61 101.673 399.937 102.545C399.361 103.321 398.592 103.805 397.63 103.902ZM378.888 108.652C379.465 107.974 380.138 107.586 380.906 107.489C381.771 107.392 382.733 107.489 383.886 107.78L378.888 114.275C377.542 112.433 377.446 110.494 378.888 108.652Z" fill="#D8D8D8"/>
<path opacity="0.75" d="M473.271 73.1726C470.139 73.1726 467.6 70.6118 467.6 67.453C467.6 64.2941 470.139 61.7334 473.271 61.7334C476.403 61.7334 478.942 64.2941 478.942 67.453C478.942 70.6118 476.403 73.1726 473.271 73.1726Z" fill="#D8D8D8"/>
<path opacity="0.75" d="M472.406 64.1562C471.926 64.2532 471.445 64.4471 470.965 64.8348L470.1 64.1562L469.427 65.0287L470.196 65.6103C469.715 66.3857 469.523 67.0643 469.523 67.7428L470.676 68.0336C470.676 67.3551 470.869 66.7735 471.157 66.2888L472.503 67.3551C472.31 67.7428 472.214 68.1306 472.118 68.4214C472.022 68.7122 472.022 69.003 472.118 69.3907C472.214 69.6815 472.406 69.9723 472.695 70.2631C473.079 70.5539 473.56 70.6509 474.04 70.6509C474.521 70.5539 475.002 70.3601 475.482 69.9723L476.347 70.6509L477.02 69.7785L476.155 69.0999C476.347 68.8091 476.443 68.4214 476.539 68.1306C476.635 67.8398 476.635 67.549 476.635 67.2582L475.482 66.9674C475.482 67.549 475.386 68.0336 475.098 68.4214L473.752 67.3551C473.944 66.9674 474.04 66.5796 474.136 66.2888C474.233 65.998 474.233 65.7072 474.136 65.4164C474.04 65.1256 473.848 64.8348 473.56 64.544C473.271 64.2532 472.887 64.1562 472.406 64.1562ZM473.56 68.8091C473.56 68.6152 473.56 68.5183 473.656 68.2275L474.809 69.0999C474.617 69.1968 474.521 69.2938 474.329 69.2938C474.136 69.2938 474.04 69.2938 473.848 69.0999C473.656 69.0999 473.56 68.906 473.56 68.8091ZM472.791 65.7072C472.887 65.8041 472.983 65.9011 472.983 65.998C472.983 66.0949 472.983 66.2888 472.887 66.4827L471.83 65.6103C472.214 65.4164 472.503 65.4164 472.791 65.7072Z" fill="#D8D8D8"/>
<path opacity="0.75" d="M405.127 20.5271C401.995 20.5271 399.456 17.9663 399.456 14.8075C399.456 11.6486 401.995 9.08789 405.127 9.08789C408.258 9.08789 410.797 11.6486 410.797 14.8075C410.797 17.9663 408.258 20.5271 405.127 20.5271Z" fill="#D8D8D8"/>
<path opacity="0.75" d="M404.26 11.5166C403.78 11.6135 403.299 11.8074 402.819 12.1952L401.954 11.5166L401.281 12.3891L402.05 12.9708C401.569 13.7463 401.377 14.4249 401.377 15.1035L402.53 15.3943C402.53 14.7157 402.722 14.1341 403.011 13.6494L404.356 14.7157C404.164 15.1035 404.068 15.4913 403.972 15.7821C403.876 16.073 403.876 16.3638 403.972 16.7516C404.068 17.0424 404.26 17.3332 404.549 17.6241C404.933 17.9149 405.414 18.0118 405.894 18.0118C406.375 17.9149 406.855 17.721 407.336 17.3332L408.201 18.0118L408.874 17.1393L408.009 16.4607C408.201 16.1699 408.297 15.7821 408.393 15.4913C408.489 15.2005 408.489 14.9096 408.489 14.6188L407.336 14.328C407.336 14.9096 407.24 15.3943 406.952 15.7821L405.606 14.7157C405.798 14.328 405.894 13.9402 405.99 13.6494C406.087 13.3585 406.087 13.0677 405.99 12.7769C405.894 12.486 405.702 12.1952 405.414 11.9044C405.221 11.6135 404.741 11.5166 404.26 11.5166ZM405.51 16.1699C405.51 15.976 405.51 15.8791 405.606 15.5882L406.759 16.4607C406.567 16.5577 406.471 16.6546 406.279 16.6546C406.087 16.6546 405.99 16.6546 405.798 16.4607C405.606 16.4607 405.51 16.2668 405.51 16.1699ZM404.645 13.0677C404.741 13.1646 404.837 13.2616 404.837 13.3585C404.837 13.4555 404.837 13.6494 404.741 13.8433L403.684 12.9708C404.068 12.7769 404.356 12.7769 404.645 13.0677Z" fill="#D8D8D8"/>
<path opacity="0.75" d="M373.506 204.328C370.374 204.328 367.835 201.767 367.835 198.608C367.835 195.449 370.374 192.889 373.506 192.889C376.638 192.889 379.177 195.449 379.177 198.608C379.177 201.767 376.638 204.328 373.506 204.328Z" fill="#D8D8D8"/>
<path opacity="0.75" d="M372.64 195.309C372.16 195.406 371.679 195.599 371.198 195.987L370.333 195.309L369.661 196.181L370.43 196.763C369.949 197.538 369.757 198.217 369.757 198.895L370.91 199.186C370.91 198.508 371.102 197.926 371.391 197.441L372.736 198.508C372.544 198.895 372.448 199.283 372.352 199.574C372.256 199.865 372.256 200.156 372.352 200.543C372.448 200.834 372.64 201.125 372.929 201.416C373.313 201.707 373.794 201.804 374.274 201.804C374.755 201.707 375.235 201.513 375.716 201.125L376.581 201.804L377.254 200.931L376.389 200.252C376.581 199.962 376.677 199.574 376.773 199.283C376.869 198.992 376.869 198.701 376.869 198.411L375.716 198.12C375.716 198.701 375.62 199.186 375.331 199.574L373.986 198.508C374.178 198.12 374.274 197.732 374.37 197.441C374.466 197.15 374.466 196.86 374.37 196.569C374.274 196.278 374.082 195.987 373.794 195.696C373.601 195.406 373.121 195.309 372.64 195.309ZM373.89 199.962C373.89 199.768 373.89 199.671 373.986 199.38L375.139 200.252C374.947 200.349 374.851 200.446 374.659 200.446C374.466 200.446 374.37 200.446 374.178 200.252C373.986 200.252 373.89 200.156 373.89 199.962ZM373.025 196.86C373.121 196.957 373.217 197.054 373.217 197.15C373.217 197.247 373.217 197.441 373.121 197.635L372.064 196.763C372.448 196.666 372.736 196.666 373.025 196.86Z" fill="#D8D8D8"/>
<path opacity="0.75" d="M308.916 141.51C306.417 139.571 302.86 140.056 301.034 142.576C299.112 145.096 299.593 148.683 302.091 150.524C304.59 152.463 308.147 151.978 309.973 149.458C311.799 146.938 311.318 143.448 308.916 141.51Z" fill="#D8D8D8"/>
<path opacity="0.75" d="M304.591 142.674C304.111 142.771 303.63 142.965 303.149 143.352L302.284 142.674L301.612 143.546L302.38 144.128C301.9 144.903 301.708 145.582 301.708 146.26L302.861 146.551C302.861 145.873 303.053 145.291 303.342 144.806L304.687 145.873C304.495 146.26 304.399 146.648 304.303 146.939C304.207 147.23 304.207 147.521 304.303 147.908C304.399 148.199 304.591 148.49 304.879 148.781C305.264 149.072 305.745 149.168 306.225 149.168C306.706 149.072 307.186 148.878 307.667 148.49L308.532 149.168L309.205 148.296L308.34 147.617C308.532 147.327 308.628 146.939 308.724 146.648C308.82 146.357 308.82 146.067 308.82 145.776L307.667 145.485C307.667 146.067 307.571 146.551 307.282 146.939L305.937 145.873C306.129 145.485 306.225 145.097 306.321 144.806C306.417 144.516 306.417 144.225 306.321 143.934C306.225 143.643 306.033 143.352 305.745 143.062C305.552 142.771 305.072 142.674 304.591 142.674ZM305.745 147.327C305.745 147.133 305.745 147.036 305.841 146.745L306.994 147.617C306.802 147.714 306.706 147.811 306.513 147.811C306.321 147.811 306.225 147.811 306.033 147.617C305.841 147.617 305.745 147.521 305.745 147.327ZM304.976 144.225C305.072 144.322 305.168 144.419 305.168 144.516C305.168 144.613 305.168 144.806 305.072 145L304.014 144.128C304.399 144.031 304.687 144.031 304.976 144.225Z" fill="#D8D8D8"/>
</g>
<path d="M403.013 0.499892L481.425 61.1299L374.121 202.3L295.709 141.67L403.013 0.499892Z" fill="#89A36F"/>
<path d="M403.09 6.76452L474.943 62.3223L374.071 195.03L302.218 139.472L403.09 6.76452Z" fill="#D4E8C1" stroke="#6F8757" stroke-width="0.14035" stroke-miterlimit="10"/>
<path d="M359.776 119.401C349.658 103.303 354.395 81.9808 370.355 71.7762C386.316 61.5716 407.457 66.3491 417.575 82.4469C427.692 98.5448 422.956 119.867 406.995 130.072C391.034 140.276 369.893 135.499 359.776 119.401Z" fill="#89A36F"/>
<path d="M368.892 106.327C369.277 109.332 370.718 112.144 373.217 114.858L369.277 119.996L374.755 124.261L378.504 119.317C382.925 122.128 387.154 123.486 391.191 123.486L392.729 116.603C388.884 116.506 385.328 115.44 382.156 113.404L388.404 105.261C390.903 106.327 393.017 107.006 394.843 107.49C396.67 107.878 398.592 107.878 400.418 107.394C402.34 106.909 403.974 105.649 405.512 103.613C407.338 101.189 408.107 98.3781 407.723 95.276C407.338 92.1739 405.897 89.2657 403.398 86.5514L407.242 81.5105L401.764 77.2451L397.919 82.286C395.997 81.2197 394.074 80.3472 392.056 79.7656C390.038 79.1839 388.308 78.99 386.674 79.087L385.136 85.9697C388.5 86.0667 391.479 86.8422 394.171 88.1994L387.731 96.6332C385.424 95.5668 383.31 94.8882 381.483 94.4035C379.657 94.0158 377.831 94.0158 376.005 94.5005C374.179 94.9852 372.545 96.2454 371.007 98.1842C369.277 100.511 368.508 103.322 368.892 106.327ZM396.67 99.0567C395.708 99.1536 394.651 99.0567 393.402 98.6689L398.688 91.6892C399.457 92.6586 399.841 93.725 399.937 94.7913C400.034 95.8576 399.649 96.827 398.976 97.6995C398.4 98.475 397.631 98.9597 396.67 99.0567ZM377.927 103.807C378.504 103.128 379.177 102.74 379.946 102.643C380.811 102.547 381.772 102.643 382.925 102.934L377.927 109.429C376.581 107.587 376.485 105.649 377.927 103.807Z" fill="#D4E8C1"/>
<path d="M472.307 68.3278C469.175 68.3278 466.636 65.7671 466.636 62.6083C466.636 59.4494 469.175 56.8887 472.307 56.8887C475.439 56.8887 477.978 59.4494 477.978 62.6083C477.978 65.7671 475.439 68.3278 472.307 68.3278Z" fill="#89A36F"/>
<path d="M471.445 59.3086C470.964 59.4055 470.484 59.5994 470.003 59.9872L469.138 59.3086L468.465 60.1811L469.234 60.7627C468.754 61.5383 468.562 62.2169 468.562 62.8955L469.715 63.1863C469.715 62.5077 469.907 61.9261 470.196 61.4414L471.541 62.5077C471.349 62.8955 471.253 63.2833 471.157 63.5741C471.061 63.8649 471.061 64.1558 471.157 64.5436C471.253 64.8344 471.445 65.1252 471.733 65.416C472.118 65.7069 472.598 65.8038 473.079 65.8038C473.56 65.7069 474.04 65.513 474.521 65.1252L475.386 65.8038L476.058 64.9313L475.193 64.2527C475.386 63.9619 475.482 63.5741 475.578 63.2833C475.866 62.8955 475.866 62.6047 475.866 62.3138L474.713 62.023C474.713 62.6047 474.617 63.0894 474.328 63.4772L472.983 62.4108C473.175 62.023 473.271 61.6352 473.367 61.3444C473.463 61.0536 473.463 60.7628 473.367 60.4719C473.271 60.1811 473.079 59.8903 472.791 59.5994C472.31 59.4055 471.926 59.3086 471.445 59.3086ZM472.598 63.9619C472.598 63.768 472.598 63.6711 472.694 63.3802L473.848 64.2527C473.656 64.3497 473.56 64.4466 473.367 64.4466C473.175 64.4466 473.079 64.4466 472.887 64.2527C472.694 64.2527 472.598 64.0588 472.598 63.9619ZM471.829 60.8597C471.926 60.9566 472.022 61.0536 472.022 61.1505C472.022 61.2475 472.022 61.4414 471.926 61.6352L470.868 60.7627C471.253 60.5689 471.541 60.5689 471.829 60.8597Z" fill="#D4E8C1"/>
<path d="M404.162 15.6843C401.03 15.6843 398.491 13.1238 398.491 9.96522C398.491 6.80663 401.03 4.24609 404.162 4.24609C407.294 4.24609 409.833 6.80663 409.833 9.96522C409.833 13.1238 407.294 15.6843 404.162 15.6843Z" fill="#89A36F"/>
<path d="M403.299 6.66602C402.819 6.76295 402.338 6.95683 401.858 7.34459L400.993 6.66602L400.32 7.53847L401.089 8.1201C400.608 8.89561 400.416 9.57419 400.416 10.2528L401.569 10.5436C401.569 9.86501 401.761 9.28337 402.05 8.79868L403.395 9.865C403.203 10.2528 403.107 10.6405 403.011 10.9313C402.915 11.2222 402.915 11.513 403.011 11.9007C403.107 12.1915 403.299 12.4824 403.588 12.7732C403.972 13.064 404.453 13.1609 404.933 13.1609C405.414 13.064 405.894 12.8701 406.375 12.4824L407.24 13.1609L407.913 12.2885L407.048 11.6099C407.24 11.3191 407.336 10.9313 407.432 10.6405C407.528 10.3497 407.528 10.0589 407.528 9.76807L406.375 9.47725C406.375 10.0589 406.279 10.5436 405.991 10.9313L404.645 9.865C404.837 9.47725 404.933 9.08949 405.029 8.79868C405.125 8.50786 405.125 8.21704 405.029 7.92622C404.933 7.63541 404.741 7.34459 404.453 7.05377C404.26 6.76296 403.78 6.66602 403.299 6.66602ZM404.549 11.3191C404.549 11.1252 404.549 11.0283 404.645 10.7375L405.798 11.6099C405.606 11.7068 405.51 11.8038 405.318 11.8038C405.125 11.8038 405.029 11.8038 404.837 11.6099C404.645 11.6099 404.549 11.416 404.549 11.3191ZM403.684 8.21704C403.78 8.31398 403.876 8.41092 403.876 8.50786C403.876 8.6048 403.876 8.79868 403.78 8.99255L402.723 8.1201C403.107 7.92622 403.395 7.92623 403.684 8.21704Z" fill="#D4E8C1"/>
<path d="M372.542 199.483C369.41 199.483 366.871 196.922 366.871 193.764C366.871 190.605 369.41 188.044 372.542 188.044C375.674 188.044 378.213 190.605 378.213 193.764C378.213 196.922 375.674 199.483 372.542 199.483Z" fill="#89A36F"/>
<path d="M371.676 190.465C371.196 190.562 370.715 190.756 370.235 191.143L369.37 190.465L368.697 191.337L369.466 191.919C368.985 192.694 368.793 193.373 368.793 194.052L369.946 194.342C369.946 193.664 370.138 193.082 370.427 192.598L371.772 193.664C371.58 194.052 371.484 194.439 371.388 194.73C371.292 195.021 371.292 195.312 371.388 195.7C371.484 195.99 371.676 196.281 371.965 196.572C372.349 196.863 372.83 196.96 373.31 196.96C373.791 196.863 374.271 196.669 374.752 196.281L375.617 196.96L376.29 196.087L375.425 195.409C375.617 195.118 375.713 194.73 375.809 194.439C375.905 194.149 375.905 193.858 375.905 193.567L374.752 193.276C374.752 193.858 374.656 194.342 374.368 194.73L373.022 193.664C373.214 193.276 373.31 192.888 373.406 192.598C373.503 192.307 373.503 192.016 373.406 191.725C373.31 191.434 373.118 191.143 372.83 190.853C372.638 190.562 372.157 190.465 371.676 190.465ZM372.926 195.118C372.926 194.924 372.926 194.827 373.022 194.536L374.175 195.409C373.983 195.506 373.887 195.603 373.695 195.603C373.503 195.603 373.406 195.603 373.214 195.409C373.022 195.409 372.926 195.312 372.926 195.118ZM372.061 192.016C372.157 192.113 372.253 192.21 372.253 192.307C372.253 192.404 372.253 192.598 372.157 192.791L371.1 191.919C371.484 191.822 371.772 191.822 372.061 192.016Z" fill="#D4E8C1"/>
<path d="M307.952 136.667C305.453 134.728 301.897 135.213 300.07 137.733C298.148 140.254 298.629 143.841 301.128 145.683C303.627 147.622 307.183 147.137 309.009 144.617C310.835 142.096 310.355 138.606 307.952 136.667Z" fill="#89A36F"/>
<path d="M303.624 137.829C303.144 137.926 302.663 138.12 302.183 138.508L301.318 137.829L300.645 138.702L301.414 139.283C300.933 140.059 300.741 140.737 300.741 141.416L301.894 141.706C301.894 141.028 302.086 140.446 302.375 139.962L303.72 141.028C303.528 141.416 303.432 141.803 303.336 142.094C303.24 142.385 303.24 142.676 303.336 143.064C303.432 143.354 303.624 143.645 303.913 143.936C304.297 144.227 304.778 144.324 305.258 144.324C305.739 144.227 306.219 144.033 306.7 143.645L307.565 144.324L308.238 143.451L307.373 142.773C307.565 142.482 307.661 142.094 307.757 141.803C307.853 141.513 307.853 141.222 307.853 140.931L306.7 140.64C306.7 141.222 306.604 141.706 306.316 142.094L304.97 141.028C305.162 140.64 305.258 140.252 305.354 139.962C305.451 139.671 305.451 139.38 305.354 139.089C305.258 138.798 305.066 138.508 304.778 138.217C304.586 137.926 304.105 137.829 303.624 137.829ZM304.778 142.482C304.778 142.288 304.778 142.191 304.874 141.9L306.027 142.773C305.835 142.87 305.739 142.967 305.547 142.967C305.354 142.967 305.258 142.967 305.066 142.773C304.874 142.773 304.778 142.676 304.778 142.482ZM304.009 139.38C304.105 139.477 304.201 139.574 304.201 139.671C304.201 139.768 304.201 139.962 304.105 140.156L303.048 139.283C303.432 139.186 303.72 139.186 304.009 139.38Z" fill="#D4E8C1"/>
<path d="M447.978 94.8841V349.516C447.978 361.75 437.986 371.5 425.881 371.5H39.0965C26.7993 371.5 17 361.559 17 349.516V94.8841C17 82.6496 26.9915 72.9002 39.0965 72.9002H425.689C437.986 72.709 447.978 82.6496 447.978 94.8841Z" fill="#25313C"/>
<path d="M49.4183 82.1698L49.4183 362.227H409.303V82.1698H49.4183Z" fill="white"/>
<rect x="210.965" y="129.48" width="144.97" height="1.91165" rx="0.955825" fill="#8F8FEB" fill-opacity="0.18"/>
<rect x="210.868" y="147.094" width="144.97" height="1.91165" rx="0.955823" fill="#8F8FEB" fill-opacity="0.18"/>
<rect x="210.868" y="165.537" width="144.97" height="1.91165" rx="0.955823" fill="#8F8FEB" fill-opacity="0.18"/>
<rect x="61.4615" y="264.147" width="114.44" height="1.91162" rx="0.955811" fill="#8F8FEB" fill-opacity="0.18"/>
<rect x="61.3843" y="281.762" width="114.44" height="1.91164" rx="0.955819" fill="#8F8FEB" fill-opacity="0.18"/>
<rect x="61.3843" y="298.292" width="114.44" height="1.91165" rx="0.955827" fill="#8F8FEB" fill-opacity="0.18"/>
<rect x="211.263" y="262.236" width="144.575" height="1.91165" rx="0.955827" fill="#8F8FEB" fill-opacity="0.18"/>
<rect x="211.166" y="279.851" width="144.575" height="1.91165" rx="0.955827" fill="#8F8FEB" fill-opacity="0.18"/>
<rect x="211.166" y="298.293" width="144.575" height="1.91165" rx="0.955827" fill="#8F8FEB" fill-opacity="0.18"/>
<rect x="210.963" y="179.129" width="144.97" height="1.91165" rx="0.955827" fill="#8F8FEB" fill-opacity="0.18"/>
<rect x="61.4589" y="319.482" width="114.44" height="1.91164" rx="0.955819" fill="#8F8FEB" fill-opacity="0.18"/>
<rect x="211.893" y="319.482" width="144.575" height="1.91162" rx="0.955811" fill="#8F8FEB" fill-opacity="0.18"/>
<path d="M426.265 210.73C432.606 210.73 437.794 215.892 437.794 222.2C437.794 228.509 432.606 233.67 426.265 233.67C419.925 233.67 414.737 228.509 414.737 222.2C414.737 215.892 419.925 210.73 426.265 210.73Z" fill="#6D7D8B"/>
<path d="M34.1011 179.571V265.022C34.1011 266.36 33.1403 267.316 31.7953 267.316C30.4503 267.316 29.4896 266.36 29.4896 265.022V179.571C29.4896 178.233 30.4503 177.277 31.7953 177.277C32.9482 177.086 34.1011 178.233 34.1011 179.571Z" fill="#6D7D8B"/>
<path d="M325.006 103.296H210.488V110.942H325.006V103.296Z" fill="#25313C"/>
<path d="M175.903 234.244H61.3855V241.891H175.903V234.244Z" fill="#25313C"/>
<rect x="211.166" y="201.653" width="146.029" height="21.0281" rx="0.892056" fill="#8F8FEB"/>
<path d="M269.34 213.107C269.341 212.662 269.126 212.36 268.877 212.151C268.611 211.928 268.216 211.799 268.053 211.748C267.864 211.683 267.426 211.554 267.169 211.467C266.902 211.381 266.567 211.266 266.568 210.964C266.568 210.662 266.895 210.519 267.342 210.52C267.789 210.52 268.321 210.736 268.664 211.024L269.259 210.213C268.855 209.875 268.065 209.601 267.378 209.6C266.69 209.6 266.149 209.757 265.813 209.994C265.469 210.23 265.194 210.603 265.193 211.077C265.192 211.544 265.398 211.832 265.655 212.033C265.913 212.241 266.213 212.335 266.359 212.393C266.557 212.465 267.004 212.595 267.261 212.674C267.519 212.753 267.957 212.883 267.956 213.22C267.956 213.551 267.612 213.73 267.165 213.729C266.71 213.729 266.048 213.477 265.619 213.103L264.93 213.95C265.411 214.323 266.175 214.698 267.035 214.699C267.67 214.699 268.221 214.571 268.642 214.291C269.072 214.012 269.339 213.581 269.34 213.107Z" fill="white"/>
<path d="M274.752 212.747C274.754 211.713 273.887 211.015 272.632 211.014C271.378 211.012 270.346 211.679 270.344 212.85C270.342 214.02 271.295 214.696 272.601 214.698C273.915 214.699 274.475 214.211 274.612 214.125L274.072 213.529C273.831 213.665 273.35 213.865 272.8 213.865C272.241 213.864 271.777 213.634 271.718 213.124L274.734 213.127C274.734 213.127 274.752 212.919 274.752 212.747ZM271.728 212.47C271.745 212.133 272.038 211.76 272.605 211.761C273.181 211.761 273.464 212.149 273.472 212.472L271.728 212.47Z" fill="white"/>
<path d="M277.4 209.669L276.025 209.667L276.018 214.622L277.392 214.624L277.4 209.669Z" fill="white"/>
<path d="M280.351 209.672L278.976 209.671L278.969 214.626L280.344 214.627L280.351 209.672Z" fill="white"/>
<path d="M289.638 209.682L288.28 209.681L288.277 211.929C288.276 212.453 288.301 213.013 288.301 213.013L285.762 209.678L284.276 209.676L284.268 214.632L285.626 214.633L285.629 212.392C285.63 211.868 285.605 211.272 285.605 211.272L288.203 214.636L289.63 214.637L289.638 209.682Z" fill="white"/>
<path d="M295.682 212.885C295.684 211.743 294.68 211.038 293.339 211.037C291.999 211.035 290.984 211.738 290.982 212.88C290.98 214.021 291.993 214.719 293.333 214.721C294.674 214.722 295.68 214.027 295.682 212.885ZM294.299 212.862C294.298 213.386 293.936 213.78 293.335 213.78C292.725 213.779 292.373 213.384 292.374 212.86C292.375 212.335 292.728 211.941 293.338 211.941C293.939 211.942 294.3 212.337 294.299 212.862Z" fill="white"/>
<path d="M302.036 211.111L301.284 213.372L300.472 211.109L299.346 211.108L298.526 213.369L297.782 211.106L296.39 211.105L297.776 214.646L299.074 214.648L299.911 212.48L300.732 214.65L302.03 214.651L303.428 211.112L302.036 211.111Z" fill="white"/>
<path d="M163.397 210.731H84.265C78.7563 210.731 74.2678 207.165 74.2678 202.736V118.938C74.2678 114.532 78.7272 110.942 84.265 110.942H163.397C168.906 110.942 173.394 114.509 173.394 118.938V202.759C173.394 207.164 168.906 210.731 163.397 210.731Z" fill="#FAFAFA"/>
<path d="M100.356 158.152L97.4413 169.885C96.308 174.448 101.975 177.708 105.213 174.285L113.308 165.811L100.356 158.152Z" fill="#25313C"/>
<path d="M147.306 158.152L150.221 169.885C151.354 174.448 145.687 177.708 142.449 174.285L134.354 165.811L147.306 158.152Z" fill="#25313C"/>
<path d="M138.078 149.842H109.422V164.182H138.078V149.842Z" fill="#25313C"/>
<path d="M118.812 157.501C118.812 162.715 114.603 166.952 109.422 166.952C104.241 166.952 100.032 162.715 100.032 157.501C100.032 152.286 104.241 148.049 109.422 148.049C114.603 148.049 118.812 152.286 118.812 157.501Z" fill="#8F8FEB"/>
<path d="M109.422 165.648C104.889 165.648 101.165 161.9 101.165 157.337C101.165 152.774 104.889 149.026 109.422 149.026C113.955 149.026 117.679 152.774 117.679 157.337C117.679 162.063 113.955 165.648 109.422 165.648ZM109.422 150.493C105.536 150.493 102.46 153.589 102.46 157.5C102.46 161.411 105.536 164.508 109.422 164.508C113.308 164.508 116.384 161.411 116.384 157.5C116.384 153.589 113.308 150.493 109.422 150.493Z" fill="#25313C"/>
<path d="M147.468 157.501C147.468 162.715 143.259 166.952 138.078 166.952C132.897 166.952 128.688 162.715 128.688 157.501C128.688 152.286 132.897 148.049 138.078 148.049C143.259 148.049 147.468 152.286 147.468 157.501Z" fill="#8F8FEB"/>
<path d="M138.078 165.648C133.545 165.648 129.821 161.9 129.821 157.337C129.821 152.774 133.545 149.026 138.078 149.026C142.611 149.026 146.335 152.774 146.335 157.337C146.335 162.063 142.611 165.648 138.078 165.648ZM138.078 150.493C134.193 150.493 131.117 153.589 131.117 157.5C131.117 161.411 134.193 164.508 138.078 164.508C141.964 164.508 145.04 161.411 145.04 157.5C145.04 153.589 141.964 150.493 138.078 150.493Z" fill="#25313C"/>
<path d="M113.631 158.315H105.374C105.051 158.315 104.727 157.99 104.727 157.664V156.523C104.727 156.197 105.051 155.871 105.374 155.871H113.631C113.955 155.871 114.279 156.197 114.279 156.523V157.664C114.117 157.99 113.955 158.315 113.631 158.315Z" fill="#25313C"/>
<path d="M113.631 158.804H105.374C104.727 158.804 104.241 158.315 104.241 157.663V156.523C104.241 155.871 104.727 155.382 105.374 155.382H113.631C114.279 155.382 114.765 155.871 114.765 156.523V157.663C114.765 158.315 114.279 158.804 113.631 158.804ZM105.374 156.523V157.663H113.631V156.523H105.374Z" fill="#25313C"/>
<path d="M108.288 161.249V152.938C108.288 152.612 108.612 152.286 108.936 152.286H110.069C110.393 152.286 110.717 152.612 110.717 152.938V161.249C110.717 161.575 110.393 161.901 110.069 161.901H108.936C108.612 161.901 108.288 161.575 108.288 161.249Z" fill="#25313C"/>
<path d="M110.069 162.389H108.936C108.289 162.389 107.803 161.9 107.803 161.249V152.938C107.803 152.286 108.289 151.797 108.936 151.797H110.069C110.717 151.797 111.203 152.286 111.203 152.938V161.249C111.203 161.9 110.555 162.389 110.069 162.389ZM108.936 152.938V161.249H110.069V152.938H108.936Z" fill="#25313C"/>
<path d="M138.078 155.545C139.062 155.545 139.859 154.743 139.859 153.753C139.859 152.763 139.062 151.96 138.078 151.96C137.095 151.96 136.297 152.763 136.297 153.753C136.297 154.743 137.095 155.545 138.078 155.545Z" fill="#47C69C"/>
<path d="M139.859 161.249C139.859 162.226 139.05 163.041 138.078 163.041C137.107 163.041 136.297 162.226 136.297 161.249C136.297 160.271 137.107 159.456 138.078 159.456C139.05 159.456 139.859 160.271 139.859 161.249Z" fill="#D76060"/>
<path d="M141.802 159.13C140.831 159.13 140.021 158.315 140.021 157.337C140.021 156.36 140.831 155.545 141.802 155.545C142.773 155.545 143.583 156.36 143.583 157.337C143.583 158.478 142.773 159.13 141.802 159.13Z" fill="#FFC022"/>
<path d="M134.355 159.13C133.383 159.13 132.574 158.315 132.574 157.337C132.574 156.36 133.383 155.545 134.355 155.545C135.326 155.545 136.135 156.36 136.135 157.337C136.135 158.478 135.326 159.13 134.355 159.13Z" fill="#25313C"/>
<path d="M103.048 386.462C103.048 389.084 80.2367 391.199 51.978 391.199C23.7193 391.199 0.908081 389.084 0.908081 386.462C0.908081 383.84 23.7193 381.726 51.978 381.726C80.2367 381.726 103.048 383.84 103.048 386.462Z" fill="#C1C1FF" fill-opacity="0.2"/>
<mask id="mask0" mask-type="alpha" maskUnits="userSpaceOnUse" x="15" y="375" width="83" height="14">
<path d="M15.2887 375.149V385.045C15.2887 386.822 33.5887 388.344 56.1446 388.344C78.7005 388.344 97.0005 386.906 97.0005 385.045V375.149H15.2887Z" fill="#E59E20"/>
</mask>
<g mask="url(#mask0)">
<path d="M15.2886 375.148V385.044C15.2886 386.821 33.5886 388.343 56.1445 388.343C78.7004 388.343 97.0004 386.905 97.0004 385.044V375.148H15.2886Z" fill="#E59E20"/>
<path d="M19.0413 386.078C18.9943 383.497 19.1546 380.907 19.4963 378.348L19.0413 386.078Z" stroke="#D6901E" stroke-width="0.36587" stroke-miterlimit="10"/>
<path d="M23.7997 378.344L23.2551 385.47C23.2426 383.085 23.4242 380.705 23.7997 378.344Z" stroke="#D6901E" stroke-width="0.36587" stroke-miterlimit="10"/>
<path d="M29.4109 379.016L28.9013 384.623C28.964 382.747 29.1294 380.876 29.4109 379.016Z" stroke="#D6901E" stroke-width="0.36587" stroke-miterlimit="10"/>
<mask id="path-118-inside-1" fill="white">
<path d="M35.7982 376.757C35.3726 380.817 35.1172 384.961 35.2023 389.021L35.7982 376.757Z"/>
</mask>
<path d="M35.4343 376.719C35.0077 380.789 34.751 384.949 34.8366 389.029L35.5681 389.014C35.4834 384.973 35.7375 380.845 36.1621 376.795L35.4343 376.719Z" fill="#D6901E" mask="url(#path-118-inside-1)"/>
<path d="M41.6592 379.984V386.737C41.5031 384.494 41.5128 382.23 41.6592 379.984Z" stroke="#D6901E" stroke-width="0.36587" stroke-miterlimit="10"/>
<mask id="path-121-inside-2" fill="white">
<path d="M48.2264 375.827C47.971 380.395 47.971 384.962 48.0562 389.445L48.2264 375.827Z"/>
</mask>
<path d="M47.8611 375.807C47.605 380.387 47.6052 384.965 47.6903 389.452L48.422 389.438C48.3369 384.959 48.3371 380.402 48.5917 375.848L47.8611 375.807Z" fill="#D6901E" mask="url(#path-121-inside-2)"/>
<mask id="path-123-inside-3" fill="white">
<path d="M53.4183 375.316C53.0778 380.138 53.1629 384.959 53.6736 389.78L53.4183 375.316Z"/>
</mask>
<path d="M53.0533 375.291C52.7113 380.133 52.7968 384.976 53.3098 389.818L54.0375 389.741C53.529 384.941 53.4443 380.142 53.7832 375.342L53.0533 375.291Z" fill="#D6901E" mask="url(#path-123-inside-3)"/>
<mask id="path-125-inside-4" fill="white">
<path d="M58.2684 376.248C58.4387 380.393 58.6089 384.537 58.694 388.682L58.2684 376.248Z"/>
</mask>
<path d="M57.9029 376.263C58.0731 380.408 58.2432 384.549 58.3282 388.689L59.0598 388.674C58.9746 384.525 58.8042 380.377 58.634 376.233L57.9029 376.263Z" fill="#D6901E" mask="url(#path-125-inside-4)"/>
<path d="M64.8184 386.774L64.5107 378.721C64.8921 381.387 64.9947 384.077 64.8184 386.774Z" stroke="#D6901E" stroke-width="0.36587" stroke-miterlimit="10"/>
<mask id="path-128-inside-5" fill="white">
<path d="M70.5243 376.503C71.2904 380.986 71.6308 385.553 71.5457 390.121L70.5243 376.503Z"/>
</mask>
<path d="M70.1636 376.565C70.9258 381.025 71.2646 385.569 71.1799 390.114L71.9115 390.127C71.9971 385.537 71.6549 380.947 70.8849 376.441L70.1636 376.565Z" fill="#D6901E" mask="url(#path-128-inside-5)"/>
<mask id="path-130-inside-6" fill="white">
<path d="M76.6543 376.503C77.4204 380.647 77.846 384.792 77.846 389.021L76.6543 376.503Z"/>
</mask>
<path d="M76.2945 376.569C77.057 380.695 77.4801 384.817 77.4801 389.021H78.2118C78.2118 384.767 77.7837 380.6 77.0141 376.436L76.2945 376.569Z" fill="#D6901E" mask="url(#path-130-inside-6)"/>
<path d="M83.7101 385.346L83.3047 379.487C83.554 381.421 83.6845 383.378 83.7101 385.346Z" stroke="#D6901E" stroke-width="0.36587" stroke-miterlimit="10"/>
<path d="M89.0697 388.599L87.9194 377.613C88.9245 381.161 89.3081 384.907 89.0697 388.599Z" stroke="#D6901E" stroke-width="0.36587" stroke-miterlimit="10"/>
<path d="M93.306 384.06L92.9644 377.028C93.3174 379.344 93.426 381.715 93.306 384.06Z" stroke="#D6901E" stroke-width="0.36587" stroke-miterlimit="10"/>
</g>
<path d="M56.1489 378.451C78.713 378.451 97.0048 376.974 97.0048 375.152C97.0048 373.33 78.713 371.854 56.1489 371.854C33.5848 371.854 15.293 373.33 15.293 375.152C15.293 376.974 33.5848 378.451 56.1489 378.451Z" fill="#F9B428"/>
<path d="M94.1841 375.153C94.1841 375.154 94.184 375.166 94.161 375.189C94.1379 375.212 94.0983 375.24 94.0376 375.271C93.9165 375.331 93.7306 375.394 93.4787 375.457C92.9764 375.582 92.2318 375.704 91.268 375.82C89.3415 376.052 86.5518 376.262 83.1022 376.438C76.2036 376.79 66.6722 377.007 56.1433 377.007C45.6144 377.007 36.083 376.79 29.1844 376.438C25.7348 376.262 22.9451 376.052 21.0187 375.82C20.0549 375.704 19.3103 375.582 18.8079 375.457C18.5561 375.394 18.3701 375.331 18.249 375.271C18.1883 375.24 18.1488 375.212 18.1256 375.189C18.1027 375.166 18.1026 375.154 18.1026 375.153C18.1026 375.152 18.1027 375.141 18.1256 375.118C18.1488 375.094 18.1883 375.067 18.249 375.036C18.3701 374.975 18.5561 374.913 18.8079 374.85C19.3103 374.725 20.0549 374.603 21.0187 374.487C22.9451 374.255 25.7348 374.045 29.1844 373.869C36.083 373.517 45.6144 373.299 56.1433 373.299C66.6722 373.299 76.2036 373.517 83.1022 373.869C86.5518 374.045 89.3415 374.255 91.268 374.487C92.2318 374.603 92.9764 374.725 93.4787 374.85C93.7306 374.913 93.9165 374.975 94.0376 375.036C94.0983 375.067 94.1379 375.094 94.161 375.118C94.184 375.141 94.1841 375.152 94.1841 375.153Z" stroke="#D6901E" stroke-width="0.182924" stroke-miterlimit="10"/>
<mask id="mask1" mask-type="alpha" maskUnits="userSpaceOnUse" x="21" y="363" width="83" height="14">
<path d="M21.4197 363.734V373.63C21.4197 375.407 39.7197 376.929 62.2756 376.929C84.8315 376.929 103.132 375.491 103.132 373.63V363.734H21.4197Z" fill="#E59E20"/>
</mask>
<g mask="url(#mask1)">
<path d="M21.4197 363.733V373.629C21.4197 375.406 39.7197 376.928 62.2756 376.928C84.8315 376.928 103.132 375.49 103.132 373.629V363.733H21.4197Z" fill="#E59E20"/>
<path d="M25.0879 374.665C25.041 372.084 25.2012 369.494 25.5429 366.935L25.0879 374.665Z" stroke="#D6901E" stroke-width="0.36587" stroke-miterlimit="10"/>
<path d="M29.8518 367.01L29.3072 374.136C29.2948 371.75 29.4763 369.371 29.8518 367.01Z" stroke="#D6901E" stroke-width="0.36587" stroke-miterlimit="10"/>
<path d="M35.5457 367.601L35.0361 373.207C35.0987 371.331 35.2642 369.46 35.5457 367.601Z" stroke="#D6901E" stroke-width="0.36587" stroke-miterlimit="10"/>
<mask id="path-142-inside-7" fill="white">
<path d="M41.8459 365.343C41.4203 369.403 41.165 373.547 41.2501 377.607L41.8459 365.343Z"/>
</mask>
<path d="M41.482 365.305C41.0554 369.374 40.7987 373.535 40.8843 377.615L41.6159 377.599C41.5312 373.559 41.7852 369.431 42.2098 365.381L41.482 365.305Z" fill="#D6901E" mask="url(#path-142-inside-7)"/>
<path d="M47.7907 368.57V375.322C47.6347 373.08 47.6444 370.816 47.7907 368.57Z" stroke="#D6901E" stroke-width="0.36587" stroke-miterlimit="10"/>
<mask id="path-145-inside-8" fill="white">
<path d="M54.273 364.414C54.0177 368.981 54.0177 373.549 54.1028 378.032L54.273 364.414Z"/>
</mask>
<path d="M53.9077 364.394C53.6516 368.974 53.6518 373.552 53.737 378.039L54.4686 378.025C54.3836 373.546 54.3837 368.989 54.6383 364.434L53.9077 364.394Z" fill="#D6901E" mask="url(#path-145-inside-8)"/>
<mask id="path-147-inside-9" fill="white">
<path d="M59.5498 363.903C59.2094 368.724 59.2945 373.546 59.8052 378.367L59.5498 363.903Z"/>
</mask>
<path d="M59.1849 363.878C58.8429 368.72 58.9284 373.563 59.4414 378.405L60.169 378.328C59.6606 373.528 59.5759 368.729 59.9148 363.929L59.1849 363.878Z" fill="#D6901E" mask="url(#path-147-inside-9)"/>
<mask id="path-149-inside-10" fill="white">
<path d="M64.401 364.834C64.5712 368.979 64.7415 373.123 64.8266 377.268L64.401 364.834Z"/>
</mask>
<path d="M64.0354 364.849C64.2057 368.994 64.3758 373.135 64.4608 377.275L65.1924 377.26C65.1072 373.111 64.9368 368.963 64.7666 364.819L64.0354 364.849Z" fill="#D6901E" mask="url(#path-149-inside-10)"/>
<path d="M70.9532 375.447L70.6454 367.394C71.0269 370.06 71.1295 372.75 70.9532 375.447Z" stroke="#D6901E" stroke-width="0.36587" stroke-miterlimit="10"/>
<mask id="path-152-inside-11" fill="white">
<path d="M76.6602 365.088C77.4262 369.571 77.7666 374.138 77.6815 378.706L76.6602 365.088Z"/>
</mask>
<path d="M76.2995 365.15C77.0616 369.609 77.4004 374.154 77.3157 378.699L78.0473 378.712C78.1329 374.122 77.7907 369.532 77.0208 365.026L76.2995 365.15Z" fill="#D6901E" mask="url(#path-152-inside-11)"/>
<mask id="path-154-inside-12" fill="white">
<path d="M82.7859 365.088C83.5519 369.232 83.9775 373.377 83.9775 377.606L82.7859 365.088Z"/>
</mask>
<path d="M82.4261 365.154C83.1886 369.28 83.6116 373.402 83.6116 377.606H84.3434C84.3434 373.352 83.9153 369.185 83.1457 365.021L82.4261 365.154Z" fill="#D6901E" mask="url(#path-154-inside-12)"/>
<path d="M89.8415 373.933L89.4362 368.074C89.6855 370.008 89.816 371.965 89.8415 373.933Z" stroke="#D6901E" stroke-width="0.36587" stroke-miterlimit="10"/>
<path d="M95.1174 377.186L93.9671 366.2C94.9723 369.748 95.3558 373.494 95.1174 377.186Z" stroke="#D6901E" stroke-width="0.36587" stroke-miterlimit="10"/>
<path d="M99.3538 372.645L99.0122 365.612C99.3652 367.928 99.4738 370.299 99.3538 372.645Z" stroke="#D6901E" stroke-width="0.36587" stroke-miterlimit="10"/>
</g>
<path d="M62.1904 367.032C84.7545 367.032 103.046 365.555 103.046 363.733C103.046 361.911 84.7545 360.435 62.1904 360.435C39.6263 360.435 21.3345 361.911 21.3345 363.733C21.3345 365.555 39.6263 367.032 62.1904 367.032Z" fill="#F9B428"/>
<path d="M100.231 363.731C100.231 363.732 100.231 363.744 100.208 363.767C100.185 363.79 100.146 363.818 100.085 363.849C99.9637 363.909 99.7778 363.972 99.5259 364.035C99.0236 364.16 98.279 364.282 97.3152 364.398C95.3887 364.63 92.599 364.84 89.1494 365.016C82.2508 365.368 72.7194 365.585 62.1905 365.585C51.6617 365.585 42.1302 365.368 35.2317 365.016C31.7821 364.84 28.9924 364.63 27.0659 364.398C26.1021 364.282 25.3575 364.16 24.8552 364.035C24.6033 363.972 24.4174 363.909 24.2963 363.849C24.2355 363.818 24.196 363.79 24.1728 363.767C24.1499 363.744 24.1498 363.732 24.1498 363.731C24.1498 363.73 24.1499 363.719 24.1728 363.696C24.196 363.673 24.2355 363.645 24.2963 363.614C24.4174 363.553 24.6033 363.491 24.8552 363.428C25.3575 363.303 26.1021 363.181 27.0659 363.065C28.9924 362.833 31.7821 362.623 35.2317 362.447C42.1302 362.095 51.6617 361.878 62.1905 361.878C72.7194 361.878 82.2508 362.095 89.1494 362.447C92.599 362.623 95.3887 362.833 97.3152 363.065C98.279 363.181 99.0236 363.303 99.5259 363.428C99.7778 363.491 99.9637 363.553 100.085 363.614C100.146 363.645 100.185 363.673 100.208 363.696C100.231 363.719 100.231 363.73 100.231 363.731Z" stroke="#D6901E" stroke-width="0.182924" stroke-miterlimit="10"/>
<mask id="mask2" mask-type="alpha" maskUnits="userSpaceOnUse" x="14" y="352" width="82" height="14">
<path d="M14.0171 352.149V362.046C14.0171 363.822 32.3171 365.344 54.873 365.344C77.4289 365.344 95.7289 363.906 95.7289 362.046V352.149H14.0171Z" fill="#E59E20"/>
</mask>
<g mask="url(#mask2)">
<path d="M14.0126 352.148V362.045C14.0126 363.821 32.3126 365.343 54.8685 365.343C77.4244 365.343 95.7244 363.905 95.7244 362.045V352.148H14.0126Z" fill="#E59E20"/>
<path d="M17.774 363.079C17.727 360.497 17.8872 357.907 18.2289 355.348L17.774 363.079Z" stroke="#D6901E" stroke-width="0.36587" stroke-miterlimit="10"/>
<path d="M22.5335 355.427L21.9888 362.553C21.9764 360.168 22.1579 357.788 22.5335 355.427Z" stroke="#D6901E" stroke-width="0.36587" stroke-miterlimit="10"/>
<path d="M28.1447 356.015L27.6351 361.621C27.6977 359.745 27.8632 357.874 28.1447 356.015Z" stroke="#D6901E" stroke-width="0.36587" stroke-miterlimit="10"/>
<mask id="path-166-inside-13" fill="white">
<path d="M34.5318 353.758C34.1062 357.818 33.8509 361.962 33.936 366.022L34.5318 353.758Z"/>
</mask>
<path d="M34.1679 353.72C33.7413 357.79 33.4847 361.95 33.5702 366.03L34.3018 366.015C34.2171 361.974 34.4711 357.846 34.8957 353.796L34.1679 353.72Z" fill="#D6901E" mask="url(#path-166-inside-13)"/>
<path d="M40.3929 356.985V363.738C40.2369 361.495 40.2466 359.231 40.3929 356.985Z" stroke="#D6901E" stroke-width="0.36587" stroke-miterlimit="10"/>
<mask id="path-169-inside-14" fill="white">
<path d="M46.959 352.829C46.7037 357.396 46.7037 361.964 46.7888 366.447L46.959 352.829Z"/>
</mask>
<path d="M46.5937 352.809C46.3377 357.389 46.3378 361.967 46.423 366.454L47.1546 366.44C47.0696 361.961 47.0697 357.404 47.3243 352.85L46.5937 352.809Z" fill="#D6901E" mask="url(#path-169-inside-14)"/>
<mask id="path-171-inside-15" fill="white">
<path d="M52.152 352.32C51.8116 357.141 51.8967 361.963 52.4074 366.784L52.152 352.32Z"/>
</mask>
<path d="M51.7871 352.295C51.4451 357.137 51.5306 361.98 52.0436 366.822L52.7712 366.745C52.2628 361.945 52.178 357.146 52.517 352.346L51.7871 352.295Z" fill="#D6901E" mask="url(#path-171-inside-15)"/>
<mask id="path-173-inside-16" fill="white">
<path d="M57.0022 353.249C57.1724 357.393 57.3427 361.538 57.4278 365.682L57.0022 353.249Z"/>
</mask>
<path d="M56.6366 353.264C56.8069 357.409 56.977 361.55 57.062 365.69L57.7936 365.675C57.7084 361.526 57.538 357.378 57.3678 353.234L56.6366 353.264Z" fill="#D6901E" mask="url(#path-173-inside-16)"/>
<path d="M63.5522 363.864L63.2444 355.811C63.6259 358.477 63.7285 361.167 63.5522 363.864Z" stroke="#D6901E" stroke-width="0.36587" stroke-miterlimit="10"/>
<mask id="path-176-inside-17" fill="white">
<path d="M69.2581 353.505C70.0241 357.988 70.3646 362.555 70.2794 367.123L69.2581 353.505Z"/>
</mask>
<path d="M68.8974 353.567C69.6595 358.027 69.9983 362.571 69.9136 367.116L70.6453 367.129C70.7308 362.539 70.3887 357.949 69.6187 353.443L68.8974 353.567Z" fill="#D6901E" mask="url(#path-176-inside-17)"/>
<mask id="path-178-inside-18" fill="white">
<path d="M75.387 353.591C76.153 357.735 76.5786 361.88 76.5786 366.109L75.387 353.591Z"/>
</mask>
<path d="M75.0272 353.657C75.7897 357.783 76.2127 361.905 76.2127 366.109H76.9444C76.9444 361.855 76.5163 357.688 75.7467 353.524L75.0272 353.657Z" fill="#D6901E" mask="url(#path-178-inside-18)"/>
<path d="M82.5265 362.348L82.1211 356.489C82.3704 358.423 82.501 360.38 82.5265 362.348Z" stroke="#D6901E" stroke-width="0.36587" stroke-miterlimit="10"/>
<path d="M87.8022 365.601L86.6519 354.615C87.6571 358.163 88.0406 361.909 87.8022 365.601Z" stroke="#D6901E" stroke-width="0.36587" stroke-miterlimit="10"/>
<path d="M92.0387 361.146L91.6971 354.113C92.0501 356.429 92.1588 358.8 92.0387 361.146Z" stroke="#D6901E" stroke-width="0.36587" stroke-miterlimit="10"/>
</g>
<path d="M54.8725 355.447C77.4366 355.447 95.7284 353.97 95.7284 352.148C95.7284 350.326 77.4366 348.85 54.8725 348.85C32.3084 348.85 14.0166 350.326 14.0166 352.148C14.0166 353.97 32.3084 355.447 54.8725 355.447Z" fill="#F9B428"/>
<path d="M54.8717 354.092C75.9315 354.092 93.0039 353.221 93.0039 352.147C93.0039 351.072 75.9315 350.201 54.8717 350.201C33.8119 350.201 16.7395 351.072 16.7395 352.147C16.7395 353.221 33.8119 354.092 54.8717 354.092Z" stroke="#D6901E" stroke-width="0.182924" stroke-miterlimit="10"/>
<path d="M50.275 291.158C50.275 291.158 50.275 304.353 38.3586 305.791C38.3586 305.791 50.275 307.482 50.275 317.886C50.275 307.482 62.1913 305.791 62.1913 305.791C50.275 304.353 50.275 291.158 50.275 291.158Z" fill="#FFC55F"/>
<path d="M453.73 383.245C453.73 386.037 424.903 388.289 389.368 388.289C353.833 388.289 325.006 386.037 325.006 383.245C325.006 380.452 353.833 378.2 389.368 378.2C424.903 378.2 453.73 380.452 453.73 383.245Z" fill="#C1C1FF" fill-opacity="0.2"/>
<mask id="mask3" mask-type="alpha" maskUnits="userSpaceOnUse" x="360" y="369" width="88" height="15">
<path d="M360.264 369.825V380.365C360.264 382.256 379.754 383.878 403.777 383.878C427.799 383.878 447.289 382.346 447.289 380.365V369.825H360.264Z" fill="#E59E20"/>
</mask>
<g mask="url(#mask3)">
<path d="M360.259 369.824V380.364C360.259 382.255 379.749 383.877 403.771 383.877C427.794 383.877 447.284 382.345 447.284 380.364V369.824H360.259Z" fill="#E59E20"/>
<path d="M364.239 383.196C364.034 379.269 364.291 375.308 364.931 371.432L364.239 383.196Z" stroke="#D6901E" stroke-width="0.22752" stroke-miterlimit="10"/>
<path d="M369.539 371.688L368.709 382.545C368.564 378.906 368.84 375.274 369.539 371.688Z" stroke="#D6901E" stroke-width="0.22752" stroke-miterlimit="10"/>
<path d="M375.571 371.944L374.654 382.033C374.638 378.651 374.921 375.276 375.571 371.944Z" stroke="#D6901E" stroke-width="0.22752" stroke-miterlimit="10"/>
<mask id="path-192-inside-19" fill="white">
<path d="M382.11 371.542C381.656 375.866 381.384 380.28 381.475 384.604L382.11 371.542Z"/>
</mask>
<path d="M381.883 371.518C381.43 375.848 381.157 380.272 381.248 384.609L381.703 384.599C381.612 380.287 381.883 375.883 382.336 371.566L381.883 371.518Z" fill="#D6901E" mask="url(#path-192-inside-19)"/>
<path d="M388.432 372.994V383.996C388.036 380.356 388.073 376.639 388.432 372.994Z" stroke="#D6901E" stroke-width="0.22752" stroke-miterlimit="10"/>
<mask id="path-195-inside-20" fill="white">
<path d="M395.344 370.549C395.071 375.413 395.071 380.278 395.162 385.052L395.344 370.549Z"/>
</mask>
<path d="M395.116 370.536C394.844 375.409 394.844 380.279 394.935 385.056L395.39 385.048C395.299 380.276 395.299 375.418 395.571 370.562L395.116 370.536Z" fill="#D6901E" mask="url(#path-195-inside-20)"/>
<path d="M400.816 373.281L400.972 382.134C400.77 379.183 400.718 376.232 400.816 373.281Z" stroke="#D6901E" stroke-width="0.22752" stroke-miterlimit="10"/>
<mask id="path-198-inside-21" fill="white">
<path d="M406.039 370.999C406.22 375.413 406.402 379.827 406.492 384.241L406.039 370.999Z"/>
</mask>
<path d="M405.812 371.008C405.993 375.423 406.174 379.834 406.265 384.246L406.72 384.236C406.629 379.82 406.448 375.403 406.266 370.99L405.812 371.008Z" fill="#D6901E" mask="url(#path-198-inside-21)"/>
<path d="M412.986 383.65L412.555 372.373C413.211 376.096 413.355 379.87 412.986 383.65Z" stroke="#D6901E" stroke-width="0.22752" stroke-miterlimit="10"/>
<path d="M420.064 382.689L419.435 374.308C419.796 377.083 420.006 379.883 420.064 382.689Z" stroke="#D6901E" stroke-width="0.22752" stroke-miterlimit="10"/>
<path d="M426.7 381.414L426.054 374.62C426.374 376.875 426.593 379.136 426.7 381.414Z" stroke="#D6901E" stroke-width="0.22752" stroke-miterlimit="10"/>
<path d="M433.296 382.868L432.574 372.423C433.16 375.844 433.378 379.349 433.296 382.868Z" stroke="#D6901E" stroke-width="0.22752" stroke-miterlimit="10"/>
<path d="M438.858 385.046L437.449 371.59C438.796 375.906 439.265 380.527 438.858 385.046Z" stroke="#D6901E" stroke-width="0.22752" stroke-miterlimit="10"/>
<path d="M443.341 380.695L442.846 370.501C443.486 373.835 443.637 377.304 443.341 380.695Z" stroke="#D6901E" stroke-width="0.22752" stroke-miterlimit="10"/>
</g>
<path d="M403.782 373.341C427.813 373.341 447.294 371.768 447.294 369.828C447.294 367.887 427.813 366.314 403.782 366.314C379.751 366.314 360.27 367.887 360.27 369.828C360.27 371.768 379.751 373.341 403.782 373.341Z" fill="#F9B428"/>
<path d="M444.331 369.827C444.331 369.842 444.324 369.864 444.295 369.893C444.266 369.922 444.22 369.954 444.153 369.988C444.02 370.055 443.819 370.122 443.549 370.189C443.012 370.323 442.217 370.453 441.19 370.577C439.137 370.824 436.165 371.047 432.49 371.235C425.142 371.61 414.991 371.842 403.777 371.842C392.563 371.842 382.411 371.61 375.063 371.235C371.389 371.047 368.417 370.824 366.363 370.577C365.337 370.453 364.541 370.323 364.004 370.189C363.735 370.122 363.533 370.055 363.4 369.988C363.334 369.954 363.287 369.922 363.258 369.893C363.229 369.864 363.222 369.842 363.222 369.827C363.222 369.811 363.229 369.789 363.258 369.76C363.287 369.731 363.334 369.699 363.4 369.666C363.533 369.599 363.735 369.531 364.004 369.464C364.541 369.33 365.337 369.201 366.363 369.077C368.417 368.829 371.389 368.606 375.063 368.419C382.411 368.044 392.563 367.812 403.777 367.812C414.991 367.812 425.142 368.044 432.49 368.419C436.165 368.606 439.137 368.829 441.19 369.077C442.217 369.201 443.012 369.33 443.549 369.464C443.819 369.531 444.02 369.599 444.153 369.666C444.22 369.699 444.266 369.731 444.295 369.76C444.324 369.789 444.331 369.811 444.331 369.827Z" stroke="#D6901E" stroke-width="0.113753" stroke-miterlimit="10"/>
<mask id="mask4" mask-type="alpha" maskUnits="userSpaceOnUse" x="366" y="357" width="88" height="15">
<path d="M366.791 357.662V368.202C366.791 370.093 386.281 371.715 410.303 371.715C434.326 371.715 453.816 370.183 453.816 368.202V357.662H366.791Z" fill="#E59E20"/>
</mask>
<g mask="url(#mask4)">
<path d="M366.791 357.662V368.202C366.791 370.093 386.281 371.715 410.303 371.715C434.326 371.715 453.816 370.183 453.816 368.202V357.662H366.791Z" fill="#E59E20"/>
<path d="M370.773 371.032C370.567 367.105 370.825 363.144 371.465 359.268L370.773 371.032Z" stroke="#D6901E" stroke-width="0.22752" stroke-miterlimit="10"/>
<path d="M375.978 359.522L375.148 370.378C375.003 366.74 375.279 363.108 375.978 359.522Z" stroke="#D6901E" stroke-width="0.22752" stroke-miterlimit="10"/>
<path d="M382.101 359.78L381.184 369.869C381.169 366.487 381.452 363.112 382.101 359.78Z" stroke="#D6901E" stroke-width="0.22752" stroke-miterlimit="10"/>
<mask id="path-213-inside-22" fill="white">
<path d="M388.639 359.376C388.185 363.7 387.914 368.114 388.004 372.438L388.639 359.376Z"/>
</mask>
<path d="M388.413 359.352C387.959 363.682 387.686 368.106 387.777 372.443L388.232 372.433C388.141 368.121 388.412 363.717 388.865 359.4L388.413 359.352Z" fill="#D6901E" mask="url(#path-213-inside-22)"/>
<path d="M394.962 360.829V371.833C394.566 368.192 394.603 364.475 394.962 360.829Z" stroke="#D6901E" stroke-width="0.22752" stroke-miterlimit="10"/>
<mask id="path-216-inside-23" fill="white">
<path d="M401.782 358.385C401.51 363.249 401.51 368.114 401.601 372.888L401.782 358.385Z"/>
</mask>
<path d="M401.555 358.372C401.283 363.245 401.283 368.115 401.374 372.892L401.829 372.884C401.738 368.112 401.738 363.254 402.01 358.397L401.555 358.372Z" fill="#D6901E" mask="url(#path-216-inside-23)"/>
<path d="M407.349 361.115L407.505 369.968C407.303 367.017 407.251 364.066 407.349 361.115Z" stroke="#D6901E" stroke-width="0.22752" stroke-miterlimit="10"/>
<mask id="path-219-inside-24" fill="white">
<path d="M412.573 358.835C412.754 363.249 412.935 367.663 413.026 372.077L412.573 358.835Z"/>
</mask>
<path d="M412.345 358.844C412.526 363.259 412.708 367.67 412.798 372.082L413.253 372.072C413.162 367.656 412.981 363.239 412.8 358.826L412.345 358.844Z" fill="#D6901E" mask="url(#path-219-inside-24)"/>
<path d="M419.519 371.487L419.088 360.21C419.744 363.933 419.888 367.707 419.519 371.487Z" stroke="#D6901E" stroke-width="0.22752" stroke-miterlimit="10"/>
<path d="M426.594 370.525L425.966 362.143C426.326 364.919 426.536 367.719 426.594 370.525Z" stroke="#D6901E" stroke-width="0.22752" stroke-miterlimit="10"/>
<path d="M433.231 369.344L432.584 362.55C432.904 364.805 433.124 367.065 433.231 369.344Z" stroke="#D6901E" stroke-width="0.22752" stroke-miterlimit="10"/>
<path d="M439.735 370.704L439.013 360.259C439.599 363.68 439.817 367.185 439.735 370.704Z" stroke="#D6901E" stroke-width="0.22752" stroke-miterlimit="10"/>
<path d="M445.298 372.882L443.889 359.426C445.236 363.742 445.705 368.363 445.298 372.882Z" stroke="#D6901E" stroke-width="0.22752" stroke-miterlimit="10"/>
<path d="M449.781 368.528L449.286 358.335C449.926 361.669 450.076 365.138 449.781 368.528Z" stroke="#D6901E" stroke-width="0.22752" stroke-miterlimit="10"/>
</g>
<path d="M410.216 361.18C434.248 361.18 453.729 359.607 453.729 357.667C453.729 355.726 434.248 354.153 410.216 354.153C386.185 354.153 366.704 355.726 366.704 357.667C366.704 359.607 386.185 361.18 410.216 361.18Z" fill="#F9B428"/>
<path d="M450.768 357.668C450.768 357.683 450.76 357.705 450.731 357.734C450.702 357.763 450.656 357.795 450.589 357.829C450.456 357.895 450.255 357.963 449.986 358.03C449.448 358.164 448.653 358.294 447.626 358.417C445.573 358.665 442.601 358.888 438.927 359.076C431.579 359.451 421.427 359.682 410.213 359.682C398.999 359.682 388.847 359.451 381.499 359.076C377.825 358.888 374.853 358.665 372.8 358.417C371.773 358.294 370.978 358.164 370.44 358.03C370.171 357.963 369.97 357.895 369.837 357.829C369.77 357.795 369.724 357.763 369.695 357.734C369.666 357.705 369.658 357.683 369.658 357.668C369.658 357.652 369.666 357.63 369.695 357.601C369.724 357.572 369.77 357.54 369.837 357.507C369.97 357.44 370.171 357.372 370.44 357.305C370.978 357.171 371.773 357.041 372.8 356.918C374.853 356.67 377.825 356.447 381.499 356.259C388.847 355.884 398.999 355.653 410.213 355.653C421.427 355.653 431.579 355.884 438.927 356.259C442.601 356.447 445.573 356.67 447.626 356.918C448.653 357.041 449.448 357.171 449.986 357.305C450.255 357.372 450.456 357.44 450.589 357.507C450.656 357.54 450.702 357.572 450.731 357.601C450.76 357.63 450.768 357.652 450.768 357.668Z" stroke="#D6901E" stroke-width="0.113753" stroke-miterlimit="10"/>
<mask id="mask5" mask-type="alpha" maskUnits="userSpaceOnUse" x="329" y="331" width="81" height="54">
<path d="M329.359 374.964L334.708 384.062C335.705 385.683 353.291 377.306 374.05 365.235C394.809 353.164 410.764 342.084 409.857 340.462L404.509 331.364L329.359 374.964Z" fill="#E59E20"/>
</mask>
<g mask="url(#mask5)">
<path d="M329.359 374.964L334.708 384.062C335.705 385.683 353.291 377.306 374.05 365.235C394.809 353.164 410.764 342.084 409.857 340.462L404.509 331.364L329.359 374.964Z" fill="#E59E20"/>
<path d="M334.105 373.806L339.617 384.481C337.389 381.168 335.509 377.553 334.105 373.806Z" stroke="#D6901E" stroke-width="0.22752" stroke-miterlimit="10"/>
<path d="M338.335 371.827L343.185 381.605C341.211 378.569 339.568 375.283 338.335 371.827Z" stroke="#D6901E" stroke-width="0.22752" stroke-miterlimit="10"/>
<path d="M343.824 369.223L348.052 378.199C346.371 375.342 344.961 372.35 343.824 369.223Z" stroke="#D6901E" stroke-width="0.22752" stroke-miterlimit="10"/>
<mask id="path-234-inside-25" fill="white">
<path d="M349.119 365.506C350.932 369.469 352.926 373.343 355.193 377.126L349.119 365.506Z"/>
</mask>
<path d="M348.912 365.601C350.728 369.57 352.726 373.452 354.997 377.243L355.388 377.009C353.126 373.234 351.136 369.368 349.326 365.411L348.912 365.601Z" fill="#D6901E" mask="url(#path-234-inside-25)"/>
<path d="M355.227 363.394L360.863 372.976C358.661 369.997 356.769 366.777 355.227 363.394Z" stroke="#D6901E" stroke-width="0.22752" stroke-miterlimit="10"/>
<mask id="path-237-inside-26" fill="white">
<path d="M360 357.938C362.266 362.261 364.623 366.495 367.252 370.549L360 357.938Z"/>
</mask>
<path d="M359.798 358.043C362.066 362.37 364.427 366.611 367.061 370.673L367.443 370.425C364.819 366.38 362.466 362.153 360.201 357.832L359.798 358.043Z" fill="#D6901E" mask="url(#path-237-inside-26)"/>
<path d="M366.653 358.411L370.379 364.553C369.066 362.557 367.828 360.507 366.653 358.411Z" stroke="#D6901E" stroke-width="0.22752" stroke-miterlimit="10"/>
<mask id="path-240-inside-27" fill="white">
<path d="M369.517 352.983C371.874 356.677 374.231 360.46 376.678 364.153L369.517 352.983Z"/>
</mask>
<path d="M369.325 353.106C371.68 356.796 374.04 360.584 376.489 364.279L376.868 364.028C374.422 360.337 372.067 356.557 369.709 352.861L369.325 353.106Z" fill="#D6901E" mask="url(#path-240-inside-27)"/>
<path d="M381.927 360.284L375.826 350.798C378.294 353.662 380.312 356.853 381.927 360.284Z" stroke="#D6901E" stroke-width="0.22752" stroke-miterlimit="10"/>
<path d="M387.244 355.539L383.334 349.921C384.706 351.746 386.013 353.615 387.244 355.539Z" stroke="#D6901E" stroke-width="0.22752" stroke-miterlimit="10"/>
<path d="M392.093 350.893L389.158 346.836C390.174 348.157 391.153 349.508 392.093 350.893Z" stroke="#D6901E" stroke-width="0.22752" stroke-miterlimit="10"/>
<path d="M399.063 349.703L393.102 341.015C395.38 343.718 397.367 346.614 399.063 349.703Z" stroke="#D6901E" stroke-width="0.22752" stroke-miterlimit="10"/>
<path d="M404.854 348.605L396.891 337.743C400.22 340.795 402.932 344.55 404.854 348.605Z" stroke="#D6901E" stroke-width="0.22752" stroke-miterlimit="10"/>
<path d="M406.616 342.784L401.084 334.294C403.293 336.875 405.165 339.719 406.616 342.784Z" stroke="#D6901E" stroke-width="0.22752" stroke-miterlimit="10"/>
</g>
<path d="M368.771 356.206C389.522 344.16 405.545 333.038 404.56 331.362C403.575 329.687 385.955 338.093 365.204 350.138C344.453 362.184 328.43 373.306 329.414 374.982C330.399 376.657 348.02 368.251 368.771 356.206Z" fill="#F9B428"/>
<path d="M402.062 332.811C402.606 333.802 387.376 343.711 368.068 354.971C348.668 366.231 332.532 374.518 331.898 373.528C331.354 372.537 346.583 362.628 365.892 351.368C385.291 340.107 401.427 331.82 402.062 332.811Z" stroke="#D6901E" stroke-width="0.113753" stroke-miterlimit="10"/>
<path d="M422.634 304.521C422.634 304.521 422.634 318.574 409.943 320.106C409.943 320.106 422.634 321.907 422.634 332.987C422.634 321.907 435.325 320.106 435.325 320.106C422.634 318.574 422.634 304.521 422.634 304.521Z" fill="#FFC55F"/>
</svg>
