<svg width="29" height="24" viewBox="0 0 29 24" fill="none" xmlns="http://www.w3.org/2000/svg">
<path d="M25.4691 3.71679C26.6635 2.97509 27.5572 1.8072 27.9833 0.431184C26.8609 1.12291 25.633 1.61018 24.3525 1.87192C22.5772 -0.0787804 19.7644 -0.553493 17.4859 0.713043C15.2074 1.97958 14.0271 4.67381 14.6047 7.29026C10.0075 7.05052 5.7243 4.7948 2.82107 1.08443C1.30592 3.79903 2.08019 7.2692 4.59048 9.01472C3.68274 8.98441 2.79512 8.72912 2.00164 8.27013C2.00164 8.29504 2.00164 8.31995 2.00164 8.34487C2.00217 11.1726 3.92078 13.6083 6.58907 14.1687C5.74708 14.4067 4.8639 14.4417 4.00689 14.2711C4.7573 16.6893 6.90292 18.346 9.34845 18.3954C7.32299 20.0467 4.82162 20.9422 2.2468 20.9378C1.79042 20.9385 1.3344 20.9113 0.881104 20.8562C3.49578 22.6014 6.53893 23.5278 9.64691 23.5245C13.9709 23.5554 18.1263 21.7847 21.1837 18.6086C24.2412 15.4325 25.9455 11.116 25.9154 6.62456C25.9154 6.36714 25.9096 6.1111 25.8981 5.85644C27.0179 5.01581 27.9844 3.97442 28.7521 2.78121C27.7088 3.26154 26.6022 3.5769 25.4691 3.71679Z" fill="#25313C"/>
</svg>
