<svg width="60" height="55" viewBox="0 0 60 55" fill="none" xmlns="http://www.w3.org/2000/svg">
<rect y="0.751953" width="60" height="54" rx="10" fill="#1ACC8D"/>
<path d="M40.6524 19.7021C41.8468 18.9604 42.7405 17.7926 43.1666 16.4165C42.0443 17.1083 40.8163 17.5955 39.5359 17.8573C37.7606 15.9066 34.9478 15.4319 32.6693 16.6984C30.3907 17.9649 29.2105 20.6592 29.7881 23.2756C25.1908 23.0359 20.9077 20.7802 18.0044 17.0698C16.4893 19.7844 17.2635 23.2546 19.7738 25.0001C18.8661 24.9698 17.9785 24.7145 17.185 24.2555C17.185 24.2804 17.185 24.3053 17.185 24.3302C17.1855 27.1579 19.1041 29.5937 21.7724 30.1541C20.9304 30.392 20.0472 30.427 19.1902 30.2565C19.9406 32.6747 22.0863 34.3314 24.5318 34.3808C22.5063 36.0321 20.005 36.9276 17.4302 36.9232C16.9738 36.9239 16.5177 36.8966 16.0645 36.8415C18.6791 38.5868 21.7223 39.5131 24.8303 39.5099C29.1542 39.5407 33.3096 37.7701 36.3671 34.594C39.4245 31.4178 41.1288 27.1013 41.0988 22.6099C41.0988 22.3525 41.093 22.0965 41.0814 21.8418C42.2012 21.0012 43.1677 19.9598 43.9354 18.7666C42.8922 19.2469 41.7856 19.5622 40.6524 19.7021Z" fill="white"/>
</svg>
